<svg xmlns="http://www.w3.org/2000/svg" width="200" height="200" viewBox="0 0 200 200">
  <g id="Grupo_1923" data-name="Grupo 1923" transform="translate(15561 18562)">
    <g id="Grupo_1921" data-name="Grupo 1921" transform="translate(-481 -2924)">
      <path id="Caminho_744" data-name="Caminho 744" d="M73.479,157.987a11.6,11.6,0,0,1-11.2-8.716,1.057,1.057,0,0,0-1.023-.791H57.634a2.115,2.115,0,0,1-2.113-2.113V127.353c0-7.054-4.53-11.135-10.266-16.3C37.155,103.75,27.08,94.674,27,73.488v-.009s0-.059,0-.1A46.367,46.367,0,0,1,68.3,27.307c.1-.011.19-.027.285-.042.056-.01.113-.02.17-.026,1.59-.158,3.18-.239,4.725-.239s3.135.08,4.726.239c.052.006.107.015.162.025.092.015.182.03.275.041a46.36,46.36,0,0,1,41.311,46.071c0,.024,0,.086,0,.119-.083,21.18-10.155,30.256-18.249,37.548-5.742,5.174-10.272,9.256-10.272,16.309v19.014a2.115,2.115,0,0,1-2.113,2.113H85.705a1.057,1.057,0,0,0-1.023.791,11.6,11.6,0,0,1-11.2,8.716m-5.456-9.507a1.056,1.056,0,0,0-.912,1.589,7.337,7.337,0,0,0,12.737,0,1.056,1.056,0,0,0-.912-1.589Zm-7.22-9.507a1.056,1.056,0,0,0-1.056,1.056V143.2a1.056,1.056,0,0,0,1.056,1.056H86.155a1.056,1.056,0,0,0,1.056-1.056v-3.169a1.056,1.056,0,0,0-1.056-1.056Zm0-9.507a1.056,1.056,0,0,0-1.056,1.056v3.169a1.056,1.056,0,0,0,1.056,1.056H86.155a1.056,1.056,0,0,0,1.056-1.056v-3.169a1.056,1.056,0,0,0-1.056-1.056Zm12.676-98.24a42.73,42.73,0,0,0-4.3.218c-.084.008-.165.021-.246.035l-.1.016a42.179,42.179,0,0,0-37.61,41.98C31.3,92.79,40.214,100.819,48.078,107.9c5.314,4.788,10.334,9.31,11.432,16.442a1.056,1.056,0,0,0,1.044.9H86.4a1.056,1.056,0,0,0,1.044-.9c1.1-7.132,6.118-11.654,11.432-16.442,7.863-7.084,16.777-15.113,16.851-34.425A42.179,42.179,0,0,0,78.111,31.492l-.1-.015c-.079-.013-.158-.026-.238-.033a42.705,42.705,0,0,0-4.3-.218" transform="translate(-15052.986 -15620.986)" fill="#fff"/>
      <path id="Caminho_745" data-name="Caminho 745" d="M92.113,10.563A2.115,2.115,0,0,1,90,8.451V2.113a2.113,2.113,0,1,1,4.225,0V8.451a2.115,2.115,0,0,1-2.113,2.113" transform="translate(-15071.619 -15613)" fill="#fff"/>
      <path id="Caminho_746" data-name="Caminho 746" d="M2.113,94.225a2.113,2.113,0,1,1,0-4.225H8.451a2.113,2.113,0,1,1,0,4.225Z" transform="translate(-15045 -15639.619)" fill="#fff"/>
      <path id="Caminho_747" data-name="Caminho 747" d="M173.113,94.225a2.113,2.113,0,0,1,0-4.225h6.338a2.113,2.113,0,1,1,0,4.225Z" transform="translate(-15095.577 -15639.619)" fill="#fff"/>
      <path id="Caminho_748" data-name="Caminho 748" d="M35.45,33.063a2.1,2.1,0,0,1-1.494-.62l-6.338-6.338a2.112,2.112,0,1,1,2.987-2.987l6.338,6.338a2.113,2.113,0,0,1-1.494,3.606" transform="translate(-15052.986 -15619.654)" fill="#fff"/>
      <path id="Caminho_749" data-name="Caminho 749" d="M156.95,154.563a2.1,2.1,0,0,1-1.494-.62l-6.338-6.338a2.112,2.112,0,1,1,2.987-2.987l6.338,6.338a2.113,2.113,0,0,1-1.494,3.606" transform="translate(-15088.922 -15655.59)" fill="#fff"/>
      <path id="Caminho_750" data-name="Caminho 750" d="M146.112,33.063a2.112,2.112,0,0,1-1.494-3.606l6.338-6.338a2.112,2.112,0,1,1,2.987,2.987l-6.338,6.338a2.1,2.1,0,0,1-1.494.62" transform="translate(-15087.59 -15619.654)" fill="#fff"/>
      <path id="Caminho_751" data-name="Caminho 751" d="M24.612,154.563a2.112,2.112,0,0,1-1.494-3.606l6.338-6.338a2.112,2.112,0,1,1,2.987,2.987l-6.338,6.338a2.1,2.1,0,0,1-1.494.62" transform="translate(-15051.654 -15655.59)" fill="#fff"/>
      <path id="Caminho_752" data-name="Caminho 752" d="M79.5,112.621c-.209,0-.418,0-.627-.014a35.117,35.117,0,0,1-4.076-.242,2.108,2.108,0,0,1-1.783-1.485l-1.3-4.308a1.059,1.059,0,0,0-.727-.712c-.62-.173-1.255-.373-1.885-.6a1.068,1.068,0,0,0-.353-.061,1.057,1.057,0,0,0-.639.215L64.438,108.2a2.1,2.1,0,0,1-2.287.175,34.6,34.6,0,0,1-6.656-4.725,2.1,2.1,0,0,1-.569-2.278L56.44,97.15a1.057,1.057,0,0,0-.17-1.018c-.376-.469-.753-.975-1.119-1.5a1.054,1.054,0,0,0-.868-.454l-4.67.139a2.151,2.151,0,0,1-1.97-1.2,33.281,33.281,0,0,1-2.568-7.68,2.1,2.1,0,0,1,.885-2.169L49.743,80.7a1.058,1.058,0,0,0,.463-.913c-.011-.3-.017-.606-.018-.911s0-.612.012-.918a1.054,1.054,0,0,0-.469-.908l-3.792-2.532a2.11,2.11,0,0,1-.9-2.168,33.7,33.7,0,0,1,2.525-7.694,2.134,2.134,0,0,1,1.993-1.216l4.637.114a1.054,1.054,0,0,0,.871-.46c.358-.521.731-1.03,1.111-1.513a1.055,1.055,0,0,0,.162-1.016L54.8,56.365a2.1,2.1,0,0,1,.557-2.284,34.4,34.4,0,0,1,6.627-4.762,2.113,2.113,0,0,1,1.024-.267,2.085,2.085,0,0,1,1.266.425l3.682,2.763a1.057,1.057,0,0,0,.989.151c.638-.227,1.271-.431,1.882-.6a1.057,1.057,0,0,0,.724-.716l1.282-4.314a2.109,2.109,0,0,1,1.768-1.5A38.313,38.313,0,0,1,78.8,45a34.887,34.887,0,0,1,4.021.237A2.111,2.111,0,0,1,84.6,46.723L85.9,51.031a1.056,1.056,0,0,0,.727.711c.611.17,1.244.37,1.883.6a1.055,1.055,0,0,0,.989-.156L93.168,49.4a2.087,2.087,0,0,1,1.278-.433,2.126,2.126,0,0,1,1.013.259,34.85,34.85,0,0,1,6.655,4.731,2.1,2.1,0,0,1,.57,2.278l-1.514,4.219a1.057,1.057,0,0,0,.168,1.014c.389.489.766,1,1.122,1.509a1.055,1.055,0,0,0,.867.453L108,63.29a2.155,2.155,0,0,1,1.97,1.206,33.125,33.125,0,0,1,2.561,7.682,2.114,2.114,0,0,1-.887,2.167L107.87,76.9a1.058,1.058,0,0,0-.463.916c.012.3.018.6.018.908s0,.608-.013.91a1.055,1.055,0,0,0,.468.915l3.789,2.537a2.11,2.11,0,0,1,.9,2.16,33.131,33.131,0,0,1-2.52,7.7,2.129,2.129,0,0,1-1.926,1.216l-4.7-.115a1.056,1.056,0,0,0-.871.46c-.346.5-.709,1-1.111,1.51a1.056,1.056,0,0,0-.161,1.014l1.537,4.212a2.108,2.108,0,0,1-.558,2.282,34.476,34.476,0,0,1-6.633,4.762,2.145,2.145,0,0,1-1.023.26,2.08,2.08,0,0,1-1.262-.42l-3.68-2.765a1.055,1.055,0,0,0-.992-.149c-.628.226-1.261.43-1.878.606a1.057,1.057,0,0,0-.723.715l-1.285,4.317a2.118,2.118,0,0,1-1.776,1.5,29.911,29.911,0,0,1-3.5.275M68.234,100.55a2.117,2.117,0,0,1,.832.17,24.555,24.555,0,0,0,4.573,1.445,2.114,2.114,0,0,1,1.588,1.454l1.2,3.977a1.056,1.056,0,0,0,.957.749l.165.008c.334.018.664.035.994.035.127,0,.256,0,.383-.008h.042c.435,0,.915-.016,1.406-.041a1.057,1.057,0,0,0,.959-.754l1.185-3.986a2.111,2.111,0,0,1,1.58-1.463,24.932,24.932,0,0,0,4.565-1.467,2.125,2.125,0,0,1,2.108.25l3.394,2.551a1.057,1.057,0,0,0,1.209.042c.818-.53,1.616-1.1,2.37-1.7a1.057,1.057,0,0,0,.337-1.19l-1.411-3.868a2.109,2.109,0,0,1,.417-2.14,24.02,24.02,0,0,0,2.8-3.8,2.192,2.192,0,0,1,1.894-1.037l4.274.106a1.057,1.057,0,0,0,.986-.677c.333-.867.629-1.765.879-2.67a1.056,1.056,0,0,0-.43-1.159l-3.48-2.331a2.112,2.112,0,0,1-.927-1.954c.078-.828.115-1.6.111-2.353,0-.773-.042-1.546-.125-2.361a2.115,2.115,0,0,1,.918-1.957l3.466-2.345a1.056,1.056,0,0,0,.425-1.16c-.249-.886-.549-1.782-.891-2.666a1.057,1.057,0,0,0-.985-.674l-4.308.13a2.207,2.207,0,0,1-1.873-1.024A24.269,24.269,0,0,0,97,62.883a2.113,2.113,0,0,1-.424-2.134l1.389-3.869a1.054,1.054,0,0,0-.341-1.187A29.186,29.186,0,0,0,95.234,54a1.056,1.056,0,0,0-1.2.051L90.65,56.617a2.1,2.1,0,0,1-1.28.43,2.143,2.143,0,0,1-.832-.168,24.717,24.717,0,0,0-4.57-1.442,2.114,2.114,0,0,1-1.582-1.454l-1.207-3.973a1.056,1.056,0,0,0-.964-.749c-.253-.011-.5-.014-.755-.017-.23,0-.458-.006-.689-.017h-.051c-.525,0-1.006.016-1.489.041a1.056,1.056,0,0,0-.958.754L75.089,54a2.115,2.115,0,0,1-1.576,1.466,25.171,25.171,0,0,0-4.57,1.466,2.084,2.084,0,0,1-.836.173,2.136,2.136,0,0,1-1.273-.423L63.44,54.135a1.057,1.057,0,0,0-1.207-.044c-.813.525-1.611,1.1-2.371,1.7a1.058,1.058,0,0,0-.335,1.191l1.411,3.858a2.1,2.1,0,0,1-.411,2.135,24.345,24.345,0,0,0-2.808,3.814,2.239,2.239,0,0,1-1.9,1.037l-4.266-.1a1.057,1.057,0,0,0-.986.677c-.331.859-.627,1.757-.881,2.668a1.054,1.054,0,0,0,.43,1.161l3.48,2.325a2.113,2.113,0,0,1,.93,1.972,22.844,22.844,0,0,0-.112,2.345,23.257,23.257,0,0,0,.125,2.337,2.106,2.106,0,0,1-.916,1.976l-3.471,2.345a1.057,1.057,0,0,0-.425,1.163c.253.9.554,1.792.894,2.666a1.056,1.056,0,0,0,.984.673l4.308-.131a2.2,2.2,0,0,1,1.871,1.024,23.8,23.8,0,0,0,2.826,3.789,2.1,2.1,0,0,1,.43,2.139l-1.392,3.875a1.057,1.057,0,0,0,.342,1.189c.773.606,1.574,1.174,2.381,1.687a1.058,1.058,0,0,0,1.206-.05l3.382-2.569a2.086,2.086,0,0,1,1.276-.432" transform="translate(-15058.309 -15626.31)" fill="#fff"/>
      <path id="Caminho_753" data-name="Caminho 753" d="M86.789,101.578a14.789,14.789,0,1,1,7.4-27.594,2.113,2.113,0,0,1-1.061,3.943,2.1,2.1,0,0,1-1.053-.285,10.565,10.565,0,1,0,5.277,9.148,2.113,2.113,0,0,1,4.225,0,14.805,14.805,0,0,1-14.789,14.789" transform="translate(-15066.296 -15634.296)" fill="#fff"/>
    </g>
    <g id="Elipse_184" data-name="Elipse 184" transform="translate(-15561 -18562)" fill="none" stroke="#fff" stroke-width="2">
      <circle cx="100" cy="100" r="100" stroke="none"/>
      <circle cx="100" cy="100" r="99" fill="none"/>
    </g>
  </g>
</svg>
