<svg id="Grupo_1714" data-name="Grupo 1714" xmlns="http://www.w3.org/2000/svg" width="70.901" height="70" viewBox="0 0 70.901 70">
  <path id="Caminho_632" data-name="Caminho 632" d="M134.83,6.252m0,0A26.254,26.254,0,1,0,161.49,32.5a26.352,26.352,0,0,0-26.66-26.25m0,55.416c-16.307,0-29.621-13.125-29.621-29.166S118.523,3.333,134.83,3.333,164.444,16.458,164.444,32.5,151.13,61.668,134.83,61.668" transform="translate(-105.209 8.332)" fill="#5b3181" fill-rule="evenodd"/>
  <path id="Caminho_633" data-name="Caminho 633" d="M127.326,9.108m0,0A16.5,16.5,0,0,0,110.984,25.45a16.342,16.342,0,0,0,32.683,0A16.5,16.5,0,0,0,127.326,9.108m0,35.638a19.3,19.3,0,1,1,19.3-19.3,19.295,19.295,0,0,1-19.3,19.3" transform="translate(-98.156 15.385)" fill="#5b3181" fill-rule="evenodd"/>
  <path id="Caminho_634" data-name="Caminho 634" d="M120.085,12.073m0,0a5.871,5.871,0,0,0-5.985,5.684,5.991,5.991,0,0,0,11.967,0,5.9,5.9,0,0,0-5.982-5.684m0,14.21c-5.089,0-8.978-3.7-8.978-8.526S115,9.231,120.085,9.231s8.971,3.7,8.971,8.526-3.889,8.526-8.971,8.526" transform="translate(-90.464 23.077)" fill="#5b3181" fill-rule="evenodd"/>
  <path id="Caminho_635" data-name="Caminho 635" d="M114.778,29.259m0,0A1.935,1.935,0,0,1,113.619,29a1.424,1.424,0,0,1,0-2.02L135.533,5.588a1.466,1.466,0,0,1,2.055,0,1.36,1.36,0,0,1,0,2.02L115.674,29c0,.263-.6.263-.9.263" transform="translate(-85.234 12.92)" fill="#5b3181" fill-rule="evenodd"/>
  <path id="Caminho_636" data-name="Caminho 636" d="M122.523,17.686m0,0h5.31l7.368-7.368h-3.854a1.393,1.393,0,0,1-1.456-1.456V5.009l-7.368,7.368Zm5.908,2.954h-7.4a1.4,1.4,0,0,1-1.46-1.46v-7.4c0-.263.263-.861.263-1.2L130.15.259a4.326,4.326,0,0,1,1.8-.259,1.549,1.549,0,0,1,.9,1.456V7.364h5.908a1.549,1.549,0,0,1,1.456.9,4.326,4.326,0,0,1-.259,1.8L129.628,20.377c-.336,0-.935.263-1.2.263" transform="translate(-69.308 0)" fill="#5b3181" fill-rule="evenodd"/>
</svg>
