<svg xmlns="http://www.w3.org/2000/svg" width="80.608" height="70" viewBox="0 0 80.608 70">
  <g id="Grupo_1790" data-name="Grupo 1790" transform="translate(5261.317 16860.94)">
    <path id="Caminho_630" data-name="Caminho 630" d="M197.83,16.181h17.363V33.065H197.83Zm-10.076,7.069c-.536,0-1.108.532-1.108,1.636,0,.528.572,1.632,1.108,1.632h7.287v3.8H190.58c-.576,0-1.149.576-1.149,1.636a1.191,1.191,0,0,0,1.149,1.1h4.462V34.7c0,.528.576,1.636,1.1,1.636h1.685v3.8a1.749,1.749,0,0,0,1.677,1.632,2.407,2.407,0,0,0,1.677-1.632v-3.8h3.934v6.537a1.787,1.787,0,0,0,1.681,1.636,2.5,2.5,0,0,0,1.681-1.636V36.333h3.93v3.8a1.721,1.721,0,0,0,1.681,1.632c.532,0,1.1-1.06,1.1-1.632v-3.8h1.681a1.786,1.786,0,0,0,1.681-1.636V33.061h3.93c1.108,0,1.681-.528,1.681-1.1a1.484,1.484,0,0,0-1.681-1.636h-3.93v-3.8h6.715a1.787,1.787,0,0,0,1.681-1.632,1.467,1.467,0,0,0-1.681-1.636h-6.715v-3.8h3.93a1.783,1.783,0,0,0,1.681-1.636,1.463,1.463,0,0,0-1.681-1.632h-3.93V14.545c0-.576-.572-1.1-1.681-1.1h-1.681V9.064a1.183,1.183,0,0,0-1.1-1.06c-1.145,0-1.681.532-1.681,1.06v4.377h-3.93V6.367c0-.572-1.108-1.1-1.681-1.1-1.1,0-1.681.532-1.681,1.1v7.073h-3.934V9.064c0-.528-1.1-1.06-1.677-1.06-1.1,0-1.677.532-1.677,1.06v4.377h-1.685a1.187,1.187,0,0,0-1.1,1.1v1.636H190.58c-.576,0-1.149.528-1.149,1.632,0,.532.572,1.636,1.149,1.636h4.462v3.8Z" transform="translate(-5427.811 -16850.295)" fill="#1f84c8" fill-rule="evenodd"/>
    <path id="Caminho_631" data-name="Caminho 631" d="M256.773,67.471a2.611,2.611,0,0,1-2.741-2.781,2.524,2.524,0,0,1,2.741-2.213,2.383,2.383,0,0,1,2.213,2.213,2.537,2.537,0,0,1-2.213,2.781M189.864,64.69a2.534,2.534,0,0,1-2.209,2.781,2.609,2.609,0,0,1-2.741-2.781,2.521,2.521,0,0,1,2.741-2.213,2.379,2.379,0,0,1,2.209,2.213M184.915,7.946a2.521,2.521,0,0,1,2.741-2.213,2.379,2.379,0,0,1,2.209,2.213,2.521,2.521,0,0,1-2.209,2.741,2.6,2.6,0,0,1-2.741-2.741m69.117,0a2.524,2.524,0,0,1,2.741-2.213,2.383,2.383,0,0,1,2.213,2.213,2.524,2.524,0,0,1-2.213,2.741,2.6,2.6,0,0,1-2.741-2.741m4.377,51.263v-6.63a2.427,2.427,0,0,0-1.636-1.632h-9.322a6.242,6.242,0,0,0-.532-2.785,12.889,12.889,0,0,0,7.114-11.579,13.109,13.109,0,0,0-7.114-12.107,5.229,5.229,0,0,0,.532-2.785h9.322a1.74,1.74,0,0,0,1.636-1.636v-6.63a5.412,5.412,0,0,0,3.845-5.477,5.9,5.9,0,0,0-5.481-5.526A5.483,5.483,0,0,0,251.3,7.946a5.407,5.407,0,0,0,3.845,5.477v4.994h-7.162c-.528-2.781-1.632-5.522-3.8-7.158C242.5,9.05,239.76,7.946,237.02,7.37A8.9,8.9,0,0,0,228.8,1.316a7.6,7.6,0,0,0-6.582,3.845A9.3,9.3,0,0,0,215.1,1.316c-3.313,0-6.582,2.741-7.686,6.054a14.9,14.9,0,0,0-7.69,3.889,10.87,10.87,0,0,0-3.273,7.158h-7.114V13.423a5.461,5.461,0,0,0,3.845-5.477,5.907,5.907,0,0,0-5.526-5.526c-3.269,0-6.009,2.741-6.009,5.526a5.9,5.9,0,0,0,4.373,5.477v6.63a1.453,1.453,0,0,0,1.636,1.636h8.794c0,1.1.532,1.677.532,2.785a11.349,11.349,0,0,0-4.377,4.417,1.387,1.387,0,0,0,.576,2.209,3.121,3.121,0,0,0,2.164-.572,9.763,9.763,0,0,1,4.377-3.845,1.191,1.191,0,0,0,1.1-1.1v-1.1a7.421,7.421,0,0,1-1.636-4.421,9.249,9.249,0,0,1,9.326-9.367,6.53,6.53,0,0,1,3.269.572,6.629,6.629,0,0,1,2.209,1.636c.532,0,.532.528,1.1.528.532.576.532.576,1.108,0a1.187,1.187,0,0,0,1.1-1.1c0-.528,0-1.06-.576-1.06,0-.572-.528-.572-1.1-1.1-.532-.576-1.636-1.1-2.164-1.681a6.221,6.221,0,0,0-2.741-.528A4.575,4.575,0,0,1,215.1,4.629a5.209,5.209,0,0,1,5.481,5.526c0,.532.532,1.1,1.636,1.1.572,0,1.632-.572,1.632-1.1,0-3.313,2.213-5.526,4.949-5.526a5.283,5.283,0,0,1,4.953,3.317c-1.108,0-2.213,0-2.741.528a10.293,10.293,0,0,0-3.845,2.785c-.576.532-.576,1.06,0,2.164a1.627,1.627,0,0,0,2.209,0,8.578,8.578,0,0,1,2.741-2.164,6.53,6.53,0,0,1,3.269-.572,8.942,8.942,0,0,1,9.326,9.367,12.8,12.8,0,0,1-1.1,4.421c-.532.528-.532.528,0,1.1,0,.528,0,1.1.572,1.1,4.377,1.636,6.541,5.477,6.541,9.9a9.824,9.824,0,0,1-6.541,9.371c-.572.572-.572.572-.572,1.1-.532.572-.532,1.1,0,1.1a15.684,15.684,0,0,1,1.1,4.949c0,4.994-3.845,8.839-9.326,8.839a6.49,6.49,0,0,1-3.269-.576c-1.1-.528-1.681-1.06-2.741-1.632-.576-1.108-1.681-1.108-2.209,0-.576.572-.576,1.1,0,2.209a9.151,9.151,0,0,0,3.845,2.209c.528.532,1.632.532,2.741,1.1A5.8,5.8,0,0,1,228.8,68a4.943,4.943,0,0,1-4.949-4.949,1.754,1.754,0,0,0-1.632-1.681,1.467,1.467,0,0,0-1.636,1.681c0,2.741-2.209,4.949-5.481,4.949-1.632,0-3.845-1.1-4.373-2.741.528-.572,1.636-.572,2.741-1.1a12.5,12.5,0,0,0,3.269-2.209c.576-1.1.576-1.636,0-2.209-.528-1.108-1.636-1.108-2.209,0a10.189,10.189,0,0,1-2.741,1.632,6.49,6.49,0,0,1-3.269.576c-4.949,0-9.326-3.845-9.326-8.839a8.913,8.913,0,0,1,1.636-4.949v-1.1c0-.532-.532-.532-1.1-1.1a7.273,7.273,0,0,1-4.377-3.845,1.571,1.571,0,0,0-2.164,0c-1.1.528-1.1,1.1-.576,2.209a9.787,9.787,0,0,0,4.377,3.845,26.559,26.559,0,0,1-.532,2.785h-8.794a1.745,1.745,0,0,0-1.636,1.632v6.63c-2.164,1.1-4.373,2.741-4.373,5.481,0,3.313,2.741,5.522,6.009,5.522a5.521,5.521,0,0,0,5.526-5.522c0-2.741-1.681-4.377-3.845-5.481V54.215h7.114c0,2.785,1.636,5.526,3.273,7.734a19.9,19.9,0,0,0,7.69,3.313c1.1,3.317,4.373,6.054,7.686,6.054A10.692,10.692,0,0,0,222.216,68a8.479,8.479,0,0,0,6.582,3.313,8.892,8.892,0,0,0,8.222-6.054,14.912,14.912,0,0,0,7.158-3.313,14.658,14.658,0,0,0,3.8-7.734h7.162v4.994c-2.213,1.1-3.845,2.741-3.845,5.481a5.182,5.182,0,0,0,5.477,5.522,5.512,5.512,0,0,0,5.481-5.522c0-2.741-1.636-4.377-3.845-5.481" transform="translate(-5442.963 -16862.256)" fill="#1f84c8" fill-rule="evenodd"/>
  </g>
</svg>
