<svg xmlns="http://www.w3.org/2000/svg" width="69.931" height="70" viewBox="0 0 69.931 70">
  <g id="Grupo_1698" data-name="Grupo 1698" transform="translate(5844.322 16868)">
    <path id="Caminho_637" data-name="Caminho 637" d="M84.84,43.947a2.493,2.493,0,0,1-.532,2.706,2.69,2.69,0,0,1-3.094.389,2.531,2.531,0,0,1-1.176-2.807,2.478,2.478,0,0,1,2.383-1.887h.144a2.467,2.467,0,0,1,2.275,1.6M90.283,7.561a1.225,1.225,0,0,0-1.211,1.211V33.136h-6.58a1.282,1.282,0,0,0-.854.318.864.864,0,0,0-.284.819v5.8a5.23,5.23,0,0,0-2.383,1.278,4.955,4.955,0,0,0,0,7.011,5.187,5.187,0,0,0,7.116,0,4.984,4.984,0,0,0,0-7.011,5.214,5.214,0,0,0-2.279-1.278V35.554h6.405a1.356,1.356,0,0,0,1.316-1.281V8.772a1.256,1.256,0,0,0-1.246-1.211" transform="translate(-5906.009 -16849.098)" fill="#9c1072" fill-rule="evenodd"/>
    <path id="Caminho_638" data-name="Caminho 638" d="M88.934,46.117h0a2.607,2.607,0,0,1-1.813,2.454,2.517,2.517,0,0,1-2.384-4.232,2.646,2.646,0,0,1,1.67-.784h.108a2.55,2.55,0,0,1,2.419,2.562M87.653,41.28V8.807a1.228,1.228,0,0,0-1.211-1.246,1.253,1.253,0,0,0-1.207,1.246V41.28a4.89,4.89,0,1,0,2.419,0" transform="translate(-5895.801 -16849.098)" fill="#9c1072" fill-rule="evenodd"/>
    <path id="Caminho_639" data-name="Caminho 639" d="M93.869,47.647a2.37,2.37,0,0,1-2.706-1.208,2.524,2.524,0,0,1,.357-3.024,2.274,2.274,0,0,1,1.635-.746H93.3a2.479,2.479,0,0,1,2.349,2.524,2.575,2.575,0,0,1-1.778,2.454m2.7-5.975a4.812,4.812,0,0,0-2.24-1.316v-5.87a1.162,1.162,0,0,0-.287-.781,1.068,1.068,0,0,0-.816-.357H87.037V8.772a1.173,1.173,0,1,0-2.345,0V34.487A1.321,1.321,0,0,0,85.934,35.8h6.048v4.554a4.985,4.985,0,0,0-2.135,1.316A5.183,5.183,0,0,0,88.78,47.15a4.781,4.781,0,0,0,4.414,3.094A4.711,4.711,0,0,0,97.6,47.15a5.172,5.172,0,0,0-1.033-5.478" transform="translate(-5888.073 -16849.098)" fill="#9c1072" fill-rule="evenodd"/>
    <path id="Caminho_640" data-name="Caminho 640" d="M137.126,40.194a11.38,11.38,0,0,1-8.145,3.413H87.114a11.539,11.539,0,0,1-11.6-11.417,11.4,11.4,0,0,1,3.346-8.145,11.659,11.659,0,0,1,8.18-3.378h1a1.3,1.3,0,0,0,1.207-1.141,18.784,18.784,0,0,1,37.419,0,1.269,1.269,0,0,0,1.211,1.141h.994a11.53,11.53,0,0,1,11.6,11.382,11.241,11.241,0,0,1-3.343,8.145m-8.11-22.054a21.27,21.27,0,0,0-42.077,0,13.962,13.962,0,1,0,.175,27.923h41.867a13.962,13.962,0,0,0,.035-27.923" transform="translate(-5917.316 -16868)" fill="#9c1072" fill-rule="evenodd"/>
  </g>
</svg>
