<svg xmlns="http://www.w3.org/2000/svg" width="200" height="200" viewBox="0 0 200 200">
  <g id="Grupo_1766" data-name="Grupo 1766" transform="translate(-377 -1443)">
    <g id="Grupo_1764" data-name="Grupo 1764" transform="translate(5935 18714.156)">
      <path id="Caminho_665" data-name="Caminho 665" d="M23.6,127.973m0,0V119.12a3.466,3.466,0,0,1,3.45-3.441h29.9a3.419,3.419,0,0,1,3.394,3.441v8.853a3.406,3.406,0,0,1-3.394,3.382H27.05a3.455,3.455,0,0,1-3.45-3.382M16.265,107.8a8.44,8.44,0,0,1-8.379-8.529,8.528,8.528,0,0,1,8.379-8.588h2.079A2.591,2.591,0,0,0,20.7,86.973,5.966,5.966,0,0,1,29.35,79.3,2.593,2.593,0,0,0,33.238,78a14.934,14.934,0,0,1,5.256-6.941A14.529,14.529,0,0,1,61.277,81a2.558,2.558,0,0,0,2.735,2.235A12.285,12.285,0,0,1,65.6,107.679V98.12a8.666,8.666,0,0,0-8.65-8.647H27.05a8.714,8.714,0,0,0-8.706,8.647c0,9.559,0,9.088.056,9.676Zm7.335-.824V98.12a3.506,3.506,0,0,1,3.45-3.441h29.9a3.457,3.457,0,0,1,3.394,3.441v8.853a3.419,3.419,0,0,1-3.394,3.441H27.05a3.466,3.466,0,0,1-3.45-3.441m57.771,34.882H44.629V136.62H56.95a8.666,8.666,0,0,0,8.65-8.647V119.12a8.668,8.668,0,0,0-2.462-6.059h.874a17.557,17.557,0,0,0,2.026-34.971,19.708,19.708,0,0,0-36.524-4.529A11.249,11.249,0,0,0,14.95,85.532a13.805,13.805,0,0,0,1.315,27.529h4.6A8.668,8.668,0,0,0,18.4,119.12v8.853a8.666,8.666,0,0,0,8.65,8.647H39.371v5.235H2.629A2.634,2.634,0,0,0,0,144.5a2.591,2.591,0,0,0,2.629,2.618H81.371A2.626,2.626,0,0,0,84,144.5a2.671,2.671,0,0,0-2.629-2.647" transform="translate(-5500 -17276.275)" fill="#115585" fill-rule="evenodd"/>
      <path id="Caminho_666" data-name="Caminho 666" d="M15.487,78.424m0,0a2.787,2.787,0,0,1-2.824,2.824A2.824,2.824,0,0,1,9.84,78.424,2.863,2.863,0,0,1,12.664,75.6a2.824,2.824,0,0,1,2.824,2.824" transform="translate(-5480.899 -17252.049)" fill="#115585" fill-rule="evenodd"/>
      <path id="Caminho_667" data-name="Caminho 667" d="M15.487,85.271m0,0a2.674,2.674,0,0,1-2.824,2.471A2.713,2.713,0,0,1,9.84,85.271,2.672,2.672,0,0,1,12.664,82.8a2.635,2.635,0,0,1,2.824,2.471" transform="translate(-5480.899 -17238.072)" fill="#115585" fill-rule="evenodd"/>
      <path id="Caminho_668" data-name="Caminho 668" d="M28.259,75.6m0,0H15.109a2.733,2.733,0,0,0-2.629,2.824,2.7,2.7,0,0,0,2.629,2.824h13.15a2.688,2.688,0,0,0,2.574-2.824A2.725,2.725,0,0,0,28.259,75.6" transform="translate(-5475.774 -17252.049)" fill="#115585" fill-rule="evenodd"/>
      <path id="Caminho_669" data-name="Caminho 669" d="M30.833,85.271m0,0A2.511,2.511,0,0,0,28.259,82.8H15.109a2.525,2.525,0,0,0-2.629,2.471,2.563,2.563,0,0,0,2.629,2.471h13.15a2.549,2.549,0,0,0,2.574-2.471" transform="translate(-5475.774 -17238.072)" fill="#115585" fill-rule="evenodd"/>
    </g>
    <g id="Elipse_176" data-name="Elipse 176" transform="translate(377 1443)" fill="none" stroke="#115585" stroke-width="4">
      <circle cx="100" cy="100" r="100" stroke="none"/>
      <circle cx="100" cy="100" r="98" fill="none"/>
    </g>
  </g>
</svg>
