<svg xmlns="http://www.w3.org/2000/svg" width="84" height="80.027" viewBox="0 0 84 80.027">
  <g id="Grupo_1718" data-name="Grupo 1718" transform="translate(70.92 14068.479)">
    <rect id="Retângulo_540" data-name="Retângulo 540" width="2.27" height="2.838" transform="translate(-26.082 -14009.451)" fill="#fff"/>
    <rect id="Retângulo_541" data-name="Retângulo 541" width="2.27" height="2.838" transform="translate(-36.298 -14009.451)" fill="#fff"/>
    <rect id="Retângulo_542" data-name="Retângulo 542" width="2.838" height="2.838" transform="translate(-31.19 -14009.451)" fill="#fff"/>
    <path id="Caminho_645" data-name="Caminho 645" d="M513.529,249.6m0,0a3.866,3.866,0,0,1-3.878,3.878H442.536a3.866,3.866,0,0,1-3.878-3.878V205.709a3.846,3.846,0,0,1,3.878-3.855h3.878v2.578h-2.6a2.615,2.615,0,0,0-2.578,2.578v36.135a2.615,2.615,0,0,0,2.578,2.578h64.561a2.615,2.615,0,0,0,2.578-2.578V207.01a2.615,2.615,0,0,0-2.578-2.578h-2.6v-2.578h3.878a3.846,3.846,0,0,1,3.878,3.855Zm-27.693,11.611H466.35a9.838,9.838,0,0,0,1.939-5.155H483.9a9.836,9.836,0,0,0,1.939,5.155m10.9,6.456a1.308,1.308,0,0,1-1.277,1.3H456.725a1.308,1.308,0,0,1-1.277-1.3,3.826,3.826,0,0,1,3.855-3.855h33.581a3.825,3.825,0,0,1,3.855,3.855M450.269,194.1h51.649a1.308,1.308,0,0,1,1.277,1.3V207.01h-54.2V195.4a1.308,1.308,0,0,1,1.277-1.3m55.5,12.912h2.6v36.135h-2.6Zm-41.291,27.1A11.647,11.647,0,0,0,452.871,222.5a11.839,11.839,0,0,0-3.878.686v-5.841h6.716l.8,3,.639.26a17.309,17.309,0,0,1,2.223.875l.639.378,2.7-1.632,4.02,4.044-1.608,2.7.378.639a21.745,21.745,0,0,1,.922,2.2l.213.662,3,.8v5.7l-3,.8-.284.639a16.825,16.825,0,0,1-.851,2.2l-.331.591,1.088,1.939h-6.125a11.509,11.509,0,0,0,4.351-9.034m-15.49,0a3.867,3.867,0,1,1,3.878,3.878,3.866,3.866,0,0,1-3.878-3.878m0,5.108a6.041,6.041,0,0,0,3.878,1.348,6.456,6.456,0,0,0,0-12.912A6.177,6.177,0,0,0,448.992,229v-3a8.75,8.75,0,0,1,3.878-.922,9.034,9.034,0,0,1,0,18.068h-3.878Zm-2.578,3.926h-2.6V207.01h2.6Zm48.243-29.253a3.6,3.6,0,0,0-6.149,0l-5.959,9.53v19.723H469.165l-1.088-1.987c.213-.426.378-.8.544-1.23l3.594-.922v-9.791l-3.594-.9c-.166-.378-.331-.828-.544-1.253l1.939-3.169-6.929-6.929-3.193,1.939a13.166,13.166,0,0,0-1.23-.544l-.922-3.618h-8.75v-5.155h54.2v33.557h-2.578V223.422Zm-8.514,8.608,4.588-7.26a1.039,1.039,0,0,1,1.7,0l4.588,7.26Zm-1.017,2.578h12.912v18.068H485.127Zm24.524-25.824h-3.878V195.4a3.846,3.846,0,0,0-3.855-3.878H450.269a3.845,3.845,0,0,0-3.855,3.878v3.855h-3.878a6.48,6.48,0,0,0-6.456,6.456V249.6a6.48,6.48,0,0,0,6.456,6.456h23.176a7.438,7.438,0,0,1-2.956,5.155H459.3a6.459,6.459,0,0,0-6.432,6.456,3.846,3.846,0,0,0,3.855,3.878h38.736a3.846,3.846,0,0,0,3.855-3.878,6.459,6.459,0,0,0-6.432-6.456h-3.453a7.354,7.354,0,0,1-2.956-5.155h23.176a6.48,6.48,0,0,0,6.456-6.456V205.709a6.48,6.48,0,0,0-6.456-6.456" transform="translate(-507 -14259.999)" fill="#fff" fill-rule="evenodd"/>
    <path id="Caminho_646" data-name="Caminho 646" d="M458.9,199.843m0,0H456.35v-2.767H458.9Zm2.554-5.2H454.08v7.946h7.378Z" transform="translate(-482.433 -14255.741)" fill="#fff" fill-rule="evenodd"/>
    <path id="Caminho_647" data-name="Caminho 647" d="M458.9,199.843m0,0H456.35v-2.767H458.9Zm2.554-5.2H454.08v7.946h7.378Z" transform="translate(-482.433 -14255.741)" fill="#fff" fill-rule="evenodd"/>
    <path id="Caminho_648" data-name="Caminho 648" d="M463.224,199.843m0,0h-2.27v-2.767h2.27Zm2.554-5.2H458.4v7.946h7.378Z" transform="translate(-476.536 -14255.741)" fill="#fff" fill-rule="evenodd"/>
    <path id="Caminho_649" data-name="Caminho 649" d="M463.224,199.843m0,0h-2.27v-2.767h2.27Zm2.554-5.2H458.4v7.946h7.378Z" transform="translate(-476.536 -14255.741)" fill="#fff" fill-rule="evenodd"/>
    <path id="Caminho_650" data-name="Caminho 650" d="M467.923,199.843m0,0h-2.459v-2.767h2.459Zm2.743-5.2H462.72v7.946h7.946Z" transform="translate(-470.64 -14255.741)" fill="#fff" fill-rule="evenodd"/>
    <path id="Caminho_651" data-name="Caminho 651" d="M467.923,199.843m0,0h-2.459v-2.767h2.459Zm2.743-5.2H462.72v7.946h7.946Z" transform="translate(-470.64 -14255.741)" fill="#fff" fill-rule="evenodd"/>
    <rect id="Retângulo_543" data-name="Retângulo 543" width="2.838" height="2.27" transform="translate(10.242 -14019.668)" fill="#fff"/>
    <rect id="Retângulo_544" data-name="Retângulo 544" width="2.838" height="2.838" transform="translate(10.242 -14030.453)" fill="#fff"/>
    <rect id="Retângulo_545" data-name="Retângulo 545" width="2.838" height="2.838" transform="translate(10.242 -14024.776)" fill="#fff"/>
  </g>
</svg>
