<svg xmlns="http://www.w3.org/2000/svg" xmlns:xlink="http://www.w3.org/1999/xlink" width="200" height="200" viewBox="0 0 200 200">
  <defs>
    <clipPath id="clip-path">
      <rect id="Retângulo_671" data-name="Retângulo 671" width="130.279" height="130" fill="#fff"/>
    </clipPath>
  </defs>
  <g id="Grupo_1979" data-name="Grupo 1979" transform="translate(15561 15913)">
    <g id="Grupo_1932" data-name="Grupo 1932" transform="translate(-1460 -407)">
      <g id="Grupo_1908" data-name="Grupo 1908" transform="translate(-14062 -15471)">
        <g id="Grupo_1907" data-name="Grupo 1907" clip-path="url(#clip-path)">
          <path id="Caminho_754" data-name="Caminho 754" d="M74.852,40.211a34.2,34.2,0,0,1,17.133,4.557V.577A.577.577,0,0,0,91.408,0H61.675A.577.577,0,0,0,61.1.577V43.066a34.339,34.339,0,0,1,13.753-2.855M50.545,98.879a34.41,34.41,0,0,1,5.226-52.91V25.324a.577.577,0,0,0-.577-.577H31.126a.577.577,0,0,0-.577.577v98.32a.577.577,0,0,0,.577.577H55.194a.577.577,0,0,0,.577-.577v-20.47a34.514,34.514,0,0,1-5.226-4.294M24.645,49.13H.577A.577.577,0,0,0,0,49.707v73.937a.576.576,0,0,0,.577.577H24.645a.576.576,0,0,0,.577-.577V49.707a.577.577,0,0,0-.577-.577m66.231,55.814A34.532,34.532,0,0,1,61.1,106.072v17.572a.576.576,0,0,0,.577.577H91.408a.577.577,0,0,0,.577-.577V106.052l-1.109-1.109M97.7,51.729a32.305,32.305,0,1,0-6.3,50.549A8.14,8.14,0,0,0,92.46,103.6l24.032,24.033a8.077,8.077,0,1,0,11.422-11.422L103.883,92.18a8.1,8.1,0,0,0-1.325-1.064A32.332,32.332,0,0,0,97.7,51.729M91.985,91.7a24.229,24.229,0,1,1,0-34.264,24.255,24.255,0,0,1,0,34.264" fill="#fff"/>
        </g>
      </g>
    </g>
    <g id="Elipse_185" data-name="Elipse 185" transform="translate(-15561 -15913)" fill="none" stroke="#fff" stroke-width="2">
      <circle cx="100" cy="100" r="100" stroke="none"/>
      <circle cx="100" cy="100" r="99" fill="none"/>
    </g>
  </g>
</svg>
