<svg xmlns="http://www.w3.org/2000/svg" width="84" height="84" viewBox="0 0 84 84">
  <g id="Grupo_1717" data-name="Grupo 1717" transform="translate(69.48 14260)">
    <path id="Caminho_641" data-name="Caminho 641" d="M516.27,81.535m0,0a2.8,2.8,0,1,1,2.785-2.785,2.811,2.811,0,0,1-2.785,2.785M483.942,44.954a8.007,8.007,0,1,0-9.089,0,11.1,11.1,0,0,0-6,7.715,15.131,15.131,0,0,1-3.726-15.43,15,15,0,0,1,18.911-9.522A15.029,15.029,0,0,1,493.6,46.667a15.556,15.556,0,0,1-3.651,5.909,11.118,11.118,0,0,0-6-7.621m-1.43-8.976c-.772-.546-1.919.113-2.672.358-1.6.489-5.57,1.806-5.946,1.938a5.5,5.5,0,0,1,10.952-.659Zm-8.11,4.7,7.207-2.333,2.917,2.051a5.542,5.542,0,0,1-10.124.282m38.18-4.215a2.8,2.8,0,1,1,0,5.608,2.8,2.8,0,0,1,0-5.608M470.412,73.255A2.794,2.794,0,1,1,473.2,70.47a2.755,2.755,0,0,1-2.785,2.785M442.77,62.172a2.8,2.8,0,1,1,2.823-2.823,2.811,2.811,0,0,1-2.823,2.823m6.812-33.833a2.8,2.8,0,0,1,.075-5.608,2.836,2.836,0,0,1,2.747,2.86,2.766,2.766,0,0,1-2.823,2.747M470.375,5.25A2.813,2.813,0,1,1,473.2,8.073a2.811,2.811,0,0,1-2.823-2.823m34.981,3.933a2.813,2.813,0,1,1-2.785,2.841,2.8,2.8,0,0,1,2.785-2.841m10.914,64.28a5.5,5.5,0,0,0-2.71.734L492.937,52.914a17.506,17.506,0,0,0,3.857-10.952l10.82-.978a5.245,5.245,0,1,0-.245-2.465l-10.745.978a17.669,17.669,0,0,0-5.288-10.218l11.516-12.626a5.532,5.532,0,0,0,2.5.621,5.278,5.278,0,1,0-5.25-5.25,5.441,5.441,0,0,0,.9,2.992l-11.573,12.7a17.566,17.566,0,0,0-11.648-3.142l-2.5-14.489A5.262,5.262,0,0,0,473.2,0a5.3,5.3,0,0,0-5.288,5.25,5.337,5.337,0,0,0,4.968,5.288l2.5,14.433a17.461,17.461,0,0,0-10.331,7.019l-10.312-5.25a4.179,4.179,0,0,0,.132-1.11,5.192,5.192,0,1,0-1.223,3.331l10.124,5.118a17.5,17.5,0,0,0-.9,13.624L446.8,55.944a5.272,5.272,0,1,0,1.261,3.406,3.845,3.845,0,0,0-.169-1.223l15.957-8.167a17.183,17.183,0,0,0,8.995,8.167l-2.145,7.094h-.282a5.25,5.25,0,1,0,5.25,5.25,5.188,5.188,0,0,0-2.616-4.554l2.126-7.019a18.486,18.486,0,0,0,5.288.489,1.236,1.236,0,0,0-.169-2.465,15.347,15.347,0,0,1-9.22-2.446,8.351,8.351,0,0,1,16.691-.094c-.621.376-1.223.734-1.844,1.073a1.208,1.208,0,0,0,1.073,2.164,16.036,16.036,0,0,0,4.253-2.9l20.548,21.207a5.068,5.068,0,0,0-.809,2.823,5.269,5.269,0,1,0,5.288-5.288" transform="translate(-507 -14260)" fill="#fff" fill-rule="evenodd"/>
  </g>
</svg>
