<?xml version="1.0" encoding="utf-8"?>
<!-- Generator: Adobe Illustrator 26.0.2, SVG Export Plug-In . SVG Version: 6.00 Build 0)  -->
<svg version="1.1" id="Camada_1" xmlns="http://www.w3.org/2000/svg" xmlns:xlink="http://www.w3.org/1999/xlink" x="0px" y="0px"
	 viewBox="0 0 200 200" style="enable-background:new 0 0 200 200;" xml:space="preserve">
<style type="text/css">
	.st0{enable-background:new    ;}
	.st1{fill:#115585;}
	.st2{fill:none;}
</style>
<g id="Grupo_1978" transform="translate(-377 -1443)">
	<g class="st0">
		<g>
			<path class="st1" d="M433.7,1554.1c0,3.9-1.4,6.9-4.2,9.1s-6.7,3.3-11.6,3.3c-4.6,0-8.6-0.9-12.1-2.6v-8.4
				c2.9,1.3,5.3,2.2,7.3,2.7c2,0.5,3.8,0.8,5.5,0.8c2,0,3.5-0.4,4.6-1.1c1.1-0.8,1.6-1.9,1.6-3.4c0-0.8-0.2-1.6-0.7-2.2
				s-1.2-1.3-2.1-1.9s-2.8-1.6-5.6-2.9c-2.6-1.2-4.6-2.4-5.9-3.5c-1.3-1.1-2.4-2.5-3.1-4c-0.8-1.5-1.2-3.3-1.2-5.3
				c0-3.8,1.3-6.8,3.9-8.9c2.6-2.2,6.1-3.3,10.6-3.3c2.2,0,4.4,0.3,6.4,0.8s4.1,1.3,6.3,2.2l-2.9,7.1c-2.3-0.9-4.2-1.6-5.7-2
				s-3-0.6-4.4-0.6c-1.7,0-3,0.4-4,1.2c-0.9,0.8-1.4,1.8-1.4,3.1c0,0.8,0.2,1.5,0.6,2.1c0.4,0.6,1,1.2,1.8,1.7
				c0.8,0.6,2.7,1.6,5.8,3c4,1.9,6.7,3.8,8.2,5.8C432.9,1549,433.7,1551.3,433.7,1554.1z"/>
		</g>
		<g>
			<path class="st1" d="M461.5,1566l-1.7-4.5h-0.2c-1.5,1.9-3.1,3.2-4.6,3.9c-1.6,0.7-3.7,1.1-6.2,1.1c-3.1,0-5.6-0.9-7.4-2.7
				c-1.8-1.8-2.7-4.4-2.7-7.7c0-3.5,1.2-6,3.6-7.7s6.1-2.6,11-2.7l5.7-0.2v-1.4c0-3.3-1.7-5-5.1-5c-2.6,0-5.7,0.8-9.2,2.4l-3-6
				c3.8-2,7.9-3,12.5-3c4.4,0,7.8,1,10.1,2.9s3.5,4.8,3.5,8.7v21.8H461.5z M458.9,1550.8l-3.5,0.1c-2.6,0.1-4.5,0.5-5.8,1.4
				c-1.3,0.9-1.9,2.2-1.9,3.9c0,2.5,1.4,3.8,4.3,3.8c2.1,0,3.7-0.6,5-1.8c1.2-1.2,1.9-2.8,1.9-4.7V1550.8z"/>
		</g>
		<g>
			<path class="st1" d="M497.8,1566l-1.7-4.5h-0.2c-1.5,1.9-3.1,3.2-4.6,3.9c-1.6,0.7-3.7,1.1-6.2,1.1c-3.1,0-5.6-0.9-7.4-2.7
				c-1.8-1.8-2.7-4.4-2.7-7.7c0-3.5,1.2-6,3.6-7.7s6.1-2.6,11-2.7l5.7-0.2v-1.4c0-3.3-1.7-5-5.1-5c-2.6,0-5.7,0.8-9.2,2.4l-3-6
				c3.8-2,7.9-3,12.5-3c4.4,0,7.8,1,10.1,2.9s3.5,4.8,3.5,8.7v21.8H497.8z M495.1,1550.8l-3.5,0.1c-2.6,0.1-4.5,0.5-5.8,1.4
				s-1.9,2.2-1.9,3.9c0,2.5,1.4,3.8,4.3,3.8c2.1,0,3.7-0.6,5-1.8c1.2-1.2,1.9-2.8,1.9-4.7V1550.8z"/>
		</g>
		<g>
			<path class="st1" d="M539.2,1554.1c0,3.9-1.4,6.9-4.2,9.1s-6.7,3.3-11.6,3.3c-4.6,0-8.6-0.9-12.1-2.6v-8.4
				c2.9,1.3,5.3,2.2,7.3,2.7c2,0.5,3.8,0.8,5.5,0.8c2,0,3.5-0.4,4.6-1.1c1.1-0.8,1.6-1.9,1.6-3.4c0-0.8-0.2-1.6-0.7-2.2
				s-1.2-1.3-2.1-1.9s-2.8-1.6-5.6-2.9c-2.6-1.2-4.6-2.4-5.9-3.5s-2.4-2.5-3.1-4s-1.2-3.3-1.2-5.3c0-3.8,1.3-6.8,3.9-8.9
				c2.6-2.2,6.1-3.3,10.6-3.3c2.2,0,4.4,0.3,6.4,0.8s4.1,1.3,6.3,2.2l-2.9,7.1c-2.3-0.9-4.2-1.6-5.7-2s-3-0.6-4.4-0.6
				c-1.7,0-3,0.4-4,1.2s-1.4,1.8-1.4,3.1c0,0.8,0.2,1.5,0.6,2.1s1,1.2,1.8,1.7c0.8,0.6,2.7,1.6,5.8,3c4,1.9,6.7,3.8,8.2,5.8
				S539.2,1551.3,539.2,1554.1z"/>
		</g>
	</g>
	<g id="Elipse_176" transform="translate(377 1443)">
		<g>
			<circle class="st2" cx="100" cy="100" r="100"/>
		</g>
		<g>
			<path class="st1" d="M100,200C44.9,200,0,155.1,0,100C0,44.9,44.9,0,100,0c55.1,0,100,44.9,100,100C200,155.1,155.1,200,100,200z
				 M100,4C47.1,4,4,47.1,4,100s43.1,96,96,96s96-43.1,96-96S152.9,4,100,4z"/>
		</g>
	</g>
</g>
</svg>
