<svg xmlns="http://www.w3.org/2000/svg" width="70.825" height="69.999" viewBox="0 0 70.825 69.999">
  <g id="Grupo_1789" data-name="Grupo 1789" transform="translate(5481.176 16867.373)">
    <path id="Caminho_627" data-name="Caminho 627" d="M147.16,44.485c0,.411.411.822.857,1.268h56.139a1.933,1.933,0,0,0,1.3-1.268V2.242h-58.3Zm.857,3.4a3.72,3.72,0,0,1-3.467-3.4V2.242h-3.017a.922.922,0,0,1-.861-.857c0-.857.446-1.268.861-1.268h68.661a1.136,1.136,0,0,1,1.3,1.268c0,.446-.446.857-1.3.857h-2.575V44.485a3.716,3.716,0,0,1-3.463,3.4Z" transform="translate(-5621.848 -16867.49)" fill="#047aa1" fill-rule="evenodd"/>
    <path id="Caminho_628" data-name="Caminho 628" d="M159.311,36.433c-.825,0-1.271-.446-1.271-.857V27.3l-8.372,8.683c-.411.446-.411.446-.822.446-.446,0-.446,0-.861-.446a.843.843,0,0,1,0-1.3L158.04,24.251V13.372h2.128V24.251l10.054,10.433a.838.838,0,0,1,0,1.3c0,.446-.411.446-.857.446a1.227,1.227,0,0,1-.822-.446L160.168,27.3v8.272a.952.952,0,0,1-.857.857" transform="translate(-5604.044 -16833.807)" fill="#047aa1" fill-rule="evenodd"/>
    <path id="Caminho_629" data-name="Caminho 629" d="M159.806,5.481c-6.346.446-11.424,6.006-11.424,12.869a13.114,13.114,0,0,0,12.7,12.869c6.76,0,11.874-5.149,12.7-12.012h-12.7c-.411,0-1.271-.411-1.271-.857Zm1.271,27.9A15.1,15.1,0,0,1,146.254,18.35c0-8.58,6.76-15.443,14.824-15.443a1.943,1.943,0,0,1,1.271,1.307V17.079h12.7c.446,0,.857.414.857,1.271a15.1,15.1,0,0,1-14.824,15.029" transform="translate(-5607.663 -16860.4)" fill="#047aa1" fill-rule="evenodd"/>
  </g>
</svg>
