<svg xmlns="http://www.w3.org/2000/svg" xmlns:xlink="http://www.w3.org/1999/xlink" width="200" height="200" viewBox="0 0 200 200">
  <defs>
    <clipPath id="clip-path">
      <rect id="Retângulo_672" data-name="Retângulo 672" width="142.305" height="130" fill="#fff"/>
    </clipPath>
  </defs>
  <g id="Grupo_1980" data-name="Grupo 1980" transform="translate(15561 15533)">
    <g id="Grupo_1931" data-name="Grupo 1931" transform="translate(-15534 -15498)">
      <g id="Grupo_1910" data-name="Grupo 1910" clip-path="url(#clip-path)">
        <path id="Caminho_755" data-name="Caminho 755" d="M147.778,51.7a1.871,1.871,0,0,1-2.636,2.625,5.762,5.762,0,0,1-7.7-7.718l-9.508-9.548a1.871,1.871,0,1,1,2.653-2.639l9.506,9.547a5.763,5.763,0,0,1,7.685,7.733M160.3,31.46a25.015,25.015,0,1,0,7.327,17.689A24.935,24.935,0,0,0,160.3,31.46M150.118,10.006a1.881,1.881,0,0,0,1.876-1.876V1.876A1.882,1.882,0,0,0,150.118,0H135.109a1.88,1.88,0,0,0-1.876,1.876V8.13a1.88,1.88,0,0,0,1.876,1.876h4.378v3a36.052,36.052,0,0,0-16.326,5.519l-4.3-4.886a1.881,1.881,0,0,0-2.648-.168l-5.633,4.959a1.881,1.881,0,0,0-.169,2.647l4.3,4.888a36.271,36.271,0,1,0,55.8,0l4.3-4.886a1.883,1.883,0,0,0-.169-2.648l-5.633-4.958a1.881,1.881,0,0,0-2.648.168l-4.3,4.884a36.053,36.053,0,0,0-16.325-5.519V10.006Z" transform="translate(-39.839)" fill="#fff" fill-rule="evenodd"/>
        <path id="Caminho_756" data-name="Caminho 756" d="M197.877,168.255l-4.954,2.86-2.366-3.151a14.97,14.97,0,0,1-5.052.667l-1.572,3.907-5.526-1.481.656-4.151a15,15,0,0,1-4.042-3.1l-3.625,1.546-2.86-4.954,3.151-2.367a15.012,15.012,0,0,1-.666-5.052l-3.78-1.52,1.48-5.526,4.025.6a15,15,0,0,1,3.1-4.041l-1.546-3.625,4.954-2.861,2.366,3.152a14.988,14.988,0,0,1,5.053-.667l1.47-3.655,5.526,1.481-.555,3.9a14.977,14.977,0,0,1,4.042,3.1l3.625-1.546,2.86,4.955-3.151,2.366a15.016,15.016,0,0,1,.667,5.052l3.8,1.508-1.48,5.526-4.044-.593a15,15,0,0,1-3.1,4.042Zm-6.913-17.514a5.628,5.628,0,1,0,.562,4.269,5.6,5.6,0,0,0-.562-4.269" transform="translate(-62.654 -50.514)" fill="#fff" fill-rule="evenodd"/>
        <path id="Caminho_757" data-name="Caminho 757" d="M52.062,138.735a46.563,46.563,0,0,0,14.777-2.107L69.89,141.7l7.451-3.163L75.8,132.769a47.271,47.271,0,0,0,11.649-9.195l5.3,2.934,4.872-6.465L93.3,115.724a46.535,46.535,0,0,0,4.782-11.143,41.162,41.162,0,0,1-11.45-3.014c-4.613,15.343-19.465,27.375-38,25.1A35.114,35.114,0,1,1,61.891,57.874a41.092,41.092,0,0,1,3.291-11.365q-.815-.22-1.645-.412l-.118-6.609L55.386,38.5l-1.712,6.382a46.541,46.541,0,0,0-14.25,1.978l-3.392-5.641-7.451,3.162,1.7,6.337a47.264,47.264,0,0,0-11.427,8.836l-5.67-3.141L8.308,62.881l4.525,4.527A46.533,46.533,0,0,0,7.274,80.891L.986,81,0,89.037l6,1.61a46.521,46.521,0,0,0,1.951,14.6L2.72,108.392l3.162,7.451,5.85-1.565a47.273,47.273,0,0,0,9.078,11.739l-2.895,5.227,6.464,4.871,4.19-4.187a46.572,46.572,0,0,0,13.827,5.62l.105,5.889,8.034.987Z" transform="translate(0 -14.424)" fill="#fff" fill-rule="evenodd"/>
      </g>
    </g>
    <g id="Elipse_186" data-name="Elipse 186" transform="translate(-15561 -15533)" fill="none" stroke="#fff" stroke-width="2">
      <circle cx="100" cy="100" r="100" stroke="none"/>
      <circle cx="100" cy="100" r="99" fill="none"/>
    </g>
  </g>
</svg>
