<svg xmlns="http://www.w3.org/2000/svg" width="69.283" height="70" viewBox="0 0 69.283 70">
  <g id="Grupo_1702" data-name="Grupo 1702" transform="translate(6038.06 16868)">
    <path id="Caminho_625" data-name="Caminho 625" d="M103.917,39.359c0,.364-.753.753-1.113.753H98.293l-.361,1.141a32.23,32.23,0,0,1-3.367,8.3l-.753.781,3.367,3.4a.7.7,0,0,1,0,1.141l-5.621,6.045a1.11,1.11,0,0,1-1.505,0l-3.367-3.4-.753.753a31.439,31.439,0,0,1-8.239,3.4h-1.11v4.935a.808.808,0,0,1-.753.746H67.593c-.753,0-1.113-.389-1.113-.746V61.673H65.366a29.206,29.206,0,0,1-7.879-3.4l-1.113-.753-3.367,3.4a.7.7,0,0,1-1.141,0l-5.985-6.045a.7.7,0,0,1,0-1.141l3.367-3.4-.749-.781a32.239,32.239,0,0,1-3.371-8.3V40.112H40.26a.83.83,0,0,1-.753-.753V30.644a.83.83,0,0,1,.753-.753h4.869V28.75a32.189,32.189,0,0,1,3.371-8.3l.749-.784-3.367-3.4a.7.7,0,0,1,0-1.145l5.985-6.045a.7.7,0,0,1,1.141,0l3.367,3.4,1.113-.753a28.988,28.988,0,0,1,7.879-3.4h1.113V3.4c0-.361.361-.749,1.113-.749h8.239a.809.809,0,0,1,.753.749V8.33h1.11a31.2,31.2,0,0,1,8.239,3.4l.753.753,3.367-3.4a1.117,1.117,0,0,1,1.505,0l5.621,6.045a.7.7,0,0,1,0,1.145l-3.367,3.4.753.784a32.18,32.18,0,0,1,3.367,8.3l.361,1.141H102.8c.361,0,1.113.389,1.113.753ZM102.8,27.242H100.19a24.1,24.1,0,0,0-3.01-7.182l1.866-1.9a3.434,3.434,0,0,0,1.145-2.65,3.38,3.38,0,0,0-1.145-2.279L93.06,7.189a3.183,3.183,0,0,0-4.869,0l-1.866,1.89A43.246,43.246,0,0,0,79.2,6.041V3.4A3.371,3.371,0,0,0,75.832,0H67.593a3.463,3.463,0,0,0-3.728,3.4V6.041a43.285,43.285,0,0,0-7.13,3.038l-1.862-1.89a3.193,3.193,0,0,0-4.872,0l-5.985,6.045a3.389,3.389,0,0,0-1.141,2.279,3.443,3.443,0,0,0,1.141,2.65l1.866,1.9a41.948,41.948,0,0,0-3.007,7.182H40.26a3.375,3.375,0,0,0-3.371,3.4v8.715a3.372,3.372,0,0,0,3.371,3.4h2.615a41.869,41.869,0,0,0,3.007,7.186l-1.866,1.894a3.446,3.446,0,0,0-1.141,2.646,3.39,3.39,0,0,0,1.141,2.286L50,62.814a3.188,3.188,0,0,0,4.872,0l1.862-1.894a42.7,42.7,0,0,0,7.13,3.038v2.65A3.46,3.46,0,0,0,67.593,70h8.239A3.367,3.367,0,0,0,79.2,66.608v-2.65a42.657,42.657,0,0,0,7.126-3.038l1.866,1.894c1.5,1.509,3.759,1.509,4.869,0l5.985-6.045a3.381,3.381,0,0,0,1.145-2.286,3.437,3.437,0,0,0-1.145-2.646L97.18,49.944a24.086,24.086,0,0,0,3.01-7.186H102.8a3.369,3.369,0,0,0,3.367-3.4V30.644a3.372,3.372,0,0,0-3.367-3.4" transform="translate(-6074.949 -16868)" fill="#e85900" fill-rule="evenodd"/>
    <path id="Caminho_626" data-name="Caminho 626" d="M56.246,29.518A10.276,10.276,0,0,1,45.721,19a10.346,10.346,0,0,1,20.69,0A10.2,10.2,0,0,1,56.246,29.518m0-23.332C49.088,6.186,43.075,12.2,43.075,19A13.325,13.325,0,0,0,56.246,32.168a12.992,12.992,0,0,0,0-25.982" transform="translate(-6059.482 -16852.533)" fill="#e85900" fill-rule="evenodd"/>
  </g>
</svg>
