<svg id="Grupo_1725" data-name="Grupo 1725" xmlns="http://www.w3.org/2000/svg" xmlns:xlink="http://www.w3.org/1999/xlink" width="84" height="84" viewBox="0 0 84 84">
  <defs>
    <clipPath id="clip-path">
      <rect id="Retângulo_549" data-name="Retângulo 549" width="84" height="84" fill="none" stroke="#fff" stroke-width="1"/>
    </clipPath>
  </defs>
  <g id="Grupo_1720" data-name="Grupo 1720">
    <g id="Grupo_1719" data-name="Grupo 1719" clip-path="url(#clip-path)">
      <rect id="Retângulo_546" data-name="Retângulo 546" width="7" height="7" transform="translate(38.5 75.25)" fill="none" stroke="#fff" stroke-miterlimit="10" stroke-width="2"/>
      <rect id="Retângulo_547" data-name="Retângulo 547" width="7" height="7" transform="translate(57.75 75.25)" fill="none" stroke="#fff" stroke-miterlimit="10" stroke-width="2"/>
      <rect id="Retângulo_548" data-name="Retângulo 548" width="7" height="7" transform="translate(75.25 57.75)" fill="none" stroke="#fff" stroke-miterlimit="10" stroke-width="2"/>
    </g>
  </g>
  <line id="Linha_1" data-name="Linha 1" y2="31.5" transform="translate(42 43.75)" fill="none" stroke="#fff" stroke-miterlimit="10" stroke-width="2"/>
  <path id="Caminho_652" data-name="Caminho 652" d="M11,20v8.75H56.5V20" transform="translate(8.25 15)" fill="none" stroke="#fff" stroke-miterlimit="10" stroke-width="2"/>
  <line id="Linha_2" data-name="Linha 2" x2="21" transform="translate(31.5 36.75)" fill="none" stroke="#fff" stroke-miterlimit="10" stroke-width="2"/>
  <path id="Caminho_653" data-name="Caminho 653" d="M40.25,56.5v-7H28V25" transform="translate(21 18.75)" fill="none" stroke="#fff" stroke-miterlimit="10" stroke-width="2"/>
  <path id="Caminho_654" data-name="Caminho 654" d="M32,25V42.5H51.25" transform="translate(24 18.75)" fill="none" stroke="#fff" stroke-miterlimit="10" stroke-width="2"/>
  <g id="Grupo_1722" data-name="Grupo 1722">
    <g id="Grupo_1721" data-name="Grupo 1721" clip-path="url(#clip-path)">
      <rect id="Retângulo_550" data-name="Retângulo 550" width="7" height="7" transform="translate(19.25 75.25)" fill="none" stroke="#fff" stroke-miterlimit="10" stroke-width="2"/>
      <rect id="Retângulo_551" data-name="Retângulo 551" width="7" height="7" transform="translate(1.75 57.75)" fill="none" stroke="#fff" stroke-miterlimit="10" stroke-width="2"/>
    </g>
  </g>
  <path id="Caminho_655" data-name="Caminho 655" d="M13,56.5v-7H25.25V25" transform="translate(9.75 18.75)" fill="none" stroke="#fff" stroke-miterlimit="10" stroke-width="2"/>
  <path id="Caminho_656" data-name="Caminho 656" d="M24.25,25V42.5H5" transform="translate(3.75 18.75)" fill="none" stroke="#fff" stroke-miterlimit="10" stroke-width="2"/>
  <g id="Grupo_1724" data-name="Grupo 1724">
    <g id="Grupo_1723" data-name="Grupo 1723" clip-path="url(#clip-path)">
      <path id="Caminho_657" data-name="Caminho 657" d="M60.5,50h5.25a15.75,15.75,0,1,0-5.533-30.482,21.848,21.848,0,0,0-43.428,2.608A13.995,13.995,0,1,0,15,50h7" transform="translate(0.75 0.75)" fill="none" stroke="#fff" stroke-miterlimit="10" stroke-width="2"/>
      <path id="Caminho_658" data-name="Caminho 658" d="M14,19.875A14.876,14.876,0,0,1,28.875,5" transform="translate(10.5 3.75)" fill="none" stroke="#fff" stroke-miterlimit="10" stroke-width="2"/>
    </g>
  </g>
</svg>
