<svg id="Grupo_1696" data-name="Grupo 1696" xmlns="http://www.w3.org/2000/svg" width="70.753" height="70" viewBox="0 0 70.753 70">
  <path id="Caminho_624" data-name="Caminho 624" d="M39.526,67.648A49.884,49.884,0,0,0,49.8,53.473a39.884,39.884,0,0,1,9.093,4.33,35.288,35.288,0,0,1-19.369,9.845M11.858,57.8a49.6,49.6,0,0,1,9.09-4.33A49.9,49.9,0,0,0,31.227,67.648,35.277,35.277,0,0,1,11.858,57.8m41.9-21.609H68.38a33.309,33.309,0,0,1-7.907,20.038,34.158,34.158,0,0,0-9.88-5.11,47.968,47.968,0,0,0,3.164-14.928m-17,12.166V36.193H51.383a41.147,41.147,0,0,1-3.164,14.144A36.5,36.5,0,0,0,36.757,48.36m0,18.5V50.743a51.068,51.068,0,0,1,10.675,1.946A37.5,37.5,0,0,1,36.757,66.864M34.388,50.743V66.864A43.19,43.19,0,0,1,23.321,52.689a50.211,50.211,0,0,1,11.067-1.946M19.764,36.193H34.388V48.36a37.045,37.045,0,0,0-11.858,1.977,40.962,40.962,0,0,1-2.765-14.144m1.974-20.45a28.716,28.716,0,0,1-9.093-4.326A32.548,32.548,0,0,1,31.227,2.761c-3.955,3.92-7.511,8.246-9.489,12.982m27.668,0a43.271,43.271,0,0,0-9.88-12.982A30.336,30.336,0,0,1,58.1,11.417a26.757,26.757,0,0,1-8.7,4.326M36.757,18.1V3.136a42.244,42.244,0,0,1,10.28,13.391A46.646,46.646,0,0,1,36.757,18.1m0,2.352a50.272,50.272,0,0,0,11.07-1.568A48.492,48.492,0,0,1,51.383,33.81H36.757Zm-2.369,0V33.81H19.764a38.839,38.839,0,0,1,3.161-14.931,53.868,53.868,0,0,0,11.463,1.568m0-2.352a43.292,43.292,0,0,1-10.276-1.568A42.182,42.182,0,0,1,34.388,3.136ZM68.38,33.81H53.757A53.653,53.653,0,0,0,50.2,18.1a45.505,45.505,0,0,0,9.881-4.736,34.044,34.044,0,0,1,8.3,20.45M11.067,13.36A42.6,42.6,0,0,0,20.552,18.1,43.012,43.012,0,0,0,17.388,33.81H2.765a29.863,29.863,0,0,1,8.3-20.45m-8.3,22.834H17.388a38.509,38.509,0,0,0,2.768,14.928,34.158,34.158,0,0,0-9.88,5.11C5.925,50.743,2.765,43.655,2.765,36.193M61.659,58.208A34.036,34.036,0,0,0,70.753,35a35.254,35.254,0,0,0-9.489-23.992A37.292,37.292,0,0,0,36.757,0H34.388A35.686,35.686,0,0,0,0,35,34.049,34.049,0,0,0,9.089,58.208v.378C15.414,65.3,24.111,70,34.388,70h2.369c9.884,0,18.581-4.7,24.9-11.414Z" transform="translate(0)" fill="#f6880b" fill-rule="evenodd"/>
</svg>
