<svg xmlns="http://www.w3.org/2000/svg" width="200" height="200" viewBox="0 0 200 200">
  <g id="Grupo_1981" data-name="Grupo 1981" transform="translate(-1343 -1455)">
    <g id="Grupo_1763" data-name="Grupo 1763" transform="translate(6887.926 19070)">
      <path id="Caminho_659" data-name="Caminho 659" d="M19.764,75.339m0,0a3.511,3.511,0,0,1-2.551,1.068,3.651,3.651,0,0,1-3.622-3.648,3.469,3.469,0,0,1,1.071-2.58,3.531,3.531,0,0,1,2.551-1.068,3.4,3.4,0,0,1,2.551,1.068,3.469,3.469,0,0,1,1.071,2.58,3.666,3.666,0,0,1-1.071,2.581m-2.551-9.551a6.656,6.656,0,0,0-3.292.831A39.438,39.438,0,0,1,5.692,42.534,39.038,39.038,0,0,1,44.533,3.322a35.549,35.549,0,0,1,7.736.8A1.661,1.661,0,0,0,54.2,2.788,1.673,1.673,0,0,0,52.925.831,44.032,44.032,0,0,0,44.533,0,41.687,41.687,0,0,0,14.745,12.458,42.433,42.433,0,0,0,2.4,42.534,42.945,42.945,0,0,0,11.453,68.9,6.865,6.865,0,0,0,10.3,72.758a7.032,7.032,0,0,0,2.017,4.924,6.955,6.955,0,0,0,9.794-9.877,6.774,6.774,0,0,0-4.9-2.017" transform="translate(-5489.326 -17557)" fill="#115585" fill-rule="evenodd"/>
      <path id="Caminho_660" data-name="Caminho 660" d="M47.679,11.231m0,0A3.467,3.467,0,0,1,46.612,8.65,3.663,3.663,0,0,1,47.679,6.07,3.523,3.523,0,0,1,50.233,5,3.656,3.656,0,0,1,52.787,6.07a3.7,3.7,0,0,1,0,5.161A3.533,3.533,0,0,1,50.233,12.3a3.41,3.41,0,0,1-2.554-1.068M56,12.506a7.057,7.057,0,0,0-.866-8.78A6.917,6.917,0,0,0,43.316,8.65,6.976,6.976,0,0,0,45.333,13.6a6.776,6.776,0,0,0,4.9,2.017,6.667,6.667,0,0,0,3.3-.831,39.406,39.406,0,0,1,8.234,24.085,38.964,38.964,0,0,1-46.529,38.47A1.582,1.582,0,0,0,13.3,78.621a1.614,1.614,0,0,0,1.278,1.958,43.265,43.265,0,0,0,8.317.83A41.737,41.737,0,0,0,52.7,68.951,42.417,42.417,0,0,0,65.058,38.875,42.932,42.932,0,0,0,56,12.506" transform="translate(-5467.984 -17553.695)" fill="#115585" fill-rule="evenodd"/>
      <path id="Caminho_661" data-name="Caminho 661" d="M24.1,53.614m0,0a1.662,1.662,0,0,0-2.053.208l-2.014,2.047-4.927-4.983,1.969-2.047a1.651,1.651,0,0,0,.246-2.076,22.481,22.481,0,0,1-3.12-7.593,1.626,1.626,0,0,0-1.6-1.305H9.766V30.8H12.6a1.683,1.683,0,0,0,1.6-1.335,22.237,22.237,0,0,1,3.12-7.593,1.647,1.647,0,0,0-.246-2.076l-1.969-2.017L20.032,12.8l2.014,1.987A1.623,1.623,0,0,0,24.1,15a22.918,22.918,0,0,1,7.475-3.144,1.652,1.652,0,0,0,1.314-1.631V7.4h6.982V10.22a1.652,1.652,0,0,0,1.314,1.631A22.918,22.918,0,0,1,48.658,15a1.623,1.623,0,0,0,2.053-.208L52.724,12.8l4.927,4.983L55.682,19.8a1.647,1.647,0,0,0-.246,2.076,22.237,22.237,0,0,1,3.12,7.593,1.683,1.683,0,0,0,1.6,1.335H62.99v7.059H60.158a1.626,1.626,0,0,0-1.6,1.305,22.481,22.481,0,0,1-3.12,7.593,1.651,1.651,0,0,0,.246,2.076l1.969,2.047-4.927,4.983L50.71,53.822a1.662,1.662,0,0,0-2.053-.208,22.36,22.36,0,0,1-7.475,3.174,1.62,1.62,0,0,0-1.314,1.6v2.877H32.887V58.389a1.62,1.62,0,0,0-1.314-1.6A22.36,22.36,0,0,1,24.1,53.614m5.5,9.314a1.655,1.655,0,0,0,1.643,1.661H41.513a1.655,1.655,0,0,0,1.643-1.661V59.694a25.468,25.468,0,0,0,6.161-2.581L51.574,59.4a1.7,1.7,0,0,0,1.151.5,1.79,1.79,0,0,0,1.189-.5l7.228-7.356a1.672,1.672,0,0,0,0-2.373l-2.216-2.254a26.582,26.582,0,0,0,2.545-6.229h3.162a1.653,1.653,0,0,0,1.643-1.661V29.144a1.634,1.634,0,0,0-1.643-1.661H61.472a27.549,27.549,0,0,0-2.545-6.288l2.216-2.225a1.676,1.676,0,0,0,0-2.373l-7.27-7.326a1.644,1.644,0,0,0-2.34,0l-2.216,2.254a25.469,25.469,0,0,0-6.161-2.581v-3.2A1.655,1.655,0,0,0,41.513,4.08H31.244A1.655,1.655,0,0,0,29.6,5.741v3.2a25.469,25.469,0,0,0-6.161,2.581L21.224,9.271a1.644,1.644,0,0,0-2.34,0L11.614,16.6a1.676,1.676,0,0,0,0,2.373l2.216,2.225a27.548,27.548,0,0,0-2.545,6.288H8.123A1.634,1.634,0,0,0,6.48,29.144V39.525a1.7,1.7,0,0,0,1.643,1.661h3.162a26.582,26.582,0,0,0,2.545,6.229l-2.216,2.254a1.672,1.672,0,0,0,0,2.373l7.27,7.356a1.611,1.611,0,0,0,1.148.5,1.7,1.7,0,0,0,1.151-.5l2.257-2.284A25.468,25.468,0,0,0,29.6,59.694Z" transform="translate(-5481.304 -17548.979)" fill="#115585" fill-rule="evenodd"/>
      <path id="Caminho_662" data-name="Caminho 662" d="M15.269,23.481m0,0a10.433,10.433,0,0,1,10.257-10.53,10.533,10.533,0,0,1,0,21.059,10.433,10.433,0,0,1-10.257-10.53m23.782,0A13.757,13.757,0,0,0,25.525,9.6,13.757,13.757,0,0,0,12,23.481,13.757,13.757,0,0,0,25.525,37.363,13.757,13.757,0,0,0,39.051,23.481" transform="translate(-5470.452 -17538.125)" fill="#115585" fill-rule="evenodd"/>
      <path id="Caminho_663" data-name="Caminho 663" d="M22.9,4.519m0,0a1.881,1.881,0,0,0,1.29-.5,1.929,1.929,0,0,0,.489-1.275,1.8,1.8,0,0,0-.489-1.246A1.91,1.91,0,0,0,22.9.96a1.8,1.8,0,0,0-1.246.534A1.841,1.841,0,0,0,21.12,2.74a1.976,1.976,0,0,0,.534,1.275,1.774,1.774,0,0,0,1.246.5" transform="translate(-5452.521 -17555.113)" fill="#115585" fill-rule="evenodd"/>
      <path id="Caminho_664" data-name="Caminho 664" d="M12.464,26.4m0,0a1.382,1.382,0,0,0-1,.534,2.074,2.074,0,0,0,0,2.521,1.272,1.272,0,0,0,2.029,0,2.224,2.224,0,0,0,.392-1.275,2.2,2.2,0,0,0-.392-1.246,1.39,1.39,0,0,0-1.032-.534" transform="translate(-5472.339 -17505.096)" fill="#115585" fill-rule="evenodd"/>
    </g>
    <g id="Grupo_1767" data-name="Grupo 1767" transform="translate(966 12)">
      <g id="Elipse_176" data-name="Elipse 176" transform="translate(377 1443)" fill="none" stroke="#115585" stroke-width="4">
        <circle cx="100" cy="100" r="100" stroke="none"/>
        <circle cx="100" cy="100" r="98" fill="none"/>
      </g>
    </g>
  </g>
</svg>
