<svg xmlns="http://www.w3.org/2000/svg" width="84" height="84" viewBox="0 0 84 84">
  <g id="Grupo_1716" data-name="Grupo 1716" transform="translate(507 14067.76)">
    <path id="Caminho_642" data-name="Caminho 642" d="M10.262,197.4H45.473v11.728H10.262ZM7.68,211.885H48.289V194.64H7.68Z" transform="translate(-496.879 -14256.837)" fill="#fff" fill-rule="evenodd"/>
    <rect id="Retângulo_530" data-name="Retângulo 530" width="27.258" height="2.781" transform="translate(-482.523 -14026.038)" fill="#fff"/>
    <rect id="Retângulo_531" data-name="Retângulo 531" width="8.344" height="2.781" transform="translate(-479.742 -14036.608)" fill="#fff"/>
    <rect id="Retângulo_532" data-name="Retângulo 532" width="7.788" height="2.781" transform="translate(-465.834 -14036.608)" fill="#fff"/>
    <rect id="Retângulo_533" data-name="Retângulo 533" width="8.344" height="2.225" transform="translate(-479.742 -14031.045)" fill="#fff"/>
    <rect id="Retângulo_534" data-name="Retângulo 534" width="7.788" height="2.225" transform="translate(-465.834 -14031.045)" fill="#fff"/>
    <rect id="Retângulo_535" data-name="Retângulo 535" width="21.695" height="2.781" transform="translate(-470.285 -14014.912)" fill="#fff"/>
    <rect id="Retângulo_536" data-name="Retângulo 536" width="8.344" height="2.225" transform="translate(-456.934 -14009.349)" fill="#fff"/>
    <rect id="Retângulo_537" data-name="Retângulo 537" width="8.344" height="2.225" transform="translate(-470.285 -14009.349)" fill="#fff"/>
    <path id="Caminho_643" data-name="Caminho 643" d="M32.252,208.681a1.36,1.36,0,0,1,1.391,1.344h2.781a4.056,4.056,0,0,0-2.781-3.8V203.28H30.861v2.944a4.056,4.056,0,0,0-2.781,3.8,4.11,4.11,0,0,0,4.172,4.056,1.356,1.356,0,1,1-1.391,1.368H28.08a4,4,0,0,0,2.781,3.778v2.967h2.781v-2.967a4,4,0,0,0,2.781-3.778,4.11,4.11,0,0,0-4.172-4.056,1.356,1.356,0,1,1,0-2.712" transform="translate(-469.994 -14245.451)" fill="#fff" fill-rule="evenodd"/>
    <rect id="Retângulo_538" data-name="Retângulo 538" width="2.781" height="2.781" transform="translate(-431.344 -14033.827)" fill="#fff"/>
    <rect id="Retângulo_539" data-name="Retângulo 539" width="2.781" height="2.781" transform="translate(-447.477 -14033.827)" fill="#fff"/>
    <path id="Caminho_644" data-name="Caminho 644" d="M54.194,227.472a14.843,14.843,0,0,0,8.129,13.235v15.205H21.677v6.768a4.054,4.054,0,0,1-2.71,3.825V262.68h-2.71v-6.212l9.612-9.619a4.01,4.01,0,0,0,1.226-2.967,4.22,4.22,0,0,0-7.2-2.99L15.284,245.5l-1.312-2.6a3.9,3.9,0,0,1-.424-1.808v-7.834a4.011,4.011,0,0,1,.763-2.364l5.25-7.371a3.862,3.862,0,0,0,.763-2.364v-.487a4.072,4.072,0,0,0-4.066-4.056,3.779,3.779,0,0,0-2.71,1.136V199.008a6.767,6.767,0,0,0-1.4-4.056H58.258a4.057,4.057,0,0,1,4.066,4.056v15.205a14.879,14.879,0,0,0-8.129,13.258M73.162,262.68A4.077,4.077,0,0,1,69.1,266.76H23.033a6.814,6.814,0,0,0,1.354-4.079v-4.056H73.162Zm-56.9,10.848H2.71v-8.136H16.258Zm-10.8-20.142a2.2,2.2,0,0,1-.042-.51v-11.52a2.106,2.106,0,0,1,.042-.51l1.1-9.017a2.521,2.521,0,0,1,.593-1.437l8-10.2.127-.232a1.051,1.051,0,0,1,.974-.626,1.385,1.385,0,0,1,1.356,1.344v.487a1.288,1.288,0,0,1-.255.788l-5.25,7.371a6.533,6.533,0,0,0-1.27,3.94V241.1a6.906,6.906,0,0,0,.721,3.013l1.143,2.318h-.508v2.712h3.259l6.351-6.351a1.574,1.574,0,0,1,1.059-.417,1.51,1.51,0,0,1,1.523,1.507,1.679,1.679,0,0,1-.422,1.066L13.548,255.356v7.324H6.606Zm-2.751-44.9v-9.48a4.064,4.064,0,0,1,8.129,0v9.48Zm78.836,27.142A14.657,14.657,0,0,0,84,227.472a14.858,14.858,0,0,0-18.967-14.325V199.008a6.8,6.8,0,0,0-6.775-6.768H6.775A6.8,6.8,0,0,0,0,199.008V211.2H10.838v10.083l-5.5,7.07a5.081,5.081,0,0,0-1.442,3.129L2.751,240.5a5.9,5.9,0,0,0-.042.858v11.52a5.748,5.748,0,0,0,.042.834l1.143,8.97H0v13.56H18.967v-6.768H69.1a6.8,6.8,0,0,0,6.775-6.791v-6.768H65.033V241.773a14.066,14.066,0,0,0,4.063.6,14.92,14.92,0,0,0,10.544-4.358l-1.905-1.947a12.078,12.078,0,0,1-8.639,3.593,12.195,12.195,0,1,1,10.2-5.517Z" transform="translate(-507 -14260)" fill="#fff" fill-rule="evenodd"/>
  </g>
</svg>
