<svg xmlns="http://www.w3.org/2000/svg" xmlns:xlink="http://www.w3.org/1999/xlink" width="238.253" height="50" viewBox="0 0 238.253 50">
  <defs>
    <clipPath id="clip-path">
      <rect id="Retângulo_5" data-name="Retângulo 5" width="238.253" height="50" fill="rgba(0,0,0,0)"/>
    </clipPath>
  </defs>
  <g id="LOGO_SEIDOR_UP" data-name="LOGO SEIDOR UP" transform="translate(7704 19964)">
    <g id="Grupo_2" data-name="Grupo 2" transform="translate(-7704 -19964)">
      <g id="Grupo_1" data-name="Grupo 1" transform="translate(0 0)" clip-path="url(#clip-path)">
        <path id="Caminho_1" data-name="Caminho 1" d="M5.945,33.5A17.968,17.968,0,0,1,0,30.7l2.627-5.826a17.785,17.785,0,0,0,5.11,2.531,19.181,19.181,0,0,0,5.921.955,9.458,9.458,0,0,0,4.871-.979,2.955,2.955,0,0,0,1.576-2.6,2.489,2.489,0,0,0-.931-1.983,7.067,7.067,0,0,0-2.388-1.265q-1.458-.477-3.939-1.051A54.25,54.25,0,0,1,6.59,18.672a10.16,10.16,0,0,1-4.178-2.913A7.863,7.863,0,0,1,.669,10.41,9.3,9.3,0,0,1,2.244,5.134,10.6,10.6,0,0,1,7,1.385,19.4,19.4,0,0,1,14.757,0a25.7,25.7,0,0,1,6.255.764,18.5,18.5,0,0,1,5.348,2.2L23.972,8.834a18.653,18.653,0,0,0-9.264-2.627,8.681,8.681,0,0,0-4.8,1.051,3.2,3.2,0,0,0-1.552,2.77,2.707,2.707,0,0,0,1.791,2.554,28.091,28.091,0,0,0,5.468,1.647,54.67,54.67,0,0,1,6.255,1.815,10.354,10.354,0,0,1,4.178,2.865,7.679,7.679,0,0,1,1.744,5.3,9.13,9.13,0,0,1-1.6,5.229,10.76,10.76,0,0,1-4.8,3.749,19.577,19.577,0,0,1-7.785,1.385A27.324,27.324,0,0,1,5.945,33.5" transform="translate(0 0)" fill="#7c7c7c"/>
        <path id="Caminho_2" data-name="Caminho 2" d="M55.689,27.79V34H29.806V.572H55.068V6.78H37.5v7.258H53.014v6.017H37.5V27.79Z" transform="translate(0.086 0.001)" fill="#7c7c7c"/>
        <rect id="Retângulo_3" data-name="Retângulo 3" width="7.736" height="33.427" transform="translate(58.735 0.573)" fill="#7c7c7c"/>
        <path id="Caminho_3" data-name="Caminho 3" d="M70.992.571H86.178A21.323,21.323,0,0,1,95.8,2.649,15.551,15.551,0,0,1,102.294,8.5a16.451,16.451,0,0,1,2.317,8.787,16.446,16.446,0,0,1-2.317,8.785A15.556,15.556,0,0,1,95.8,31.921,21.349,21.349,0,0,1,86.178,34H70.992ZM85.8,27.647a11.232,11.232,0,0,0,8-2.794,9.868,9.868,0,0,0,2.984-7.568,9.874,9.874,0,0,0-2.984-7.57,11.241,11.241,0,0,0-8-2.793H78.728V27.647Z" transform="translate(0.206 0.001)" fill="#7c7c7c"/>
        <path id="Caminho_4" data-name="Caminho 4" d="M113.944,32.329a16.644,16.644,0,0,1-6.542-6.184,16.876,16.876,0,0,1-2.364-8.858A16.875,16.875,0,0,1,107.4,8.429a16.654,16.654,0,0,1,6.542-6.185,20.687,20.687,0,0,1,18.743,0,16.727,16.727,0,0,1,8.929,15.042,16.724,16.724,0,0,1-8.929,15.042,20.687,20.687,0,0,1-18.743,0m14.732-5.706a9.775,9.775,0,0,0,3.748-3.8,11.157,11.157,0,0,0,1.361-5.54,11.156,11.156,0,0,0-1.361-5.539,9.777,9.777,0,0,0-3.748-3.8,11.19,11.19,0,0,0-10.7,0,9.782,9.782,0,0,0-3.75,3.8,11.176,11.176,0,0,0-1.359,5.539,11.178,11.178,0,0,0,1.359,5.54,9.78,9.78,0,0,0,3.75,3.8,11.19,11.19,0,0,0,10.7,0" transform="translate(0.304 0)" fill="#7c7c7c"/>
        <path id="Caminho_5" data-name="Caminho 5" d="M165.428,34l-6.448-9.312h-7.115V34h-7.736V.572H158.6a18.569,18.569,0,0,1,7.711,1.48,11.475,11.475,0,0,1,5.04,4.2,11.579,11.579,0,0,1,1.766,6.447,11.339,11.339,0,0,1-1.791,6.422,11.351,11.351,0,0,1-5.086,4.131L173.736,34ZM163.47,8.379a8.13,8.13,0,0,0-5.3-1.5h-6.3V18.527h6.3A8.04,8.04,0,0,0,163.47,17a5.314,5.314,0,0,0,1.813-4.3,5.3,5.3,0,0,0-1.813-4.321" transform="translate(0.418 0.001)" fill="#7c7c7c"/>
        <path id="Caminho_6" data-name="Caminho 6" d="M179.637,30.608q-3.987-3.964-3.988-11.318V.572h7.736V19.005q0,8.978,7.45,8.977a6.984,6.984,0,0,0,5.54-2.172q1.911-2.172,1.91-6.8V.572h7.64V19.291q0,7.355-3.988,11.318t-11.149,3.963q-7.164,0-11.151-3.963" transform="translate(0.509 0.001)" fill="#068cb0"/>
        <path id="Caminho_7" data-name="Caminho 7" d="M235.884,6.254a11.477,11.477,0,0,0-5.04-4.2,18.588,18.588,0,0,0-7.713-1.48H208.663V34H216.4V15.019h-3.246l8.911-8.911,8.91,8.911h-3.446v9.339a15.973,15.973,0,0,0,3.317-1.032,11.268,11.268,0,0,0,5.04-4.2,11.607,11.607,0,0,0,1.764-6.423,11.577,11.577,0,0,0-1.764-6.446" transform="translate(0.605 0.001)" fill="#068cb0"/>
        <path id="Caminho_8" data-name="Caminho 8" d="M1.213,41.812H4.574a4.87,4.87,0,0,1,2.245.5A3.69,3.69,0,0,1,8.34,43.72a4.27,4.27,0,0,1,0,4.159,3.684,3.684,0,0,1-1.52,1.407,4.87,4.87,0,0,1-2.245.5H1.213ZM4.506,48.8a3.685,3.685,0,0,0,1.7-.376,2.727,2.727,0,0,0,1.134-1.054,3.275,3.275,0,0,0,0-3.134,2.727,2.727,0,0,0-1.134-1.054,3.685,3.685,0,0,0-1.7-.376H2.352V48.8Z" transform="translate(0.004 0.12)" fill="#068cb0"/>
        <path id="Caminho_9" data-name="Caminho 9" d="M16.714,48.8V49.8H10.926V41.818h5.628v.992h-4.49v2.45h4v.969h-4V48.8ZM14.8,41.169l-1.048-.878-1.049.878h-.991l1.516-1.481h1.048l1.514,1.481Z" transform="translate(0.032 0.114)" fill="#068cb0"/>
        <path id="Caminho_10" data-name="Caminho 10" d="M23.075,48.968a3.6,3.6,0,0,1-.889-2.62V41.812h1.139V46.3q0,2.563,2.244,2.563a2.16,2.16,0,0,0,1.675-.632,2.775,2.775,0,0,0,.582-1.932v-4.49h1.105v4.536a3.6,3.6,0,0,1-.889,2.626,3.323,3.323,0,0,1-2.484.906,3.309,3.309,0,0,1-2.484-.912" transform="translate(0.064 0.12)" fill="#068cb0"/>
        <path id="Caminho_11" data-name="Caminho 11" d="M38.965,49.788l-.012-5.811L36.071,48.82h-.524l-2.883-4.808v5.777H31.571V41.812h.935l3.327,5.606,3.28-5.606h.935l.012,7.976Z" transform="translate(0.092 0.12)" fill="#068cb0"/>
        <path id="Caminho_12" data-name="Caminho 12" d="M46.956,48.968a3.6,3.6,0,0,1-.889-2.62V41.812h1.139V46.3q0,2.563,2.244,2.563a2.16,2.16,0,0,0,1.675-.632,2.775,2.775,0,0,0,.582-1.932v-4.49h1.105v4.536a3.6,3.6,0,0,1-.889,2.626,3.85,3.85,0,0,1-4.968-.006" transform="translate(0.134 0.12)" fill="#068cb0"/>
        <path id="Caminho_13" data-name="Caminho 13" d="M61,42.553a2.782,2.782,0,0,1,0,4.079,3.688,3.688,0,0,1-2.437.741H56.59v2.415H55.451V41.812h3.111A3.688,3.688,0,0,1,61,42.553m-.818,3.367a1.836,1.836,0,0,0,0-2.655,2.575,2.575,0,0,0-1.653-.461H56.59v3.577h1.938a2.575,2.575,0,0,0,1.653-.461" transform="translate(0.161 0.12)" fill="#068cb0"/>
        <path id="Caminho_14" data-name="Caminho 14" d="M74.228,41.812v7.976h-.935L68.509,43.84v5.948H67.369V41.812H68.3l4.785,5.948V41.812Z" transform="translate(0.195 0.12)" fill="#068cb0"/>
        <path id="Caminho_15" data-name="Caminho 15" d="M78.351,49.35a3.92,3.92,0,0,1-1.521-1.464,4.2,4.2,0,0,1,0-4.17,3.913,3.913,0,0,1,1.521-1.464,4.7,4.7,0,0,1,4.341,0,3.9,3.9,0,0,1,1.516,1.458,4.273,4.273,0,0,1,0,4.182,3.906,3.906,0,0,1-1.516,1.458,4.712,4.712,0,0,1-4.341,0m3.754-.884a2.932,2.932,0,0,0,1.106-1.1,3.24,3.24,0,0,0,0-3.134,2.922,2.922,0,0,0-1.106-1.1,3.124,3.124,0,0,0-1.578-.4,3.187,3.187,0,0,0-1.59.4,2.879,2.879,0,0,0-1.116,1.1,3.233,3.233,0,0,0,0,3.134,2.889,2.889,0,0,0,1.116,1.1,3.187,3.187,0,0,0,1.59.4,3.124,3.124,0,0,0,1.578-.4" transform="translate(0.221 0.12)" fill="#068cb0"/>
        <path id="Caminho_16" data-name="Caminho 16" d="M90.774,49.6a3.562,3.562,0,0,1-1.316-.724l.42-.888a3.511,3.511,0,0,0,1.168.666,4.28,4.28,0,0,0,1.464.257,2.637,2.637,0,0,0,1.481-.336,1.037,1.037,0,0,0,.49-.895.884.884,0,0,0-.268-.667,1.8,1.8,0,0,0-.662-.393q-.391-.137-1.11-.307a11.547,11.547,0,0,1-1.452-.433,2.419,2.419,0,0,1-.947-.667A1.785,1.785,0,0,1,89.652,44a2.045,2.045,0,0,1,.336-1.15,2.31,2.31,0,0,1,1.019-.821,4.15,4.15,0,0,1,1.7-.307,5.38,5.38,0,0,1,1.39.182,3.69,3.69,0,0,1,1.172.525l-.376.912a4.12,4.12,0,0,0-1.07-.484,3.993,3.993,0,0,0-1.116-.165,2.458,2.458,0,0,0-1.453.354,1.079,1.079,0,0,0-.484.911.871.871,0,0,0,.274.667,1.9,1.9,0,0,0,.677.4,10.642,10.642,0,0,0,1.1.3,11.106,11.106,0,0,1,1.447.434,2.432,2.432,0,0,1,.94.66,1.741,1.741,0,0,1,.394,1.2,2.044,2.044,0,0,1-.342,1.144,2.307,2.307,0,0,1-1.037.821,4.307,4.307,0,0,1-1.71.3,5.446,5.446,0,0,1-1.737-.279" transform="translate(0.259 0.12)" fill="#068cb0"/>
        <path id="Caminho_17" data-name="Caminho 17" d="M103.358,48.8v.991H97.57V41.812H103.2V42.8h-4.49v2.451h4v.969h-4V48.8Z" transform="translate(0.283 0.12)" fill="#068cb0"/>
        <path id="Caminho_18" data-name="Caminho 18" d="M106.332,48.968a3.6,3.6,0,0,1-.889-2.62V41.812h1.139V46.3q0,2.563,2.244,2.563a2.16,2.16,0,0,0,1.675-.632,2.775,2.775,0,0,0,.582-1.932v-4.49h1.105v4.536a3.6,3.6,0,0,1-.889,2.626,3.85,3.85,0,0,1-4.968-.006" transform="translate(0.306 0.12)" fill="#068cb0"/>
        <path id="Caminho_19" data-name="Caminho 19" d="M125.072,41.812v7.976h-.935l-4.785-5.948v5.948h-1.139V41.812h.935l4.785,5.948V41.812Z" transform="translate(0.343 0.12)" fill="#068cb0"/>
        <path id="Caminho_20" data-name="Caminho 20" d="M133.557,48.8v.991H127.77V41.812H133.4V42.8h-4.49v2.451h4v.969h-4V48.8Z" transform="translate(0.37 0.12)" fill="#068cb0"/>
        <path id="Caminho_21" data-name="Caminho 21" d="M141.2,45.756H142.3v3.111a4.263,4.263,0,0,1-1.379.751,5.162,5.162,0,0,1-1.641.262,4.45,4.45,0,0,1-2.176-.53,3.937,3.937,0,0,1-1.52-1.458,4.237,4.237,0,0,1,0-4.188,3.877,3.877,0,0,1,1.526-1.458,4.556,4.556,0,0,1,2.193-.524,4.63,4.63,0,0,1,1.737.313,3.553,3.553,0,0,1,1.328.918l-.707.706a3.211,3.211,0,0,0-2.313-.923,3.36,3.36,0,0,0-1.635.393,2.873,2.873,0,0,0-1.133,1.094,3.217,3.217,0,0,0,0,3.144,2.913,2.913,0,0,0,1.133,1.1,3.3,3.3,0,0,0,1.624.4,3.377,3.377,0,0,0,1.868-.513Z" transform="translate(0.391 0.12)" fill="#068cb0"/>
        <path id="Caminho_22" data-name="Caminho 22" d="M146.2,49.356a3.92,3.92,0,0,1-1.521-1.464,4.2,4.2,0,0,1,0-4.171,3.91,3.91,0,0,1,1.521-1.463,4.7,4.7,0,0,1,4.341,0,3.892,3.892,0,0,1,1.516,1.458,4.28,4.28,0,0,1,0,4.182,3.906,3.906,0,0,1-1.516,1.458,4.712,4.712,0,0,1-4.341,0m3.754-.884a2.922,2.922,0,0,0,1.105-1.1,3.233,3.233,0,0,0,0-3.134,2.922,2.922,0,0,0-1.105-1.1,3.133,3.133,0,0,0-1.578-.4,3.2,3.2,0,0,0-1.59.4,2.9,2.9,0,0,0-1.117,1.1,3.24,3.24,0,0,0,0,3.134,2.9,2.9,0,0,0,1.117,1.1,3.2,3.2,0,0,0,1.59.4,3.134,3.134,0,0,0,1.578-.4m-.883-8.784h1.39l-1.915,1.481h-1.026Z" transform="translate(0.418 0.114)" fill="#068cb0"/>
        <path id="Caminho_23" data-name="Caminho 23" d="M156.058,49.35a3.9,3.9,0,0,1-1.509-1.458,4.266,4.266,0,0,1,0-4.182,3.883,3.883,0,0,1,1.515-1.458,4.424,4.424,0,0,1,2.165-.53,4.523,4.523,0,0,1,1.709.313,3.5,3.5,0,0,1,1.322.929l-.741.718a2.969,2.969,0,0,0-2.244-.946,3.241,3.241,0,0,0-1.607.4,2.888,2.888,0,0,0-1.122,1.1,3.24,3.24,0,0,0,0,3.134,2.891,2.891,0,0,0,1.122,1.1,3.242,3.242,0,0,0,1.607.4,2.976,2.976,0,0,0,2.244-.958l.741.717a3.537,3.537,0,0,1-1.328.935,4.471,4.471,0,0,1-1.715.319,4.4,4.4,0,0,1-2.159-.53" transform="translate(0.446 0.12)" fill="#068cb0"/>
        <rect id="Retângulo_4" data-name="Retângulo 4" width="1.139" height="7.976" transform="translate(163.666 41.933)" fill="#068cb0"/>
        <path id="Caminho_24" data-name="Caminho 24" d="M168.471,49.35a3.92,3.92,0,0,1-1.521-1.464,4.2,4.2,0,0,1,0-4.17,3.912,3.912,0,0,1,1.521-1.464,4.7,4.7,0,0,1,4.341,0,3.9,3.9,0,0,1,1.516,1.458,4.273,4.273,0,0,1,0,4.182,3.906,3.906,0,0,1-1.516,1.458,4.712,4.712,0,0,1-4.341,0m3.754-.884a2.932,2.932,0,0,0,1.106-1.1,3.24,3.24,0,0,0,0-3.134,2.922,2.922,0,0,0-1.106-1.1,3.124,3.124,0,0,0-1.578-.4,3.187,3.187,0,0,0-1.59.4,2.879,2.879,0,0,0-1.116,1.1,3.233,3.233,0,0,0,0,3.134,2.889,2.889,0,0,0,1.116,1.1,3.187,3.187,0,0,0,1.59.4,3.124,3.124,0,0,0,1.578-.4" transform="translate(0.482 0.12)" fill="#068cb0"/>
      </g>
    </g>
  </g>
</svg>
