<svg xmlns="http://www.w3.org/2000/svg" xmlns:xlink="http://www.w3.org/1999/xlink" width="398" height="83.524" viewBox="0 0 398 83.524">
  <defs>
    <clipPath id="clip-path">
      <rect id="Retângulo_5" data-name="Retângulo 5" width="398" height="83.525" fill="rgba(0,0,0,0)"/>
    </clipPath>
  </defs>
  <g id="LOGO_SEIDOR_UP" data-name="LOGO SEIDOR UP" transform="translate(7704 19964)">
    <g id="Grupo_2" data-name="Grupo 2" transform="translate(-7704 -19964)">
      <g id="Grupo_1" data-name="Grupo 1" transform="translate(0 0)" clip-path="url(#clip-path)">
        <path id="Caminho_1" data-name="Caminho 1" d="M9.931,55.959A30.015,30.015,0,0,1,0,51.291L4.388,41.56a29.71,29.71,0,0,0,8.536,4.228,32.043,32.043,0,0,0,9.891,1.595q5.506,0,8.137-1.635A4.936,4.936,0,0,0,33.584,41.4a4.158,4.158,0,0,0-1.555-3.312,11.806,11.806,0,0,0-3.989-2.113q-2.435-.8-6.581-1.756a90.625,90.625,0,0,1-10.451-3.031,16.972,16.972,0,0,1-6.979-4.867A13.135,13.135,0,0,1,1.117,17.39,15.533,15.533,0,0,1,3.749,8.576a17.7,17.7,0,0,1,7.938-6.262A32.407,32.407,0,0,1,24.651,0,42.93,42.93,0,0,1,35.1,1.277a30.909,30.909,0,0,1,8.935,3.669l-3.989,9.812A31.16,31.16,0,0,0,24.571,10.37q-5.428,0-8.017,1.756a5.352,5.352,0,0,0-2.593,4.627,4.523,4.523,0,0,0,2.992,4.267,46.926,46.926,0,0,0,9.134,2.751A91.326,91.326,0,0,1,36.536,26.8a17.3,17.3,0,0,1,6.979,4.786q2.913,3.269,2.913,8.854a15.252,15.252,0,0,1-2.674,8.735,17.975,17.975,0,0,1-8.016,6.262,32.7,32.7,0,0,1-13,2.314,45.644,45.644,0,0,1-12.8-1.8" transform="translate(0 0)" fill="#7c7c7c"/>
        <path id="Caminho_2" data-name="Caminho 2" d="M73.043,46.04V56.41H29.806V.572h42.2v10.37H42.651V23.066H68.575V33.118H42.651V46.04Z" transform="translate(20.129 0.386)" fill="#7c7c7c"/>
        <rect id="Retângulo_3" data-name="Retângulo 3" width="12.924" height="55.84" transform="translate(98.116 0.957)" fill="#7c7c7c"/>
        <path id="Caminho_3" data-name="Caminho 3" d="M70.992.571H96.36a35.62,35.62,0,0,1,16.073,3.471,25.978,25.978,0,0,1,10.85,9.77,27.481,27.481,0,0,1,3.87,14.679,27.474,27.474,0,0,1-3.87,14.676,25.986,25.986,0,0,1-10.85,9.774,35.663,35.663,0,0,1-16.073,3.47H70.992ZM95.722,45.8q8.376,0,13.363-4.667t4.984-12.642q0-7.976-4.984-12.645T95.722,11.181H83.916V45.8Z" transform="translate(47.944 0.385)" fill="#7c7c7c"/>
        <path id="Caminho_4" data-name="Caminho 4" d="M119.915,54.005a27.8,27.8,0,0,1-10.928-10.33,28.192,28.192,0,0,1-3.949-14.8,28.19,28.19,0,0,1,3.949-14.8A27.82,27.82,0,0,1,119.915,3.749a34.558,34.558,0,0,1,31.31,0,27.943,27.943,0,0,1,14.916,25.128,27.938,27.938,0,0,1-14.916,25.128,34.558,34.558,0,0,1-31.31,0m24.609-9.533a16.329,16.329,0,0,0,6.261-6.341,18.638,18.638,0,0,0,2.273-9.254,18.636,18.636,0,0,0-2.273-9.253,16.333,16.333,0,0,0-6.261-6.343,18.693,18.693,0,0,0-17.869,0,16.342,16.342,0,0,0-6.264,6.343,18.67,18.67,0,0,0-2.27,9.253,18.672,18.672,0,0,0,2.27,9.254,16.337,16.337,0,0,0,6.264,6.341,18.693,18.693,0,0,0,17.869,0" transform="translate(70.936 0)" fill="#7c7c7c"/>
        <path id="Caminho_5" data-name="Caminho 5" d="M179.708,56.41,168.937,40.855H157.053V56.41H144.129V.572H168.3a31.019,31.019,0,0,1,12.882,2.473,19.169,19.169,0,0,1,8.419,7.02,19.342,19.342,0,0,1,2.95,10.769,18.942,18.942,0,0,1-2.992,10.729,18.963,18.963,0,0,1-8.5,6.9L193.587,56.41Zm-3.27-42.8Q173.4,11.1,167.582,11.1h-10.53V30.565h10.53q5.82,0,8.856-2.552a8.877,8.877,0,0,0,3.029-7.18,8.849,8.849,0,0,0-3.029-7.219" transform="translate(97.336 0.386)" fill="#7c7c7c"/>
        <path id="Caminho_6" data-name="Caminho 6" d="M182.31,50.748q-6.66-6.622-6.661-18.906V.572h12.924V31.364q0,15,12.444,15,6.061,0,9.255-3.629t3.19-11.367V.572h12.763v31.27q0,12.286-6.661,18.906t-18.625,6.621q-11.967,0-18.628-6.621" transform="translate(118.623 0.386)" fill="#068cb0"/>
        <path id="Caminho_7" data-name="Caminho 7" d="M254.135,10.065a19.172,19.172,0,0,0-8.419-7.021A31.051,31.051,0,0,0,232.831.571H208.663v55.84h12.924V24.706h-5.423L231.049,9.82l14.884,14.885h-5.756v15.6a26.683,26.683,0,0,0,5.54-1.724,18.823,18.823,0,0,0,8.419-7.02,19.39,19.39,0,0,0,2.947-10.73,19.339,19.339,0,0,0-2.947-10.767" transform="translate(140.918 0.385)" fill="#068cb0"/>
        <path id="Caminho_8" data-name="Caminho 8" d="M1.213,41.812H6.827a8.136,8.136,0,0,1,3.751.838A6.164,6.164,0,0,1,13.118,45a7.133,7.133,0,0,1,0,6.948,6.154,6.154,0,0,1-2.54,2.35,8.136,8.136,0,0,1-3.751.838H1.213Zm5.5,11.669a6.156,6.156,0,0,0,2.845-.628,4.555,4.555,0,0,0,1.895-1.761,5.472,5.472,0,0,0,0-5.235A4.555,4.555,0,0,0,9.558,44.1a6.156,6.156,0,0,0-2.845-.628h-3.6V53.481Z" transform="translate(0.819 28.236)" fill="#068cb0"/>
        <path id="Caminho_9" data-name="Caminho 9" d="M20.594,54.915v1.657H10.926V43.246h9.4V44.9h-7.5V49H19.51v1.618H12.828v4.3ZM17.4,42.162,15.645,40.7l-1.752,1.466H12.238l2.533-2.474h1.751l2.53,2.474Z" transform="translate(7.379 26.802)" fill="#068cb0"/>
        <path id="Caminho_10" data-name="Caminho 10" d="M23.67,53.765a6.011,6.011,0,0,1-1.484-4.376V41.812h1.9v7.5q0,4.282,3.749,4.282a3.608,3.608,0,0,0,2.8-1.055,4.636,4.636,0,0,0,.972-3.227v-7.5h1.846v7.577a6.007,6.007,0,0,1-1.484,4.386,5.551,5.551,0,0,1-4.15,1.513,5.528,5.528,0,0,1-4.15-1.523" transform="translate(14.983 28.236)" fill="#068cb0"/>
        <path id="Caminho_11" data-name="Caminho 11" d="M43.923,55.136l-.02-9.707-4.815,8.088h-.875L33.4,45.486v9.65H31.571V41.812h1.561l5.557,9.365,5.48-9.365h1.561l.02,13.324Z" transform="translate(21.321 28.236)" fill="#068cb0"/>
        <path id="Caminho_12" data-name="Caminho 12" d="M47.551,53.765a6.011,6.011,0,0,1-1.484-4.376V41.812h1.9v7.5q0,4.282,3.749,4.282a3.608,3.608,0,0,0,2.8-1.055,4.636,4.636,0,0,0,.972-3.227v-7.5h1.846v7.577a6.007,6.007,0,0,1-1.484,4.386,5.551,5.551,0,0,1-4.15,1.513,5.528,5.528,0,0,1-4.15-1.523" transform="translate(31.111 28.236)" fill="#068cb0"/>
        <path id="Caminho_13" data-name="Caminho 13" d="M64.719,43.05a4.648,4.648,0,0,1,0,6.814A6.161,6.161,0,0,1,60.648,51.1H57.354v4.034h-1.9V41.812h5.2a6.161,6.161,0,0,1,4.071,1.238m-1.367,5.624a3.066,3.066,0,0,0,0-4.435,4.3,4.3,0,0,0-2.761-.771H57.354v5.976h3.237a4.3,4.3,0,0,0,2.761-.771" transform="translate(37.448 28.236)" fill="#068cb0"/>
        <path id="Caminho_14" data-name="Caminho 14" d="M78.827,41.812V55.136H77.266L69.273,45.2v9.936h-1.9V41.812h1.561l7.993,9.936V41.812Z" transform="translate(45.497 28.236)" fill="#068cb0"/>
        <path id="Caminho_15" data-name="Caminho 15" d="M79.742,54.465A6.548,6.548,0,0,1,77.2,52.019a7.021,7.021,0,0,1,0-6.966,6.536,6.536,0,0,1,2.542-2.446,7.859,7.859,0,0,1,7.251,0,6.513,6.513,0,0,1,2.533,2.436,7.138,7.138,0,0,1,0,6.986,6.525,6.525,0,0,1-2.533,2.436,7.872,7.872,0,0,1-7.251,0m6.271-1.476a4.9,4.9,0,0,0,1.848-1.836,5.412,5.412,0,0,0,0-5.235,4.882,4.882,0,0,0-1.848-1.834,5.218,5.218,0,0,0-2.635-.667,5.325,5.325,0,0,0-2.655.667,4.81,4.81,0,0,0-1.865,1.834,5.4,5.4,0,0,0,0,5.235,4.826,4.826,0,0,0,1.865,1.836,5.325,5.325,0,0,0,2.655.667,5.218,5.218,0,0,0,2.635-.667" transform="translate(51.512 28.174)" fill="#068cb0"/>
        <path id="Caminho_16" data-name="Caminho 16" d="M91.656,54.883a5.95,5.95,0,0,1-2.2-1.21l.7-1.483A5.866,5.866,0,0,0,92.112,53.3a7.15,7.15,0,0,0,2.446.429,4.405,4.405,0,0,0,2.474-.561,1.732,1.732,0,0,0,.819-1.494,1.478,1.478,0,0,0-.447-1.114,3,3,0,0,0-1.106-.657q-.653-.229-1.855-.513a19.289,19.289,0,0,1-2.426-.724,4.042,4.042,0,0,1-1.582-1.114,2.982,2.982,0,0,1-.655-2.027,3.417,3.417,0,0,1,.561-1.922,3.859,3.859,0,0,1,1.7-1.372,6.933,6.933,0,0,1,2.838-.513,8.987,8.987,0,0,1,2.322.3,6.164,6.164,0,0,1,1.958.876l-.628,1.523a6.882,6.882,0,0,0-1.788-.809,6.671,6.671,0,0,0-1.865-.276,4.106,4.106,0,0,0-2.428.591,1.8,1.8,0,0,0-.809,1.521,1.455,1.455,0,0,0,.457,1.114,3.182,3.182,0,0,0,1.131.667,17.778,17.778,0,0,0,1.838.5,18.553,18.553,0,0,1,2.418.725,4.063,4.063,0,0,1,1.57,1.1,2.909,2.909,0,0,1,.658,2,3.414,3.414,0,0,1-.571,1.912,3.854,3.854,0,0,1-1.732,1.372,7.2,7.2,0,0,1-2.856.5,9.1,9.1,0,0,1-2.9-.466" transform="translate(60.415 28.175)" fill="#068cb0"/>
        <path id="Caminho_17" data-name="Caminho 17" d="M107.239,53.481v1.655H97.57V41.812h9.4v1.655h-7.5v4.094h6.683V49.18H99.472v4.3Z" transform="translate(65.893 28.236)" fill="#068cb0"/>
        <path id="Caminho_18" data-name="Caminho 18" d="M106.927,53.765a6.011,6.011,0,0,1-1.484-4.376V41.812h1.9v7.5q0,4.282,3.749,4.282a3.608,3.608,0,0,0,2.8-1.055,4.636,4.636,0,0,0,.972-3.227v-7.5h1.846v7.577a6.007,6.007,0,0,1-1.484,4.386,6.432,6.432,0,0,1-8.3-.01" transform="translate(71.21 28.236)" fill="#068cb0"/>
        <path id="Caminho_19" data-name="Caminho 19" d="M129.671,41.812V55.136h-1.561L120.116,45.2v9.936h-1.9V41.812h1.561l7.993,9.936V41.812Z" transform="translate(79.834 28.236)" fill="#068cb0"/>
        <path id="Caminho_20" data-name="Caminho 20" d="M137.438,53.481v1.655H127.77V41.812h9.4v1.655h-7.5v4.094h6.683V49.18h-6.683v4.3Z" transform="translate(86.288 28.236)" fill="#068cb0"/>
        <path id="Caminho_21" data-name="Caminho 21" d="M145.345,48.46h1.828v5.2a7.121,7.121,0,0,1-2.3,1.255,8.622,8.622,0,0,1-2.741.437,7.434,7.434,0,0,1-3.635-.885,6.577,6.577,0,0,1-2.54-2.436,7.078,7.078,0,0,1,0-7A6.477,6.477,0,0,1,138.5,42.6a7.611,7.611,0,0,1,3.664-.875,7.734,7.734,0,0,1,2.9.523,5.936,5.936,0,0,1,2.218,1.533l-1.181,1.179a5.363,5.363,0,0,0-3.863-1.541,5.613,5.613,0,0,0-2.731.657,4.8,4.8,0,0,0-1.893,1.828,5.375,5.375,0,0,0,0,5.252,4.866,4.866,0,0,0,1.893,1.836,5.507,5.507,0,0,0,2.712.668,5.642,5.642,0,0,0,3.121-.858Z" transform="translate(91.19 28.175)" fill="#068cb0"/>
        <path id="Caminho_22" data-name="Caminho 22" d="M147.593,55.838a6.548,6.548,0,0,1-2.541-2.446,7.024,7.024,0,0,1,0-6.968,6.532,6.532,0,0,1,2.541-2.444,7.859,7.859,0,0,1,7.251,0,6.5,6.5,0,0,1,2.533,2.436,7.149,7.149,0,0,1,0,6.986,6.524,6.524,0,0,1-2.533,2.436,7.872,7.872,0,0,1-7.251,0m6.271-1.476a4.882,4.882,0,0,0,1.846-1.836,5.4,5.4,0,0,0,0-5.235,4.882,4.882,0,0,0-1.846-1.836,5.234,5.234,0,0,0-2.635-.665,5.341,5.341,0,0,0-2.655.665,4.841,4.841,0,0,0-1.866,1.836,5.412,5.412,0,0,0,0,5.235,4.841,4.841,0,0,0,1.866,1.836,5.342,5.342,0,0,0,2.655.667,5.235,5.235,0,0,0,2.635-.667M152.39,39.688h2.322l-3.2,2.474H149.8Z" transform="translate(97.335 26.802)" fill="#068cb0"/>
        <path id="Caminho_23" data-name="Caminho 23" d="M157.437,54.464a6.516,6.516,0,0,1-2.521-2.436,7.127,7.127,0,0,1,0-6.986,6.486,6.486,0,0,1,2.531-2.436,7.39,7.39,0,0,1,3.617-.885,7.556,7.556,0,0,1,2.855.523,5.845,5.845,0,0,1,2.208,1.551L164.889,45a4.96,4.96,0,0,0-3.749-1.58,5.415,5.415,0,0,0-2.684.667,4.825,4.825,0,0,0-1.875,1.834,5.412,5.412,0,0,0,0,5.235,4.829,4.829,0,0,0,1.875,1.836,5.416,5.416,0,0,0,2.684.668,4.971,4.971,0,0,0,3.749-1.6l1.238,1.2a5.908,5.908,0,0,1-2.218,1.561,7.468,7.468,0,0,1-2.865.533,7.347,7.347,0,0,1-3.607-.885" transform="translate(104.003 28.175)" fill="#068cb0"/>
        <rect id="Retângulo_4" data-name="Retângulo 4" width="1.903" height="13.324" transform="translate(273.404 70.048)" fill="#068cb0"/>
        <path id="Caminho_24" data-name="Caminho 24" d="M169.862,54.465a6.547,6.547,0,0,1-2.541-2.446,7.021,7.021,0,0,1,0-6.966,6.536,6.536,0,0,1,2.541-2.446,7.859,7.859,0,0,1,7.251,0,6.513,6.513,0,0,1,2.533,2.436,7.138,7.138,0,0,1,0,6.986,6.525,6.525,0,0,1-2.533,2.436,7.872,7.872,0,0,1-7.251,0m6.271-1.476a4.9,4.9,0,0,0,1.848-1.836,5.412,5.412,0,0,0,0-5.235,4.882,4.882,0,0,0-1.848-1.834,5.218,5.218,0,0,0-2.635-.667,5.325,5.325,0,0,0-2.655.667,4.81,4.81,0,0,0-1.865,1.834,5.4,5.4,0,0,0,0,5.235,4.826,4.826,0,0,0,1.865,1.836,5.325,5.325,0,0,0,2.655.667,5.218,5.218,0,0,0,2.635-.667" transform="translate(112.374 28.174)" fill="#068cb0"/>
      </g>
    </g>
  </g>
</svg>
