<svg id="Grupo_1793" data-name="Grupo 1793" xmlns="http://www.w3.org/2000/svg" width="401.074" height="90" viewBox="0 0 401.074 90">
  <g id="Grupo_1674" data-name="Grupo 1674">
    <path id="Caminho_346" data-name="Caminho 346" d="M280.494,186.04a16.288,16.288,0,0,1-9.767-3.461l2.345-3.6a12.89,12.89,0,0,0,7.565,2.844c2.263,0,3.569-.949,3.569-2.477v-.09c0-1.8-2.433-2.407-5.143-3.247-3.407-.939-7.208-2.341-7.208-6.751v-.1c0-4.356,3.615-7.02,8.2-7.02a15.924,15.924,0,0,1,8.478,2.628l-2.1,3.757a13.239,13.239,0,0,0-6.5-2.183c-2.049,0-3.229.939-3.229,2.307v.082c0,1.672,2.487,2.343,5.187,3.228,3.371,1.047,7.172,2.566,7.172,6.717v.09c0,4.846-3.757,7.27-8.568,7.27" transform="translate(112.012 -153.523)" fill="#fff"/>
    <g id="Grupo_1675" data-name="Grupo 1675" transform="translate(283.488 0.473)">
      <path id="Caminho_341" data-name="Caminho 341" d="M231.113,186.04a16.315,16.315,0,0,1-9.783-3.461l2.363-3.6a12.791,12.791,0,0,0,7.546,2.844c2.273,0,3.579-.949,3.579-2.477v-.09c0-1.8-2.453-2.407-5.151-3.247-3.4-.939-7.21-2.341-7.21-6.751v-.1c0-4.356,3.631-7.02,8.211-7.02a15.913,15.913,0,0,1,8.478,2.628l-2.093,3.757a13.3,13.3,0,0,0-6.5-2.183c-2.055,0-3.228.939-3.228,2.307v.082c0,1.672,2.468,2.343,5.189,3.228,3.362,1.047,7.154,2.566,7.154,6.717v.09c0,4.846-3.757,7.27-8.552,7.27" transform="translate(-221.33 -153.996)" fill="#fff"/>
      <path id="Caminho_342" data-name="Caminho 342" d="M237.826,163.092h-5.678v-5.027h5.678Zm-.188,26.569h-5.285V166.607h5.285Z" transform="translate(-210.542 -158.065)" fill="#fff"/>
      <path id="Caminho_343" data-name="Caminho 343" d="M242.547,185.633h-5.285V162.578h5.285v3.577a8.293,8.293,0,0,1,7.2-4.05c5.195,0,8.209,3.5,8.209,8.862v14.666h-5.293V172.541c0-3.569-1.79-5.634-4.929-5.634-3.058,0-5.187,2.129-5.187,5.722v13" transform="translate(-205.442 -154.035)" fill="#fff"/>
      <path id="Caminho_344" data-name="Caminho 344" d="M261.012,181.837a8.38,8.38,0,0,0,6.235-2.746l3.1,2.746a11.652,11.652,0,0,1-9.425,4.32c-6.691,0-11.832-4.829-11.832-12,0-6.635,4.67-12.055,11.258-12.055,7.324,0,11.045,5.776,11.045,12.449l-.08,1.448H254.377a6.451,6.451,0,0,0,6.635,5.84m5.143-9.345c-.347-3.4-2.361-6.064-5.848-6.064-3.227,0-5.5,2.486-5.984,6.064Z" transform="translate(-193.645 -154.041)" fill="#fff"/>
      <path id="Caminho_345" data-name="Caminho 345" d="M270.669,186.04a16.351,16.351,0,0,1-9.783-3.461l2.369-3.6a12.825,12.825,0,0,0,7.549,2.844c2.271,0,3.585-.949,3.585-2.477v-.09c0-1.8-2.449-2.407-5.151-3.247-3.407-.939-7.208-2.341-7.208-6.751v-.1c0-4.356,3.621-7.02,8.2-7.02a15.882,15.882,0,0,1,8.478,2.628l-2.091,3.757a13.277,13.277,0,0,0-6.511-2.183c-2.057,0-3.23.939-3.23,2.307v.082c0,1.672,2.487,2.343,5.187,3.228,3.371,1.047,7.182,2.566,7.182,6.717v.09c0,4.846-3.775,7.27-8.578,7.27" transform="translate(-181.883 -153.996)" fill="#fff"/>
      <path id="Caminho_348" data-name="Caminho 348" d="M246.538,221.723V200.315c0-5.151-2.433-7.8-6.583-7.8-4.166,0-6.815,2.648-6.815,7.8v21.408H222.257V183.344H233.14V188.8c2.523-3.22,5.742-6.175,11.253-6.175,8.245,0,13.028,5.458,13.028,14.26v24.842H246.538" transform="translate(-220.406 -133.576)" fill="#f0ad00"/>
      <path id="Caminho_349" data-name="Caminho 349" d="M279.764,206.337H253.043c1.082,4.937,4.518,7.514,9.391,7.514,3.641,0,6.3-1.146,9.3-3.937l6.233,5.51c-3.587,4.436-8.728,7.172-15.686,7.172-11.536,0-20.05-8.1-20.05-19.837v-.124c0-10.983,7.807-20.01,18.976-20.01,12.824,0,18.7,9.956,18.7,20.849v.126c0,1.072-.08,1.716-.146,2.736m-18.556-14.969c-4.506,0-7.44,3.218-8.3,8.155h16.4C268.66,194.657,265.806,191.368,261.208,191.368Z" transform="translate(-200.486 -133.572)" fill="#f0ad00"/>
    </g>
    <g id="Grupo_1674-2" data-name="Grupo 1674" transform="translate(228.3 1.512)">
      <path id="Caminho_339" data-name="Caminho 339" d="M219.385,166.41a7.253,7.253,0,0,1-4.356,6.85c3.571,1.216,6.074,3.264,6.074,7.458,0,5.492-4.5,8.416-11.312,8.416H195.65v-30.55h13.711c6.153,0,10.024,3.014,10.024,7.825m-5.365.877c0-2.513-1.913-3.935-5.357-3.935h-7.727v8.119h7.334C211.7,171.471,214.021,170.1,214.021,167.287Zm1.708,12.858c0-2.61-2.065-4.148-6.285-4.148h-8.506v8.388h8.89C213.5,184.385,215.728,182.955,215.728,180.145Z" transform="translate(-191.126 -158.585)" fill="#fff"/>
      <path id="Caminho_340" data-name="Caminho 340" d="M225.1,162.342h5.279V185.4H225.1v-3.577a8.317,8.317,0,0,1-7.206,4.06c-5.2,0-8.219-3.5-8.219-8.854V162.342h5.293v13.11c0,3.559,1.79,5.634,4.937,5.634,3.05,0,5.195-2.155,5.195-5.724v-13.02" transform="translate(-177.14 -154.837)" fill="#fff"/>
      <path id="Caminho_347" data-name="Caminho 347" d="M219.962,228.528c-15.481,0-26.577-11.538-26.577-25.792v-.144c0-14.251,11.259-25.912,26.713-25.912,15.481,0,26.587,11.518,26.587,25.771v.142c0,14.256-11.259,25.936-26.723,25.936m15.177-25.936c0-8.586-6.3-15.752-15.177-15.752s-15.041,7.006-15.041,15.611v.142c0,8.6,6.305,15.758,15.177,15.758s15.041-7.012,15.041-15.614Z" transform="translate(-193.385 -140.539)" fill="#f0ad00"/>
    </g>
    <path id="Caminho_350" data-name="Caminho 350" d="M202.231,168.735a10.177,10.177,0,1,1-10-10.15,10.206,10.206,0,0,1,10,10.15m-18.037,0a7.856,7.856,0,1,0,7.959-7.905A7.883,7.883,0,0,0,184.194,168.735Zm3.246-5.588h5.241c3.256,0,4.714.885,4.714,2.87a2.343,2.343,0,0,1-2,2.513c1.27.393,1.738.939,1.738,1.915v1.278c0,1.59.062,1.913.517,2.253h-3.3l-.342-1.324V171.06c0-1.072-.33-1.332-1.592-1.332h-1.851v4.248h-3.13Zm5.778,4.39,1.057-1.055-1.057-1.126h-2.648v2.181Z" transform="translate(24.377 -157.073)" fill="#fff"/>
    <path id="Caminho_338" data-name="Caminho 338" d="M245.085,200.2h-6.179V177.647h6.179c8.219,0,14.782,2.736,14.782,11.187,0,8.648-6.563,11.366-14.782,11.366m-66.341,16.148a25.471,25.471,0,0,1-8.988-1.61l8.876-28.005h.194l8.7,28.093A25.845,25.845,0,0,1,178.744,216.347Zm64.685-57H215.437V225.9l-24.468-66.55H166.738l-20.9,55.639c-2.2-14.017-16.731-18.856-28.155-22.513-7.566-2.407-15.553-6.01-15.481-9.926.058-3.211,4.306-6.217,12.677-5.778,5.62.314,10.611.751,20.484,5.526L145.1,165.36a76.089,76.089,0,0,0-31.712-7.532h-.072c-11.916,0-21.842,3.891-28.005,10.248a23.7,23.7,0,0,0-6.693,16.314c-.156,8.63,3,14.73,9.613,19.567,5.586,4.1,12.74,6.757,19.042,8.706,7.765,2.4,14.111,4.508,14.035,9a6.423,6.423,0,0,1-1.837,4.348c-1.931,2-4.9,2.754-9.01,2.844-7.951.142-13.831-1.091-23.2-6.619l-8.644,17.152a64.734,64.734,0,0,0,31.694,8.444h1.444c9.836-.18,17.762-2.988,24.115-8.1l1.015-.859-2.8,7.5h25.435l4.266-12.986a48.214,48.214,0,0,0,29.535.126l4.12,12.86h41.471v-26.9h9.05c21.884,0,34.824-11.111,34.824-29.785C282.779,168.865,270.222,159.348,243.429,159.348Z" transform="translate(-78.608 -157.828)" fill="#fff" fill-rule="evenodd"/>
  </g>
</svg>
