<svg xmlns="http://www.w3.org/2000/svg" width="536" height="77.782" viewBox="0 0 536 77.782">
  <g id="Grupo_3186" data-name="Grupo 3186" transform="translate(529.044 -3.071)">
    <path id="Caminho_5912" data-name="Caminho 5912" d="M-515.669,78.434a40.446,40.446,0,0,1-13.375-6.284l5.909-13.106a40.038,40.038,0,0,0,11.5,5.695,43.206,43.206,0,0,0,13.321,2.146q7.412,0,10.959-2.2a6.648,6.648,0,0,0,3.545-5.853,5.592,5.592,0,0,0-2.094-4.458,15.921,15.921,0,0,0-5.372-2.847q-3.279-1.073-8.865-2.362a122.406,122.406,0,0,1-14.072-4.084,22.857,22.857,0,0,1-9.4-6.554q-3.922-4.511-3.924-12.032a20.932,20.932,0,0,1,3.547-11.87A23.827,23.827,0,0,1-513.3,6.187q7.144-3.114,17.456-3.116a57.821,57.821,0,0,1,14.074,1.722,41.562,41.562,0,0,1,12.032,4.941l-5.372,13.213a41.959,41.959,0,0,0-20.841-5.907q-7.31,0-10.8,2.362a7.214,7.214,0,0,0-3.49,6.232q0,3.868,4.027,5.747a63.384,63.384,0,0,0,12.3,3.707,123.1,123.1,0,0,1,14.074,4.082,23.331,23.331,0,0,1,9.4,6.446q3.919,4.406,3.921,11.924a20.538,20.538,0,0,1-3.6,11.764,24.176,24.176,0,0,1-10.8,8.434q-7.2,3.117-17.513,3.116A61.459,61.459,0,0,1-515.669,78.434Z" fill="#9fa2ac"/>
    <path id="Caminho_5913" data-name="Caminho 5913" d="M-441.011,64.877V78.843h-58.227V3.643h56.83V17.609h-39.534V33.937h34.915V47.475h-34.915v17.4Z" transform="translate(37.443 0.719)" fill="#9fa2ac"/>
    <path id="Caminho_5914" data-name="Caminho 5914" d="M-470.479,3.643h17.4v75.2h-17.4Z" transform="translate(73.571 0.719)" fill="#9fa2ac"/>
    <path id="Caminho_5915" data-name="Caminho 5915" d="M-458.052,3.643h34.164a48.005,48.005,0,0,1,21.646,4.673A35,35,0,0,1-387.63,21.476a37.028,37.028,0,0,1,5.21,19.767,37.022,37.022,0,0,1-5.21,19.767,34.99,34.99,0,0,1-14.611,13.161,48.005,48.005,0,0,1-21.646,4.673h-34.164Zm33.3,60.914q11.283,0,18-6.286t6.715-17.028q0-10.739-6.715-17.028t-18-6.286h-15.9V64.557Z" transform="translate(89.183 0.719)" fill="#9fa2ac"/>
    <path id="Caminho_5916" data-name="Caminho 5916" d="M-403.972,75.8a37.46,37.46,0,0,1-14.717-13.912,37.968,37.968,0,0,1-5.318-19.929,37.966,37.966,0,0,1,5.318-19.927A37.481,37.481,0,0,1-403.972,8.12,43.915,43.915,0,0,1-382.86,3.071,43.61,43.61,0,0,1-361.8,8.12a37.986,37.986,0,0,1,14.717,13.914,37.694,37.694,0,0,1,5.372,19.927,37.7,37.7,0,0,1-5.372,19.929A37.964,37.964,0,0,1-361.8,75.8a43.559,43.559,0,0,1-21.055,5.049A43.864,43.864,0,0,1-403.972,75.8Zm33.142-12.838a22,22,0,0,0,8.434-8.54,25.108,25.108,0,0,0,3.062-12.463A25.1,25.1,0,0,0-362.4,29.5a21.987,21.987,0,0,0-8.434-8.542A23.854,23.854,0,0,0-382.86,17.9a23.859,23.859,0,0,0-12.035,3.062,21.987,21.987,0,0,0-8.434,8.542,25.121,25.121,0,0,0-3.059,12.461,25.13,25.13,0,0,0,3.059,12.463,22,22,0,0,0,8.434,8.54,23.859,23.859,0,0,0,12.035,3.062A23.854,23.854,0,0,0-370.83,62.965Z" transform="translate(131.951)" fill="#9fa2ac"/>
    <path id="Caminho_5917" data-name="Caminho 5917" d="M-337,78.843-351.5,57.894h-16.006V78.843h-17.407V3.643h32.553a41.778,41.778,0,0,1,17.35,3.33,25.8,25.8,0,0,1,11.335,9.454,26.05,26.05,0,0,1,3.973,14.5,25.492,25.492,0,0,1-4.03,14.449,25.519,25.519,0,0,1-11.439,9.293l16.865,24.171Zm-4.4-57.636q-4.085-3.384-11.926-3.384h-14.18V44.036h14.18q7.838,0,11.926-3.436t4.079-9.67Q-337.323,24.594-341.4,21.208Z" transform="translate(181.059 0.719)" fill="#9fa2ac"/>
    <path id="Caminho_5918" data-name="Caminho 5918" d="M-344.424,71.217q-8.969-8.918-8.971-25.462V3.643h17.4V45.11q0,20.2,16.759,20.2,8.163,0,12.463-4.887t4.294-15.311V3.643h17.19V45.756q0,16.546-8.971,25.462t-25.082,8.917Q-335.453,80.134-344.424,71.217Z" transform="translate(220.656 0.719)" fill="#66b6ff"/>
    <path id="Caminho_5919" data-name="Caminho 5919" d="M-259.141,16.427a25.815,25.815,0,0,0-11.338-9.454,41.8,41.8,0,0,0-17.353-3.33h-32.551v75.2h17.407v-42.7h-7.306L-290.234,16.1l20.047,20.047h-7.752v21.01a35.934,35.934,0,0,0,7.461-2.322,25.321,25.321,0,0,0,11.338-9.454,26.111,26.111,0,0,0,3.969-14.449A26.048,26.048,0,0,0-259.141,16.427Z" transform="translate(262.128 0.719)" fill="#66b6ff"/>
  </g>
</svg>
