<svg xmlns="http://www.w3.org/2000/svg" xmlns:xlink="http://www.w3.org/1999/xlink" width="127.424" height="141" viewBox="0 0 127.424 141">
  <defs>
    <clipPath id="clip-path">
      <rect id="Retângulo_10" data-name="Retângulo 10" width="127.424" height="141" transform="translate(0 0)" fill="#e54f66"/>
    </clipPath>
    <clipPath id="clip-path-2">
      <rect id="Retângulo_11" data-name="Retângulo 11" width="79.698" height="90" fill="#fff"/>
    </clipPath>
  </defs>
  <g id="icon-beneficios-06" transform="translate(100.712 -1551.011)">
    <g id="HEXÁGONO" transform="translate(-100.712 1551.011)" clip-path="url(#clip-path)">
      <path id="Caminho_32" data-name="Caminho 32" d="M0,45.166V95.834a19.833,19.833,0,0,0,9.916,17.175L53.8,138.343a19.831,19.831,0,0,0,19.833,0l43.879-25.334a19.831,19.831,0,0,0,9.916-17.175V45.166a19.832,19.832,0,0,0-9.916-17.175L73.628,2.657a19.833,19.833,0,0,0-19.833,0L9.916,27.991A19.832,19.832,0,0,0,0,45.166" transform="translate(0 0)" fill="#e54f66"/>
    </g>
    <g id="ícone" transform="translate(-76.849 1576.511)" clip-path="url(#clip-path-2)">
      <path id="Caminho_33" data-name="Caminho 33" d="M36.692,0h6.316a4.234,4.234,0,0,1,3,4.085c.109,1.281.377,2.547.538,3.824a1.041,1.041,0,0,0,.931,1.031A29.2,29.2,0,0,1,56.486,12.7a.79.79,0,0,0,1.072-.042c1.249-.966,2.527-1.894,3.8-2.827a3.642,3.642,0,0,1,5.2.394c1.02,1.007,2.04,2.017,3.038,3.046a3.624,3.624,0,0,1,.368,5.012c-.941,1.305-1.887,2.608-2.873,3.88a.854.854,0,0,0-.037,1.15A29.694,29.694,0,0,1,70.8,32.342a.987.987,0,0,0,.982.876c1.593.207,3.18.456,4.767.706a3.579,3.579,0,0,1,3.137,3.642c.019,1.552.016,3.105,0,4.658a3.534,3.534,0,0,1-3.077,3.683c-1.668.3-3.345.54-5.021.779a.748.748,0,0,0-.741.674A30.652,30.652,0,0,1,67,56.637a.748.748,0,0,0,.048,1c.976,1.279,1.925,2.579,2.872,3.881a3.657,3.657,0,0,1-.4,5.145q-1.448,1.47-2.915,2.921a3.66,3.66,0,0,1-5.267.426c-1.254-.911-2.488-1.85-3.746-2.754-.213-.153-.584-.352-.747-.268-1.312.68-2.591,1.422-3.952,2.185a7.338,7.338,0,0,1,1.737,5.511c-.013.232.295.588.541.713a4.215,4.215,0,0,1,2.471,3.206,14.624,14.624,0,0,1-.089,2.681c2.356.971,3.213,2.249,3.217,4.875,0,.7-.035,1.408.009,2.109A1.658,1.658,0,0,1,59.85,90h-40a1.669,1.669,0,0,1-.934-1.728c.048-.964,0-1.932.024-2.9a4.04,4.04,0,0,1,1.6-3.188,14.016,14.016,0,0,1,1.712-1.013c-.856-2.865.263-4.922,2.9-6.081a7.107,7.107,0,0,1,1.669-5.918c-1.361-.764-2.592-1.484-3.858-2.134-.193-.1-.6.052-.824.21-1.31.931-2.587,1.91-3.889,2.852a3.621,3.621,0,0,1-5-.369q-1.565-1.538-3.1-3.1a3.641,3.641,0,0,1-.386-5.074c.943-1.3,1.89-2.6,2.871-3.879a.8.8,0,0,0,.047-1.078A30.2,30.2,0,0,1,8.866,47.4a.8.8,0,0,0-.794-.728c-1.706-.238-3.412-.485-5.106-.791A3.507,3.507,0,0,1,.018,42.364q-.036-2.415,0-4.831a3.568,3.568,0,0,1,3.165-3.612c1.587-.246,3.18-.451,4.76-.738a1.218,1.218,0,0,0,.851-.624,33.185,33.185,0,0,1,4.16-9.779.865.865,0,0,0-.071-.2c-1.034-1.417-2.075-2.829-3.1-4.25a3.644,3.644,0,0,1,.4-5.14q1.508-1.533,3.038-3.043a3.616,3.616,0,0,1,5.065-.367c1.3.946,2.6,1.889,3.872,2.875a.788.788,0,0,0,1.072.038,29.47,29.47,0,0,1,9.092-3.783.932.932,0,0,0,.829-.922c.163-1.306.44-2.6.55-3.909a4.23,4.23,0,0,1,3-4.082m9.233,32.515c0-1.038-.043-1.974.01-2.905a2.611,2.611,0,0,1,2.629-2.531c1.139-.029,2.281-.031,3.42,0A2.613,2.613,0,0,1,54.6,29.722q.039,3.866,0,7.733a4.18,4.18,0,0,1-2.12,3.62c-.238.152-.488.286-.717.419.849,3.29.189,4.71-2.85,6.27a.648.648,0,0,0-.335.42c-.036.687-.016,1.377-.016,2.052,1.655.121,2.208.4,2.24,1.222.061,1.566-1.175,1.45-2.175,1.507-.239,2.157.091,5.864.6,6.842.132-.052.27-.1.4-.16A22.023,22.023,0,0,0,33.488,18.835c-1.044.3-1.75.007-1.989-.813-.221-.76.225-1.392,1.219-1.7A24.585,24.585,0,0,1,64.125,36.013,24.408,24.408,0,0,1,52.23,61.239c-.778.454-1.587.854-2.51,1.347l1.79,4.328c1.554-.885,2.983-1.669,4.381-2.506,1.093-.654,1.4-.671,2.438.1,1.53,1.128,3.068,2.245,4.583,3.392a1.181,1.181,0,0,0,1.777-.117c.941-.963,1.9-1.905,2.848-2.863.763-.772.791-1.112.162-1.971-1.16-1.581-2.316-3.164-3.494-4.73a1.5,1.5,0,0,1-.1-1.933,29.08,29.08,0,0,0,4.437-10.706,1.484,1.484,0,0,1,1.409-1.315c1.939-.264,3.87-.575,5.805-.866,1.047-.157,1.292-.431,1.3-1.488.005-1.347-.019-2.7.009-4.042A1.16,1.16,0,0,0,75.936,36.5c-1.88-.259-3.754-.563-5.632-.839-1.3-.191-1.578-.432-1.839-1.717A28.737,28.737,0,0,0,64.3,23.873c-.72-1.1-.706-1.4.058-2.434,1.128-1.532,2.242-3.073,3.39-4.589A1.212,1.212,0,0,0,67.608,15c-.971-.932-1.9-1.906-2.858-2.853C64,11.408,63.7,11.385,62.858,12c-1.578,1.161-3.161,2.317-4.721,3.5a1.542,1.542,0,0,1-2,.1A28.237,28.237,0,0,0,45.53,11.2a1.538,1.538,0,0,1-1.364-1.472c-.247-1.886-.553-3.763-.834-5.644C43.151,2.865,42.9,2.64,41.7,2.637q-1.842,0-3.684,0c-1.216,0-1.466.223-1.646,1.43-.275,1.853-.581,3.7-.813,5.559a1.685,1.685,0,0,1-1.545,1.612,27.647,27.647,0,0,0-10.286,4.269,1.723,1.723,0,0,1-2.3-.1c-1.524-1.184-3.1-2.3-4.641-3.461a1.165,1.165,0,0,0-1.769.128c-.953.991-1.944,1.946-2.909,2.926-.7.712-.721,1.065-.109,1.9,1.089,1.487,2.188,2.967,3.282,4.451.838,1.137.85,1.393.075,2.581a28.7,28.7,0,0,0-4.1,9.909c-.294,1.412-.514,1.616-1.931,1.825-1.878.277-3.753.575-5.632.845a1.089,1.089,0,0,0-1.048,1.251c.016,1.347,0,2.695,0,4.042,0,1.185.224,1.43,1.37,1.6,1.878.277,3.75.6,5.633.836A1.626,1.626,0,0,1,11.2,45.735,28.057,28.057,0,0,0,15.5,56.123a1.693,1.693,0,0,1-.094,2.231c-1.193,1.555-2.329,3.153-3.5,4.724a1.152,1.152,0,0,0,.125,1.711c.981.964,1.942,1.948,2.919,2.916.72.713,1.085.742,1.9.145,1.463-1.071,2.917-2.153,4.375-3.232,1.262-.934,1.426-.905,2.8-.074,1.334.806,2.716,1.533,4.183,2.354l1.739-4.237c-.137-.152-.167-.209-.215-.234-.233-.122-.473-.229-.706-.351-8.2-4.294-12.99-11.038-13.666-20.277-.705-9.642,3.264-17.219,11.257-22.649,1.165-.792,1.957-.764,2.441,0s.173,1.462-1.024,2.225a22.044,22.044,0,0,0-1.159,36.318c1.134.831,2.39,1.494,3.59,2.235l.325-.171c.15-2.247.3-4.495.45-6.73-1.867-.23-2.406-.547-2.356-1.4.083-1.413,1.219-1.32,2.267-1.391,0-.544-.039-1.04.01-1.527.062-.622-.168-.894-.771-1.12a3.939,3.939,0,0,1-2.673-3.115,20.332,20.332,0,0,1-.03-3.135c-1.9-.856-2.7-2.551-2.61-4.844.088-2.223.006-4.452.025-6.678a2.64,2.64,0,0,1,2.7-2.738c.994-.023,1.988-.01,2.982-.005a2.715,2.715,0,0,1,3.007,2.974c.012.811,0,1.623,0,2.44h1.519c0-.94-.022-1.816,0-2.69a2.684,2.684,0,0,1,2.737-2.719c1.14-.022,2.28-.013,3.42,0a2.722,2.722,0,0,1,2.922,2.9c.012.84,0,1.68,0,2.548Zm5.994,42.522a5.246,5.246,0,0,0-.712-3.734,28.787,28.787,0,0,1-5.3-17.328c0-.337-.03-.673-.046-.99H33.79c0,.405.019.754,0,1.1-.108,1.664-.123,3.342-.361,4.988a27.748,27.748,0,0,1-4.9,12.177,4.957,4.957,0,0,0-.717,3.789c1.542,0,3.029,0,4.516,0a1.256,1.256,0,0,1,1.4,1.058c.181.906-.44,1.569-1.505,1.58-1.929.02-3.859,0-5.789.012A1.716,1.716,0,0,0,24.6,79.307a1.772,1.772,0,0,0,1.71,1.857,6.846,6.846,0,0,0,.7.014q12.85,0,25.7,0a4.324,4.324,0,0,0,1.127-.108,1.693,1.693,0,0,0,1.077-2.442,1.839,1.839,0,0,0-1.829-.949q-7.455.021-14.91,0c-1.1,0-1.721-.475-1.744-1.3-.025-.872.584-1.342,1.761-1.342q5.087,0,10.174,0h3.559M48.551,29.762c0,.508,0,.968,0,1.429,0,3.462-.657,4.1-4.112,4.008a2.512,2.512,0,0,1-2.677-2.7c-.014-.9,0-1.8,0-2.735H37.941c0,.54-.029,1.032,0,1.52.229,3.254-1.027,4.077-3.929,3.929-1.875-.1-2.831-.993-2.864-2.9-.015-.839,0-1.678,0-2.535H27.775a3.17,3.17,0,0,0-.04.327c0,2.284-.009,4.568,0,6.852,0,1.489.585,2.073,2.069,2.076,3.214.005,6.429,0,9.644,0,1.092,0,1.7.487,1.7,1.327s-.584,1.312-1.7,1.314c-2.367.006-4.734,0-7.1,0-1.308,0-2.141.714-2.14,1.8s.807,1.777,2.145,1.789c1.49.013,2.981,0,4.471,0,3.507,0,7.014.006,10.521,0,1.339,0,2.149-.691,2.154-1.781s-.829-1.795-2.134-1.807c-.643-.006-1.286.006-1.929,0-1.039-.014-1.608-.487-1.605-1.318s.588-1.315,1.615-1.322c1.52-.011,3.039,0,4.559-.006,1.359-.009,1.958-.62,1.966-2s0-2.753,0-4.129V29.762ZM21.579,87.312H58.055c.276-2.494.07-3.548-2.913-3.526-10.315.077-20.631.03-30.946.03-.321,0-.644-.01-.964.015a1.66,1.66,0,0,0-1.645,1.615c-.041.605-.008,1.215-.008,1.866M45.86,47.988H33.839v2.255H45.86Z" transform="translate(0)" fill="#fff"/>
    </g>
  </g>
</svg>
