<svg xmlns="http://www.w3.org/2000/svg" xmlns:xlink="http://www.w3.org/1999/xlink" width="90" height="72.948" viewBox="0 0 90 72.948">
  <defs>
    <clipPath id="clip-path">
      <rect id="Retângulo_45" data-name="Retângulo 45" width="90" height="72.948" fill="none"/>
    </clipPath>
  </defs>
  <g id="icon-09" clip-path="url(#clip-path)">
    <path id="Caminho_156" data-name="Caminho 156" d="M79.166,67.586a1.336,1.336,0,0,0,0,2.672H130.7a1.336,1.336,0,1,0,0-2.672Z" transform="translate(-60.099 -52.187)" fill="#ff8a54" fill-rule="evenodd"/>
    <path id="Caminho_157" data-name="Caminho 157" d="M79.166,130.708a1.334,1.334,0,0,0,0,2.669H130.7a1.334,1.334,0,1,0,0-2.669Z" transform="translate(-60.099 -100.926)" fill="#ff8a54" fill-rule="evenodd"/>
    <path id="Caminho_158" data-name="Caminho 158" d="M154.059,171.859a1.336,1.336,0,0,0,0,2.672h17.657a1.338,1.338,0,1,0,0-2.672Z" transform="translate(-117.93 -132.701)" fill="#ff8a54" fill-rule="evenodd"/>
    <path id="Caminho_159" data-name="Caminho 159" d="M136.421,99.9a1.334,1.334,0,1,0,0,2.669H174.9a1.334,1.334,0,1,0,0-2.669Z" transform="translate(-104.304 -77.136)" fill="#ff8a54" fill-rule="evenodd"/>
    <path id="Caminho_160" data-name="Caminho 160" d="M80.686,99.9a1.335,1.335,0,1,0,0,2.669h6.676a1.335,1.335,0,0,0,0-2.669Z" transform="translate(-61.236 -77.136)" fill="#ff8a54" fill-rule="evenodd"/>
    <path id="Caminho_161" data-name="Caminho 161" d="M34.429,27.935a1.7,1.7,0,0,0-1.665,1.5,4.953,4.953,0,0,1-4.832,4.838,1.587,1.587,0,0,0-1.5,1.668V70.112a1.709,1.709,0,0,0,1.5,1.673,4.929,4.929,0,0,1,4.832,4.749,1.654,1.654,0,0,0,1.665,1.581H73.491a1.334,1.334,0,0,0,0-2.669H35.346A7.535,7.535,0,0,0,29.1,69.194V36.772a7.532,7.532,0,0,0,6.249-6.255H94.812a7.517,7.517,0,0,0,6.581,6.255V59.2a1.333,1.333,0,0,0,2.666,0V35.684a2.562,2.562,0,0,0-.589-1,1.553,1.553,0,0,0-1.16-.413,4.988,4.988,0,0,1-5-4.838,1.586,1.586,0,0,0-1.665-1.5Z" transform="translate(-20.411 -21.57)" fill="#ff8a54" fill-rule="evenodd"/>
    <path id="Caminho_162" data-name="Caminho 162" d="M86.1,2.577a1.053,1.053,0,0,1,1.079,1.085v55.81a1.032,1.032,0,0,1-1.079,1H80.954L80.2,59.061l.084-.086a4.762,4.762,0,0,0,2.741-4.743,1.945,1.945,0,0,1,.418-1.327,4.644,4.644,0,0,0,0-5.407,2.093,2.093,0,0,1-.418-1.333,4.654,4.654,0,0,0-2.741-4.66,2.115,2.115,0,0,1-1-1.076,4.689,4.689,0,0,0-4.127-2.7l-.516.033a2.572,2.572,0,0,1-1.417-.418,4.763,4.763,0,0,0-2.727-.873,4.483,4.483,0,0,0-2.669.873,2.736,2.736,0,0,1-1.327.418l-.535-.033a4.619,4.619,0,0,0-4.116,2.7A2.243,2.243,0,0,1,60.773,41.5a4.6,4.6,0,0,0-2.658,4.66,1.99,1.99,0,0,1-.41,1.333,4.617,4.617,0,0,0,0,5.407,2.122,2.122,0,0,1,.41,1.327,4.71,4.71,0,0,0,2.658,4.743l.167.086-.747,1.411H3.653a1.029,1.029,0,0,1-1.082-1V3.661A1.054,1.054,0,0,1,3.653,2.577ZM70.7,39.388a2.214,2.214,0,0,1,1.207.368,4.463,4.463,0,0,0,2.593.881l.558-.047.181-.008a2.249,2.249,0,0,1,1.9,1.174A4.139,4.139,0,0,0,79.37,44.09a2,2,0,0,1,1.165,2.075,3.985,3.985,0,0,0,.831,3.081,2.116,2.116,0,0,1,0,2.409,4.705,4.705,0,0,0-.831,3.081,2.054,2.054,0,0,1-1.165,2.075,6.075,6.075,0,0,0-1.576,1.166l-.084.167-.661.918a1.924,1.924,0,0,1-1.835,1.171l-.245-.014-.558-.042a4.071,4.071,0,0,0-2.51.876,8.549,8.549,0,0,0-1,.251h-.661a1.926,1.926,0,0,1-.831-.251,4.642,4.642,0,0,0-2.741-.834h-.335l-.2.014a2.06,2.06,0,0,1-1.882-1.171c-.243-.337-.41-.75-.661-.918v-.167a3.721,3.721,0,0,0-1.578-1.166,1.893,1.893,0,0,1-1.163-2.075,4.074,4.074,0,0,0-.831-3.081,2.145,2.145,0,0,1,0-2.409,4.274,4.274,0,0,0,.831-3.081A2.208,2.208,0,0,1,62.02,44.09a4.535,4.535,0,0,0,2.323-2.334,2.081,2.081,0,0,1,1.868-1.174l.209.008.561.047a4.062,4.062,0,0,0,2.51-.881,2.234,2.234,0,0,1,1.2-.368M62.684,61.3a4.216,4.216,0,0,0,3.263,1.444l.558-.028a1.935,1.935,0,0,1,1.327.413l.418.167-2.825,5.82L64.1,66.878a1.485,1.485,0,0,0-1.338-.77l-.245.022-2.323.413Zm15.858,0,2.49,5.24-2.49-.413-.218-.022a1.562,1.562,0,0,0-1.358.77L75.639,69.12,72.984,63.3l.326-.251a2.929,2.929,0,0,1,1.417-.329l.3.008A5.111,5.111,0,0,0,78.542,61.3M3.653,0A3.687,3.687,0,0,0,0,3.661v55.81a3.687,3.687,0,0,0,3.653,3.661H58.947L56.959,67.29a1.777,1.777,0,0,0,.243,1.662,1.28,1.28,0,0,0,1.16.608l.257-.022,3.656-.586,2.069,3.332a1.519,1.519,0,0,0,1.333.664h.084a1.694,1.694,0,0,0,1.408-.915l3.486-7.406,3.572,7.406a1.5,1.5,0,0,0,1.33.915h.084a1.622,1.622,0,0,0,1.327-.664l2.078-3.332,3.653.586L83,69.56a1.327,1.327,0,0,0,1.185-.608,2.133,2.133,0,0,0,.167-1.746l-1.994-4.158h3.982A3.674,3.674,0,0,0,90,59.471V3.661A3.968,3.968,0,0,0,86.1,0Z" fill="#ff8a54" fill-rule="evenodd"/>
    <path id="Caminho_163" data-name="Caminho 163" d="M281.393,186.272a5.554,5.554,0,0,1,5.491,5.574,5.427,5.427,0,0,1-5.491,5.482,5.528,5.528,0,1,1,0-11.057m0-2.663a8.191,8.191,0,1,0,0,16.383,8.191,8.191,0,0,0,0-16.383" transform="translate(-210.924 -141.774)" fill="#ff8a54" fill-rule="evenodd"/>
  </g>
</svg>
