<svg xmlns="http://www.w3.org/2000/svg" xmlns:xlink="http://www.w3.org/1999/xlink" width="127.424" height="141" viewBox="0 0 127.424 141">
  <defs>
    <clipPath id="clip-path">
      <rect id="Ret창ngulo_3" data-name="Ret창ngulo 3" width="127.424" height="141" transform="translate(0 0)" fill="#b54f9c"/>
    </clipPath>
    <clipPath id="clip-path-2">
      <rect id="Ret창ngulo_4" data-name="Ret창ngulo 4" width="85" height="85.022" fill="#fff"/>
    </clipPath>
  </defs>
  <g id="icon-beneficios-03" transform="translate(100.712 -1552.011)">
    <g id="icon-beneficios-03-2" data-name="icon-beneficios-03" transform="translate(-100.712 1552.011)" clip-path="url(#clip-path)">
      <path id="Caminho_6" data-name="Caminho 6" d="M0,45.166V95.834a19.833,19.833,0,0,0,9.916,17.175L53.8,138.343a19.831,19.831,0,0,0,19.833,0l43.879-25.334a19.831,19.831,0,0,0,9.916-17.175V45.166a19.832,19.832,0,0,0-9.916-17.175L73.628,2.657a19.833,19.833,0,0,0-19.833,0L9.916,27.991A19.832,19.832,0,0,0,0,45.166" transform="translate(0 0)" fill="#b54f9c"/>
    </g>
    <g id="Grupo_3" data-name="Grupo 3" transform="translate(-77 1580)" clip-path="url(#clip-path-2)">
      <path id="Caminho_7" data-name="Caminho 7" d="M243.306,38.7c-7.1-.015-14.126-.017-20.062-.017l-14.739,0c-1.615,0-1.942-.327-1.942-1.944V28.987c0-8.866,0-18.033-.017-27.049A2.043,2.043,0,0,1,207.4,0h2.695c.323.04.646.078.969.116.7.082,1.428.168,2.135.274a37.463,37.463,0,0,1,31.413,30.278c.179.979.315,1.988.448,2.963.061.453.123.907.188,1.359v2.862a1.986,1.986,0,0,1-1.925.846Zm-34.234-2.527h33.614l-.015-.464c-.661-19.431-18-33.018-33.149-33.059h-.45Z" transform="translate(-160.244)" fill="#fff"/>
      <path id="Caminho_8" data-name="Caminho 8" d="M38.282,110.584a37.376,37.376,0,0,1-23.858-8.471A36.789,36.789,0,0,1,.405,77.46c-1.593-12.15,1.509-22.715,9.221-31.4A37.9,37.9,0,0,1,31.15,33.7a49.089,49.089,0,0,1,6.035-.657q.619-.041,1.237-.085.133-.01.256-.01c.824,0,1.335.274,1.336,1.639q0,7.494,0,14.988v20.97H75.709c.85,0,1.336.108,1.576.351s.344.732.335,1.586a38.81,38.81,0,0,1-8.769,23.969,37.722,37.722,0,0,1-22.525,13.39,45.648,45.648,0,0,1-8.044.742m-1.26-75.211C23.46,36.525,13.449,42.709,7.267,53.754-.154,67.012.585,80.632,9.4,93.142c6.416,9.1,15.709,14.157,27.624,15.031l.481.035V35.332Zm3.046,72.713.461-.013A36,36,0,0,0,75.072,73.516l.013-.461H40.069Z" transform="translate(0 -25.563)" fill="#fff"/>
      <path id="Caminho_9" data-name="Caminho 9" d="M254.134,74.6a3.385,3.385,0,0,1-.663-.065c-2.119-.423-3.252-2.068-3.673-5.334l-.211-1.64-.646,1.522c-.161.379-.31.746-.454,1.1a23.309,23.309,0,0,1-1.017,2.283,2.382,2.382,0,0,1-1.066.97.692.692,0,0,1-.28.06,1.1,1.1,0,0,1-.818-.48,1.29,1.29,0,0,1-.1-1.441c.9-2.119,1.8-4.277,2.672-6.364l.825-1.974c.084-.2.164-.4.265-.651l.182-.453-.708-.508c-.077.066-.134.114-.179.151a1.7,1.7,0,0,0-.2.182,3.972,3.972,0,0,1-3.006,1.525,4.294,4.294,0,0,1-1.338-.229,4.187,4.187,0,0,1-2.913-3.663,4.624,4.624,0,0,1,3.086-5.392,4.036,4.036,0,0,1,1.05-.14,4.352,4.352,0,0,1,4.178,3.955,6.626,6.626,0,0,1,.017,1.015c-.006.173-.011.345-.011.517v.369l.888.174.142-.334q.264-.621.525-1.243c.411-.975.836-1.983,1.269-2.966a1.094,1.094,0,0,1,1.075-.73,1.812,1.812,0,0,1,.223.014,1.055,1.055,0,0,1,1,.966,2.182,2.182,0,0,1-.213,1.05c-.822,2-1.675,4.036-2.5,6q-.474,1.13-.948,2.261c-.069.165-.132.331-.221.564-.049.128-.106.277-.176.458l.709.5a5.332,5.332,0,0,1,3.341-1.512,4.075,4.075,0,0,1,2.874,1.369,5.145,5.145,0,0,1,.6,5.943,4.257,4.257,0,0,1-3.585,2.162m-.028-7a2.123,2.123,0,0,0-1.726,2.25,2.56,2.56,0,0,0,.7,1.789,1.538,1.538,0,0,0,1.079.484h.048a2.092,2.092,0,0,0,1.709-2.251,2.567,2.567,0,0,0-.679-1.8,1.529,1.529,0,0,0-1.077-.476Zm-9.17-11.1a1.539,1.539,0,0,0-1.085.5,2.561,2.561,0,0,0-.651,1.825l0,.1a1.34,1.34,0,0,0,.245.913c.05.056.1.116.156.178.382.438.815.935,1.354.935s.975-.506,1.35-.947c.056-.065.11-.129.162-.188a1.156,1.156,0,0,0,.229-.748c0-.029,0-.056,0-.076l.007-.037v-.031a2.734,2.734,0,0,0-.7-1.954,1.479,1.479,0,0,0-1.061-.471h-.016Z" transform="translate(-186.774 -41.943)" fill="#fff"/>
      <path id="Caminho_10" data-name="Caminho 10" d="M50.79,185.791q-4.618,0-9.237,0a1.632,1.632,0,0,1-1.187-.391,1.16,1.16,0,0,1-.3-.866c.011-.793.531-1.2,1.546-1.2q2.142,0,4.283,0H57.353q2.236,0,4.472,0c1.252,0,1.379.715,1.421.948a1.181,1.181,0,0,1-.983,1.471,2.545,2.545,0,0,1-.494.035l-10.98,0" transform="translate(-31.082 -142.233)" fill="#fff"/>
      <path id="Caminho_11" data-name="Caminho 11" d="M51.19,222.664H46.1q-2.308,0-4.616,0c-1.16,0-1.337-.627-1.4-.831a1.194,1.194,0,0,1,.965-1.579,3.44,3.44,0,0,1,.662-.043l11.3,0,8.584,0c1.349,0,1.584.571,1.638,1.067a1.227,1.227,0,0,1-.251.977,1.466,1.466,0,0,1-1.12.407q-1.647.011-3.294.01l-7.376,0" transform="translate(-31.054 -170.841)" fill="#fff"/>
      <path id="Caminho_12" data-name="Caminho 12" d="M71.751,259.76c-1.41,0-2.493-.006-3.511-.021a2.492,2.492,0,0,1-1.2-.289,1.05,1.05,0,0,1-.428-1.259,1.1,1.1,0,0,1,1.176-.886c1.624-.008,3.248-.008,4.872-.009h2.734l2.031,0,2.029,0c1.2,0,2.185,0,3.086.015a1.322,1.322,0,0,1,1.1.509,1.223,1.223,0,0,1,.13,1.119c-.114.349-.4.813-1.53.818q-1.432.006-2.864.006l-3.842,0-1.89,0-1.888,0" transform="translate(-51.632 -199.614)" fill="#fff"/>
      <path id="Caminho_13" data-name="Caminho 13" d="M71.085,148.744q-1.5,0-3.005-.008c-1.05-.006-1.318-.429-1.451-.885a1.2,1.2,0,0,1,.114-.958,1.147,1.147,0,0,1,.751-.537,4.373,4.373,0,0,1,.9-.071l1.665,0q2.455,0,4.911,0c2.756,0,5.01.006,7.09.019a2.839,2.839,0,0,1,1.363.31,1.078,1.078,0,0,1,.346,1.34c-.108.338-.358.787-1.273.788l-3.255,0H74.757v0l-3.672,0" transform="translate(-51.652 -113.488)" fill="#fff"/>
      <path id="Caminho_14" data-name="Caminho 14" d="M96.381,111.758q-.829,0-1.657-.006c-.65-.006-1.425-.223-1.423-1.226s.78-1.222,1.432-1.225q2.075-.01,4.151-.01,2.113,0,4.225.009a1.607,1.607,0,0,1,1.169.389,1.171,1.171,0,0,1,.3.879c-.018.781-.515,1.179-1.476,1.186q-.822.005-1.644,0l-2.543,0-2.529,0" transform="translate(-72.386 -84.791)" fill="#fff"/>
      <path id="Caminho_15" data-name="Caminho 15" d="M98.87,296.654q-2.074,0-4.147-.009c-.65,0-1.425-.218-1.425-1.228s.78-1.218,1.433-1.224q.827-.008,1.653-.007l2.533,0,2.534,0q.826,0,1.652.005c.959.007,1.452.41,1.467,1.2a1.17,1.17,0,0,1-.293.874,1.625,1.625,0,0,1-1.178.384q-2.115.007-4.23.008" transform="translate(-72.383 -228.239)" fill="#fff"/>
      <path id="Caminho_16" data-name="Caminho 16" d="M217.919,253.275a.851.851,0,0,1-.226-.031,1.876,1.876,0,0,1-1.073-.683,2.349,2.349,0,0,0-1.129-1.035l-.106-.058a16.008,16.008,0,0,1-2.762-1.793,1.042,1.042,0,0,1-.381-.783,1.25,1.25,0,0,1,.4-.931,1.134,1.134,0,0,1,.789-.341,1.542,1.542,0,0,1,1.006.453c.236.212.49.4.785.622.15.112.315.235.5.378l.722.557v-.912c0-.421,0-.824,0-1.213.006-1.1.013-2.135-.04-3.151-.027-.524-.71-.886-1-1.018a4.537,4.537,0,0,1-2.645-3.088,4.289,4.289,0,0,1,.954-3.726,3.407,3.407,0,0,1,.933-.828c.1-.054.2-.106.3-.157a3.105,3.105,0,0,0,1.853-1.916.651.651,0,0,1,.659-.367,1.019,1.019,0,0,1,.338.057,1.761,1.761,0,0,1,.953.729,1.985,1.985,0,0,0,1.054,1.052l.095.052a10.387,10.387,0,0,1,2.218,1.516,1.129,1.129,0,0,1,.377.836,1.236,1.236,0,0,1-.434.89,1.129,1.129,0,0,1-.765.308,1.52,1.52,0,0,1-1.024-.464c-.09-.086-.183-.169-.323-.293l-.284-.254-.748-.67v1c0,.336,0,.656,0,.964-.006.822-.011,1.6.03,2.359a1.4,1.4,0,0,0,.71.941c.318.23.656.438.983.639a6.971,6.971,0,0,1,1.627,1.222,4.564,4.564,0,0,1,1.085,4.3,4.708,4.708,0,0,1-3.3,3.167,1.806,1.806,0,0,0-1.383,1.131.791.791,0,0,1-.747.535m1.028-3.852.613-.243a1.912,1.912,0,0,0,1.448-1.805,2.437,2.437,0,0,0-1.4-2.288l-.66-.354Z" transform="translate(-164.664 -180.965)" fill="#fff"/>
    </g>
  </g>
</svg>
