<svg xmlns="http://www.w3.org/2000/svg" xmlns:xlink="http://www.w3.org/1999/xlink" width="80" height="74.537" viewBox="0 0 80 74.537">
  <defs>
    <clipPath id="clip-path">
      <rect id="Retângulo_46" data-name="Retângulo 46" width="80" height="74.537" fill="none"/>
    </clipPath>
  </defs>
  <g id="icon-10" clip-path="url(#clip-path)">
    <path id="Caminho_164" data-name="Caminho 164" d="M79.478,37.165H103.9a1.574,1.574,0,0,0,1.524-1.582,1.608,1.608,0,0,0-1.524-1.676H79.478a1.629,1.629,0,0,0,0,3.259" transform="translate(-53.439 -23.269)" fill="#ff8a54"/>
    <path id="Caminho_165" data-name="Caminho 165" d="M66.728,94.028A1.584,1.584,0,0,0,68.267,92.4a1.644,1.644,0,0,0-1.539-1.621H42.54A1.648,1.648,0,0,0,40.909,92.4v6.138a1.648,1.648,0,0,0,1.631,1.623H78.564a1.63,1.63,0,0,0,1.547-1.623v-6.08a1.293,1.293,0,0,0-.235-1.077,1.547,1.547,0,0,0-1.226-.6H71.18A1.626,1.626,0,0,0,69.633,92.4a1.587,1.587,0,0,0,1.547,1.623h5.845v2.9H44.165v-2.9Z" transform="translate(-28.075 -62.303)" fill="#ff8a54"/>
    <path id="Caminho_166" data-name="Caminho 166" d="M81.015,142.487a1.621,1.621,0,0,0-1.628-1.684H43.514a1.6,1.6,0,0,0-1.537,1.684,1.579,1.579,0,0,0,1.537,1.582H79.387a1.608,1.608,0,0,0,1.628-1.582" transform="translate(-28.808 -96.63)" fill="#ff8a54"/>
    <path id="Caminho_167" data-name="Caminho 167" d="M65.019,57.682a1.625,1.625,0,0,1-1.613,1.56H22.416a1.642,1.642,0,0,1-1.625-1.618,1.625,1.625,0,0,1,1.625-1.537H61.947V3.076H16.607V15.213a1.583,1.583,0,0,1-1.623,1.618H3.254V56.087H17.906a1.578,1.578,0,1,1,0,3.155H1.625A1.645,1.645,0,0,1,0,57.624V15.292a2.223,2.223,0,0,1,.468-1.148L7.559,6.894,13.9.331A1.836,1.836,0,0,1,14.984,0H63.406a1.583,1.583,0,0,1,1.618,1.539ZM13.442,13.846V5.488l-8.08,8.358Z" fill="#ff8a54"/>
    <path id="Caminho_168" data-name="Caminho 168" d="M87.843,23.594H85.826a1.634,1.634,0,1,0,0,3.269h1.307V80.434H28.687v-1.3a1.637,1.637,0,0,0-3.274,0v2.013A2.567,2.567,0,0,0,27.979,83.7H87.843a2.566,2.566,0,0,0,2.563-2.561V26.157a2.565,2.565,0,0,0-2.563-2.563" transform="translate(-17.44 -16.192)" fill="#ff8a54"/>
    <path id="Caminho_169" data-name="Caminho 169" d="M110.263,45.987h-2.017a1.634,1.634,0,1,0,0,3.269h1.307v53.572H51.107V101.52a1.637,1.637,0,0,0-3.274,0v2.015A2.567,2.567,0,0,0,50.4,106.1h59.864a2.566,2.566,0,0,0,2.563-2.561V48.545a2.564,2.564,0,0,0-2.563-2.558" transform="translate(-32.827 -31.56)" fill="#ff8a54"/>
  </g>
</svg>
