<svg xmlns="http://www.w3.org/2000/svg" xmlns:xlink="http://www.w3.org/1999/xlink" width="85" height="85.004" viewBox="0 0 85 85.004">
  <defs>
    <clipPath id="clip-path">
      <rect id="Retângulo_39" data-name="Retângulo 39" width="85" height="85.004" fill="none"/>
    </clipPath>
  </defs>
  <g id="icon-03" clip-path="url(#clip-path)">
    <path id="Caminho_109" data-name="Caminho 109" d="M88.171,35.04a36.809,36.809,0,0,0-52.448,0,37.191,37.191,0,0,0,0,52.674A37.156,37.156,0,0,0,99.1,61.377,36.936,36.936,0,0,0,88.171,35.04M86.739,86.282A35.088,35.088,0,0,1,37.228,36.55a11.082,11.082,0,0,1,1.981-1.83l1.664,2.707a2.292,2.292,0,0,1,.314,1.752l-1.978,8.513a3.515,3.515,0,0,0,.874,3.18L48,58.992a3.3,3.3,0,0,0,2.53,1.04l.325-.012,5.942-.714,5.861,4.938-1.824,4.932.16.874.874,1.51a1.156,1.156,0,0,0,.976.508l.526-.113a1.251,1.251,0,0,0,.4-1.51l-.639-1.034,2.46-6.6,9.9,1.356,8.71,6.2a.979.979,0,0,1,.558.874,1.7,1.7,0,0,1-.319.956L67.808,92.01H67.73l-1.191-.874v-.081L68.682,79.28a2.625,2.625,0,0,0-.081-.8l-2.614-4.3a1.029,1.029,0,0,0-.938-.508l-.488.107a1.086,1.086,0,0,0-.4,1.51l2.376,3.982L64.4,90.653a2.294,2.294,0,0,0,.953,2.231l1.185.956a2.66,2.66,0,0,0,1.269.395,2.09,2.09,0,0,0,1.664-.8L86.109,73.625a3.56,3.56,0,0,0,.79-2.7,4.073,4.073,0,0,0-1.342-2.393L76.6,62.251l-.473-.16L65.035,60.5l-.18-.014a1.014,1.014,0,0,0-1,.729l-.4.955L57.829,57.4l-.793-.323-4.2.555-.16-3.735a1.283,1.283,0,0,1,.95-1.275l7.525-1.191.081,2.7a1.191,1.191,0,0,0,1.1,1.115,1.134,1.134,0,0,0,1.112-1.115l-.081-3.5L67.73,45.7a1.066,1.066,0,0,0-.16-1.589l-.726-.287a1.332,1.332,0,0,0-.857.366L61.549,49.28l-8.318,1.357a3.512,3.512,0,0,0-2.849,3.575l.154,3.825h-.081a1.165,1.165,0,0,1-.944-.4l-7.926-8.191a1.282,1.282,0,0,1-.319-1.2l1.984-8.435a4.239,4.239,0,0,0-.633-3.5l-1.743-2.858a35.023,35.023,0,0,1,5.463-3.421l1.432,2.384a.993.993,0,0,0,.892.529l.532-.128,5.149-2.152,4.833-.241a.545.545,0,0,1,.479.241c.151.081.232.16.232.482l-.314.473-4.278,2.146a.9.9,0,0,0-.56.956,1.072,1.072,0,0,0,.56,1.034l6.892,3.979.479.134.4-.055c.311-.078.471-.313.712-.633l1.664-4.38,7.525,4.7v.081l-.081.154-3.407,1.034a1.2,1.2,0,0,0-.711,1.432,1.266,1.266,0,0,0,1.031.8l.314-.081L73.431,41.8a2.343,2.343,0,0,0,1.5-1.911,2.206,2.206,0,0,0-1.1-2.146l-8.638-5.414-.485-.134-.386.055a1.25,1.25,0,0,0-.712.56l-1.664,4.371-3.959-2.225,2.376-1.2a2.791,2.791,0,0,0,1.583-2.225,3.214,3.214,0,0,0-.712-2.306,3.061,3.061,0,0,0-2.143-.877l-5.071.241-.392.076-4.438,1.911-.793-1.35A35.058,35.058,0,0,1,86.739,86.282" transform="translate(-19.447 -18.874)" fill="#ff8a54"/>
    <path id="Caminho_110" data-name="Caminho 110" d="M2.323,42.5A40.22,40.22,0,0,1,42.5,2.327a40.771,40.771,0,0,1,7.145.63A1.161,1.161,0,0,0,50.057.671,42.539,42.539,0,0,0,1.452,53.56a1.164,1.164,0,0,0,1.121.863l.3-.041A1.164,1.164,0,0,0,3.7,52.959,40.327,40.327,0,0,1,2.323,42.5" fill="#ff8a54"/>
    <path id="Caminho_111" data-name="Caminho 111" d="M84.024,296.678A40.2,40.2,0,0,1,25.006,283.2a1.161,1.161,0,1,0-2.045,1.1,42.518,42.518,0,0,0,62.43,14.255,1.161,1.161,0,0,0-1.368-1.876" transform="translate(-17.902 -221.668)" fill="#ff8a54"/>
    <path id="Caminho_112" data-name="Caminho 112" d="M328.918,56.1a1.162,1.162,0,0,0-1.638,1.65,40.211,40.211,0,0,1,8.391,44.841,1.16,1.16,0,0,0,.587,1.534l.474.1a1.163,1.163,0,0,0,1.06-.688A42.547,42.547,0,0,0,328.918,56.1" transform="translate(-256.456 -43.741)" fill="#ff8a54"/>
    <path id="Caminho_113" data-name="Caminho 113" d="M247.654,10.275a40.162,40.162,0,0,1,6.108,2.228l.482.107a1.163,1.163,0,0,0,.491-2.219,42.71,42.71,0,0,0-6.462-2.355,1.162,1.162,0,1,0-.619,2.239" transform="translate(-193.596 -6.27)" fill="#ff8a54"/>
  </g>
</svg>
