<svg xmlns="http://www.w3.org/2000/svg" xmlns:xlink="http://www.w3.org/1999/xlink" width="90" height="69.519" viewBox="0 0 90 69.519">
  <defs>
    <clipPath id="clip-path">
      <rect id="Retângulo_40" data-name="Retângulo 40" width="90" height="69.519" fill="none"/>
    </clipPath>
  </defs>
  <g id="icon-04" clip-path="url(#clip-path)">
    <path id="Caminho_114" data-name="Caminho 114" d="M235.824,41.4H254.19a1.212,1.212,0,1,0,0-2.42H235.824a1.282,1.282,0,0,0-1.291,1.21,1.414,1.414,0,0,0,1.291,1.21" transform="translate(-180.993 -30.085)" fill="#ff8a54"/>
    <path id="Caminho_115" data-name="Caminho 115" d="M234.534,64.425a1.279,1.279,0,0,0,1.283,1.21h25.6a1.285,1.285,0,0,0,1.286-1.21,1.183,1.183,0,0,0-1.286-1.21h-25.6a1.278,1.278,0,0,0-1.283,1.21" transform="translate(-180.994 -48.784)" fill="#ff8a54"/>
    <path id="Caminho_116" data-name="Caminho 116" d="M294.064,195.54H304.6a1.212,1.212,0,1,0,0-2.42H294.064a1.282,1.282,0,0,0-1.291,1.21,1.414,1.414,0,0,0,1.291,1.21" transform="translate(-225.938 -149.034)" fill="#ff8a54"/>
    <path id="Caminho_117" data-name="Caminho 117" d="M294.716,217.35h-.659a1.212,1.212,0,1,0,0,2.42h.659A1.285,1.285,0,0,0,296,218.56a1.183,1.183,0,0,0-1.286-1.21" transform="translate(-225.938 -167.733)" fill="#ff8a54"/>
    <path id="Caminho_118" data-name="Caminho 118" d="M87.143,31.728H95.99a1.212,1.212,0,1,0,0-2.42H87.143a1.282,1.282,0,0,0-1.291,1.21,1.413,1.413,0,0,0,1.291,1.21" transform="translate(-66.253 -22.617)" fill="#ff8a54"/>
    <path id="Caminho_119" data-name="Caminho 119" d="M87.794,53.538h-.659a1.212,1.212,0,1,0,0,2.42h.659a1.285,1.285,0,0,0,1.286-1.21,1.183,1.183,0,0,0-1.286-1.21" transform="translate(-66.253 -41.316)" fill="#ff8a54"/>
    <path id="Caminho_120" data-name="Caminho 120" d="M109.206,53.538h-2.187a1.212,1.212,0,1,0,0,2.42h2.187a1.284,1.284,0,0,0,1.283-1.21,1.181,1.181,0,0,0-1.283-1.21" transform="translate(-81.598 -41.316)" fill="#ff8a54"/>
    <path id="Caminho_121" data-name="Caminho 121" d="M323.41,217.35H315.7a1.212,1.212,0,1,0,0,2.42h7.71a1.284,1.284,0,0,0,1.283-1.21,1.181,1.181,0,0,0-1.283-1.21" transform="translate(-242.641 -167.733)" fill="#ff8a54"/>
    <path id="Caminho_122" data-name="Caminho 122" d="M116.679,268.231H106.145c-.608,0-1.118.551-1.291,1.373a1.361,1.361,0,0,0,1.291,1.37h10.534a1.374,1.374,0,0,0,0-2.743" transform="translate(-80.918 -206.998)" fill="#ff8a54"/>
    <path id="Caminho_123" data-name="Caminho 123" d="M105.612,243.512h7.71a1.258,1.258,0,0,0,1.283-1.373,1.363,1.363,0,0,0-1.283-1.37h-7.71a1.374,1.374,0,0,0,0,2.743" transform="translate(-80.512 -185.805)" fill="#ff8a54"/>
    <path id="Caminho_124" data-name="Caminho 124" d="M139.331,131.888H120.905a1.212,1.212,0,1,0,0,2.42h18.425a1.419,1.419,0,0,0,1.3-1.21,1.287,1.287,0,0,0-1.3-1.21" transform="translate(-92.31 -101.78)" fill="#ff8a54"/>
    <path id="Caminho_125" data-name="Caminho 125" d="M92.044,134.309h1.389a1.419,1.419,0,0,0,1.3-1.21,1.287,1.287,0,0,0-1.3-1.21H92.044a1.212,1.212,0,1,0,0,2.42" transform="translate(-70.036 -101.781)" fill="#ff8a54"/>
    <path id="Caminho_126" data-name="Caminho 126" d="M104.588,156.119H92.239a1.212,1.212,0,1,0,0,2.42h12.349a1.282,1.282,0,0,0,1.283-1.21,1.181,1.181,0,0,0-1.283-1.21" transform="translate(-70.192 -120.48)" fill="#ff8a54"/>
    <path id="Caminho_127" data-name="Caminho 127" d="M55.938,250.713a.713.713,0,0,0-.939.32.766.766,0,0,0,.176.893l.071.049c.008.005.127.065.393.22l.3.071.6-.364a.728.728,0,0,0-.176-.952,4.5,4.5,0,0,0-.421-.236" transform="translate(-42.387 -193.425)" fill="#ff8a54"/>
    <path id="Caminho_128" data-name="Caminho 128" d="M51.646,243.55a6.912,6.912,0,0,0-1.633-1.058,11.35,11.35,0,0,0-2.992-.884,17.181,17.181,0,0,0-2.629-.217l-.524.176-.062.057-.138.537.008.076a15.6,15.6,0,0,0,.5,2.534,8.727,8.727,0,0,0,2.428,4.343,3.28,3.28,0,0,0,.882.583,4.826,4.826,0,0,0,2.279.4,4.5,4.5,0,0,0,1.614-.331,3.172,3.172,0,0,1,.073.746.607.607,0,0,0,.315.57l.2.043.366-.133a1.288,1.288,0,0,0,.469-1.174l-.024-.1c-.071-.29-.149-.6-.212-.814a4.858,4.858,0,0,0-.914-5.358m.095,3.749a12.689,12.689,0,0,0-2.626-2.509l-.1-.062a.642.642,0,0,0-.808.168l-.2.477.277.513A10.769,10.769,0,0,1,51,248.628a4.317,4.317,0,0,1-1.148.241,3.206,3.206,0,0,1-1.617-.277h0l-.583-.393c-1.459-1.308-2.124-3.79-2.412-5.371a12.4,12.4,0,0,1,4.406.99,5.17,5.17,0,0,1,1.2.765,3.14,3.14,0,0,1,.893,2.162Z" transform="translate(-33.699 -186.284)" fill="#ff8a54"/>
    <path id="Caminho_129" data-name="Caminho 129" d="M29.578,34.092l.548.225.54-.217.214-.513-.217-.518c-.019-.016-1.942-1.921-1.446-3.928A2.775,2.775,0,0,1,30.9,27.1a5.171,5.171,0,0,1,2.745-.258c1.167.193,1.8.781,1.788,1.039l-.174.041h0l-.282-.163a.758.758,0,0,0-1.036.225l-.092.627.3.38.163.136-.049.225-.339.5-.361-.125a2.421,2.421,0,0,0-1.983-1.033,2.229,2.229,0,0,0-.7.111,1.89,1.89,0,0,0-1.27,1.522l.182.608.426.228h.011l.111.008a.678.678,0,0,0,.724-.6l.277-.309.228-.038c.336,0,.423.092.686.364l.212.209a1.67,1.67,0,0,0,1.343.629A1.967,1.967,0,0,0,35.8,29.442l.464-.217a1.586,1.586,0,0,0,.692-1.131,1.994,1.994,0,0,0-.944-1.842,5.122,5.122,0,0,0-2.07-.841,5.977,5.977,0,0,0-4.273.708,4.705,4.705,0,0,0-1.953,2.669,4.9,4.9,0,0,0,.689,3.768,6.558,6.558,0,0,0,1.169,1.536" transform="translate(-21.286 -19.521)" fill="#ff8a54"/>
    <path id="Caminho_130" data-name="Caminho 130" d="M246.254,189.941c-.209-.3-.393-.572-.61-.9a.679.679,0,0,0-.822-.184l-.309.35.057.494.13.2c.163.247.315.48.48.716l.049.073a6.013,6.013,0,0,1,1.432,3.106,2.208,2.208,0,0,1-.675,1.725,2.8,2.8,0,0,1-1.888.819,2.725,2.725,0,0,1-1.964-.613,2.258,2.258,0,0,1-.912-1.66,8.177,8.177,0,0,1,1.2-3.727l.242-.488c.3-.6.6-1.213.852-1.842l.128.241a.664.664,0,0,0,.822.225l.342-.383-.051-.434c-.182-.342-.437-.83-.575-1.169a.927.927,0,0,0-.787-.458.8.8,0,0,0-.754.6,14.824,14.824,0,0,1-1.248,2.938l-.108.225a8.874,8.874,0,0,0-1.346,4.36,3.59,3.59,0,0,0,1.362,2.5,4.3,4.3,0,0,0,2.64.906h.268a4.045,4.045,0,0,0,2.71-1.215,3.366,3.366,0,0,0,1-2.648,6.861,6.861,0,0,0-1.6-3.66Z" transform="translate(-185.159 -143.566)" fill="#ff8a54"/>
    <path id="Caminho_131" data-name="Caminho 131" d="M53.216,214.319H22.849a5.966,5.966,0,0,0-5.958,5.957v8.678a5.966,5.966,0,0,0,5.958,5.957H53.216a5.965,5.965,0,0,0,5.957-5.957v-8.678a5.965,5.965,0,0,0-5.957-5.957M56.9,228.955a3.686,3.686,0,0,1-3.681,3.681H22.849a3.685,3.685,0,0,1-3.681-3.681v-8.678a3.685,3.685,0,0,1,3.681-3.681H53.216a3.686,3.686,0,0,1,3.681,3.681Z" transform="translate(-13.035 -165.393)" fill="#ff8a54"/>
    <path id="Caminho_132" data-name="Caminho 132" d="M129.666,118.772H101.4v-7.939a5.965,5.965,0,0,0-5.955-5.957H65.078a5.965,5.965,0,0,0-5.958,5.957v8.678a5.966,5.966,0,0,0,5.958,5.957H93.342v7.939a5.965,5.965,0,0,0,5.957,5.955h30.367a5.963,5.963,0,0,0,5.958-5.955v-8.676a5.964,5.964,0,0,0-5.958-5.96m-35.131,4.419H65.078a3.687,3.687,0,0,1-3.684-3.681v-8.678a3.687,3.687,0,0,1,3.684-3.681H95.445a3.686,3.686,0,0,1,3.681,3.681v8.55l-.036.434a3.745,3.745,0,0,1-.368,1.337l0,0a3.644,3.644,0,0,1-.773,1.038c-.026.024-.055.044-.081.067a3.612,3.612,0,0,1-1.042.656c-.029.012-.06.017-.089.028a3.651,3.651,0,0,1-1.29.245Zm38.815,10.216a3.687,3.687,0,0,1-3.684,3.681H99.3a3.686,3.686,0,0,1-3.681-3.681v-7.943a6.018,6.018,0,0,0,1.007-.116c.041-.008.079-.024.12-.034a5.873,5.873,0,0,0,.936-.292c.08-.032.154-.072.232-.108a5.831,5.831,0,0,0,.742-.4c.075-.048.148-.1.221-.149a5.9,5.9,0,0,0,.641-.529c.065-.061.131-.118.194-.182a5.906,5.906,0,0,0,.528-.64c.053-.073.114-.138.164-.213a5.473,5.473,0,0,0,.723-1.6c.015-.053.04-.1.054-.154h28.487a3.687,3.687,0,0,1,3.684,3.684Z" transform="translate(-45.624 -80.934)" fill="#ff8a54"/>
    <path id="Caminho_133" data-name="Caminho 133" d="M213.935,33.264H244.3a5.965,5.965,0,0,0,5.957-5.957V18.629a5.965,5.965,0,0,0-5.957-5.958H213.935a5.966,5.966,0,0,0-5.958,5.958v8.678a5.965,5.965,0,0,0,5.958,5.957m-3.684-14.636a3.687,3.687,0,0,1,3.684-3.682H244.3a3.687,3.687,0,0,1,3.681,3.682v8.678a3.686,3.686,0,0,1-3.681,3.681H213.935a3.687,3.687,0,0,1-3.684-3.681Z" transform="translate(-160.499 -9.778)" fill="#ff8a54"/>
    <path id="Caminho_134" data-name="Caminho 134" d="M36.325,20.594a5.965,5.965,0,0,0,5.957-5.957V5.959A5.965,5.965,0,0,0,36.325,0H5.958A5.966,5.966,0,0,0,0,5.959v8.678a5.966,5.966,0,0,0,5.958,5.957ZM2.273,14.637V5.959A3.687,3.687,0,0,1,5.958,2.277H36.325a3.686,3.686,0,0,1,3.681,3.682v8.678a3.686,3.686,0,0,1-3.681,3.681H5.958a3.687,3.687,0,0,1-3.684-3.681" transform="translate(0 -0.001)" fill="#ff8a54"/>
  </g>
</svg>
