<svg xmlns="http://www.w3.org/2000/svg" xmlns:xlink="http://www.w3.org/1999/xlink" width="90" height="81.287" viewBox="0 0 90 81.287">
  <defs>
    <clipPath id="clip-path">
      <rect id="Retângulo_43" data-name="Retângulo 43" width="90" height="81.287" fill="none"/>
    </clipPath>
  </defs>
  <g id="icon-07" clip-path="url(#clip-path)">
    <path id="Caminho_144" data-name="Caminho 144" d="M41.745,122.63l1.123,4.865h-7.1L36.8,122.63Zm8.967,10.3H27.831v-2.72H50.712ZM1.309,70.414A1.344,1.344,0,0,0,0,71.726v49.685a1.338,1.338,0,0,0,1.309,1.312H34.09l-1.121,4.961H26.435a1.254,1.254,0,0,0-1.309,1.219v5.327a1.254,1.254,0,0,0,1.309,1.219H52.022a1.237,1.237,0,0,0,1.216-1.219V128.9a1.237,1.237,0,0,0-1.216-1.219H45.394l-1.121-4.961H60.612a1.273,1.273,0,0,0,1.309-1.312,1.229,1.229,0,0,0-1.213-1.4h-58V73.038H37.361a1.312,1.312,0,0,0,0-2.624Z" transform="translate(0 -54.161)" fill="#ff8a54" fill-rule="evenodd"/>
    <path id="Caminho_145" data-name="Caminho 145" d="M150.436,267.046a1.363,1.363,0,0,0-1.351,1.32,1.435,1.435,0,0,0,1.351,1.312h7.129a1.428,1.428,0,0,0,1.351-1.312,1.358,1.358,0,0,0-1.351-1.32Z" transform="translate(-114.674 -205.408)" fill="#ff8a54" fill-rule="evenodd"/>
    <path id="Caminho_146" data-name="Caminho 146" d="M109.341,168.381h-3.564v-3.657h3.564Zm-4.848-6.222a1.385,1.385,0,0,0-1.284,1.284v6.222a1.294,1.294,0,0,0,1.284,1.182h6.039a1.225,1.225,0,0,0,1.275-1.182v-6.222a1.2,1.2,0,0,0-1.275-1.284Z" transform="translate(-79.387 -124.73)" fill="#ff8a54" fill-rule="evenodd"/>
    <path id="Caminho_147" data-name="Caminho 147" d="M157.091,168.381H153.42v-3.657h3.671Zm-5.017-6.222a1.354,1.354,0,0,0-1.354,1.284v6.222a1.273,1.273,0,0,0,1.354,1.182h6.369a1.263,1.263,0,0,0,1.346-1.182v-6.222a1.417,1.417,0,0,0-1.346-1.284Z" transform="translate(-115.932 -124.73)" fill="#ff8a54" fill-rule="evenodd"/>
    <path id="Caminho_148" data-name="Caminho 148" d="M204.63,168.381H200.91v-3.657h3.719Zm-5.059-6.222a1.419,1.419,0,0,0-1.34,1.284v6.222a1.33,1.33,0,0,0,1.34,1.182h6.3a1.256,1.256,0,0,0,1.332-1.182v-6.222a1.22,1.22,0,0,0-1.332-1.284Z" transform="translate(-152.475 -124.73)" fill="#ff8a54" fill-rule="evenodd"/>
    <path id="Caminho_149" data-name="Caminho 149" d="M71.839,23.49a18.031,18.031,0,0,0,15.541,12.4V57.613H23.734V23.49ZM88.969,0A17.851,17.851,0,0,0,71.282,16.223H59.018a1.271,1.271,0,0,0-1.306,1.3,1.253,1.253,0,0,0,1.306,1.213H71.093a15.54,15.54,0,0,0,.282,2.052H22.611A1.259,1.259,0,0,0,21.3,22V58.734a1.278,1.278,0,0,0,1.312,1.3H88.969a1.254,1.254,0,0,0,1.219-1.3V35.706a8.6,8.6,0,0,0,2.247-.377v30.21H82.516A1.26,1.26,0,0,0,81.2,66.752a1.279,1.279,0,0,0,1.315,1.3H93.75a1.331,1.331,0,0,0,1.3-1.3V34.493a15.559,15.559,0,0,0,5.338-3.173A18.4,18.4,0,0,0,106.383,20.6a1.5,1.5,0,0,0-1.219-1.121l-.3-.039a1.221,1.221,0,0,0-1.2,1.067,15.175,15.175,0,0,1-10.3,12.025h-.189a14.415,14.415,0,0,1-4.491.65,15.242,15.242,0,1,1,14.976-17.617,1.364,1.364,0,0,0,2.714-.282,17.388,17.388,0,0,0-5.9-10.814A17.832,17.832,0,0,0,88.969,0" transform="translate(-16.383 0)" fill="#ff8a54" fill-rule="evenodd"/>
    <path id="Caminho_150" data-name="Caminho 150" d="M278.079,36.58a5.348,5.348,0,0,1,5.225,5.459,5.453,5.453,0,0,1-5.383,5.454,5.459,5.459,0,0,1,0-10.913Zm-.251-5.454a1.263,1.263,0,0,0-1.3,1.29v1.577a8.464,8.464,0,0,0-3.345,1.475l-1.2-1.2a1.219,1.219,0,0,0-.943-.388,1.183,1.183,0,0,0-.92.388,1.313,1.313,0,0,0,0,1.85l1.208,1.2a7.485,7.485,0,0,0-1.388,3.331h-1.678a1.255,1.255,0,0,0-1.208,1.3,1.233,1.233,0,0,0,1.208,1.205h1.678a7.038,7.038,0,0,0,1.388,3.418l-1.208,1.109a1.408,1.408,0,0,0,0,1.85,1.333,1.333,0,0,0,.926.372,1.444,1.444,0,0,0,.938-.372l1.2-1.112a9.013,9.013,0,0,0,3.345,1.391v1.568a1.27,1.27,0,0,0,1.3,1.3,1.327,1.327,0,0,0,1.3-1.3V49.993a8.94,8.94,0,0,0,3.348-1.391l1.115,1.112a1.33,1.33,0,0,0,.929.372,1.078,1.078,0,0,0,.926-.372,1.235,1.235,0,0,0,0-1.85l-1.115-1.109a11.73,11.73,0,0,0,1.4-3.333H287.3a1.394,1.394,0,0,0,.093-2.773h-1.67a6.439,6.439,0,0,0-1.4-3.331l1.211-1.2a1.7,1.7,0,0,0,0-1.85,1.423,1.423,0,0,0-.977-.349,1.4,1.4,0,0,0-.974.349l-1.115,1.2a7.909,7.909,0,0,0-3.348-1.475V32.416a1.261,1.261,0,0,0-1.3-1.29" transform="translate(-205.409 -23.942)" fill="#ff8a54" fill-rule="evenodd"/>
    <path id="Caminho_151" data-name="Caminho 151" d="M301.613,63.071a1.348,1.348,0,0,1,1.368,1.36,1.371,1.371,0,0,1-2.742,0,1.35,1.35,0,0,1,1.374-1.36m0-2.455a3.812,3.812,0,1,0,3.764,3.815,3.691,3.691,0,0,0-3.764-3.815" transform="translate(-229.094 -46.625)" fill="#ff8a54" fill-rule="evenodd"/>
  </g>
</svg>
