<svg xmlns="http://www.w3.org/2000/svg" xmlns:xlink="http://www.w3.org/1999/xlink" width="127.424" height="141" viewBox="0 0 127.424 141">
  <defs>
    <clipPath id="clip-path">
      <rect id="Retângulo_7" data-name="Retângulo 7" width="127.424" height="141" transform="translate(0 0)" fill="#6b5cb5"/>
    </clipPath>
    <clipPath id="clip-path-2">
      <rect id="Retângulo_9" data-name="Retângulo 9" width="49.479" height="95" fill="#fff"/>
    </clipPath>
  </defs>
  <g id="icon-beneficios-05" transform="translate(100.712 -1551.011)">
    <g id="HEXÁGONO" transform="translate(-100.712 1551.011)" clip-path="url(#clip-path)">
      <path id="Caminho_23" data-name="Caminho 23" d="M0,45.166V95.834a19.833,19.833,0,0,0,9.916,17.175L53.8,138.343a19.831,19.831,0,0,0,19.833,0l43.879-25.334a19.831,19.831,0,0,0,9.916-17.175V45.166a19.832,19.832,0,0,0-9.916-17.175L73.628,2.657a19.833,19.833,0,0,0-19.833,0L9.916,27.991A19.832,19.832,0,0,0,0,45.166" transform="translate(0 0)" fill="#6b5cb5"/>
    </g>
    <g id="ícone" transform="translate(-61.739 1570.511)" clip-path="url(#clip-path-2)">
      <path id="Caminho_29" data-name="Caminho 29" d="M28.266,95Q18.118,95,7.971,95c-1.1,0-1.469-.388-1.476-1.534-.006-.9,0-1.791,0-2.723V89.211H3.421c-.6,0-1.2,0-1.8,0-1.243,0-1.6-.364-1.614-1.6C0,85.824,0,84.209.01,82.671c.01-1.195.36-1.542,1.559-1.547q.9,0,1.795,0l3.07,0V77.63H3.424q-.871,0-1.736,0c-1.31,0-1.67-.357-1.678-1.638C0,74.354,0,72.723.009,71.145c.008-1.273.336-1.6,1.593-1.6,1.759,0,3.519,0,5.3,0h7.82l-.686-.456C5.822,63.615,2.288,56.2,3.532,47.038,4.7,38.406,11.268,31.467,20.256,29.361l.454-.106-.341-.318c-.089-.083-.17-.161-.246-.235-.158-.152-.294-.283-.445-.408q-1.692-1.4-3.386-2.806-2.835-2.348-5.664-4.7a4.069,4.069,0,0,1,1.879-7.253,3.494,3.494,0,0,1,.643-.061,4.627,4.627,0,0,1,2.926,1.252c.934.761,1.85,1.525,2.82,2.335l1.3,1.081.356.3.051-.46c.012-.109.025-.207.037-.3a3.826,3.826,0,0,0,.046-.5c0-.652,0-1.3,0-1.956,0-1.04,0-2.115.01-3.171A1.147,1.147,0,1,1,22.982,12c.022,3.228.035,6.136-.026,9.037a1.55,1.55,0,0,1-.562,1.14.592.592,0,0,1-.238.04,1.849,1.849,0,0,1-1.013-.349c-1.519-1.194-3.03-2.453-4.491-3.671q-.78-.651-1.562-1.3l-.2-.165c-.172-.145-.35-.3-.537-.434a2.184,2.184,0,0,0-1.281-.469,1.687,1.687,0,0,0-1.3.634,1.616,1.616,0,0,0-.4,1.2,2.037,2.037,0,0,0,.758,1.368c.954.811,1.935,1.622,2.883,2.406l.992.821,1.656,1.374q2.8,2.323,5.6,4.64a2.368,2.368,0,0,0,1.48.7,2.362,2.362,0,0,0,1.479-.7c4.017-3.32,7.985-6.616,10.992-9.117a1.834,1.834,0,0,0,.491-2.7,1.63,1.63,0,0,0-1.281-.637,2.345,2.345,0,0,0-1.458.6q-1.7,1.4-3.39,2.806-1.359,1.129-2.72,2.254a4.264,4.264,0,0,1-.861.6,1.256,1.256,0,0,1-.529.127.974.974,0,0,1-.942-.894,4.062,4.062,0,0,1-.04-.777v-.2q0-6.853,0-13.706V2.348H22.992V3.465c0,.652,0,1.309,0,1.965-.007.971-.424,1.528-1.143,1.528H21.8c-.914-.027-1.11-.84-1.114-1.517,0-.436,0-.871.005-1.307.007-.827.014-1.682-.021-2.524A1.659,1.659,0,0,1,21.448,0h6.584a1.763,1.763,0,0,1,.774,1.711C28.784,5.476,28.787,9.3,28.79,13c0,1.271,0,5.539,0,5.539l1.8-1.49c1.026-.847,2-1.653,2.968-2.465a4.109,4.109,0,0,1,2.7-1.081c.125,0,.253.006.38.019A3.822,3.822,0,0,1,40.2,16.335a3.868,3.868,0,0,1-1.33,4.427c-2.045,1.717-4.137,3.447-6.159,5.121q-1.408,1.165-2.815,2.332c-.161.134-.319.272-.482.415l-.55.479.4.146c.486.178.977.345,1.451.506a27.609,27.609,0,0,1,2.968,1.135A21.231,21.231,0,0,1,45.93,46.729c.108.543.144,1.484-.825,1.685a1.46,1.46,0,0,1-.3.033c-.582,0-.969-.441-1.152-1.31A19.506,19.506,0,0,0,24.3,31.214a19.107,19.107,0,0,0-5.342.752C11.106,34.252,5.474,42.067,5.566,50.55A19.334,19.334,0,0,0,22.681,69.435a18.936,18.936,0,0,0,1.892.095A19.337,19.337,0,0,0,43.649,53.69c.009-.049.014-.1.019-.15s.008-.082.016-.122c.145-.711.586-1.153,1.15-1.153a1.134,1.134,0,0,1,.175.014,1.17,1.17,0,0,1,.819.5,1.221,1.221,0,0,1,.121,1l-.179.687a32.931,32.931,0,0,1-1.534,4.86A20.53,20.53,0,0,1,36.387,68.4c-.235.152-.466.31-.7.469a.333.333,0,0,0-.128.208c-.008.03-.02.073-.041.135l-.109.328h4.8l.794,0c.17,0,.339,0,.509,0,1.086.02,1.456.386,1.467,1.448.009.918.007,1.836,0,2.79,0,.427,0,1.553,0,1.553l3.093,0c.6,0,1.195,0,1.79,0,1.263.005,1.592.334,1.6,1.6.013,1.885.013,3.454,0,4.938-.011,1.167-.394,1.544-1.577,1.551q-.894.005-1.792,0l-3.061,0v3.491h4.581c1.573,0,1.85.273,1.853,1.82l0,.951c0,1.246.007,2.535-.007,3.8C49.455,94.615,49.074,95,47.958,95L28.266,95M8.837,92.627H47.111v-3.36H8.837ZM2.369,86.851H40.641v-3.43l-3.563,0c-.739,0-1.471,0-2.2,0-.589,0-1.578-.154-1.583-1.154a1.008,1.008,0,0,1,.272-.745,1.82,1.82,0,0,1,1.3-.4l4.811,0H47.1V77.7H8.849v3.421H18.993q4.548,0,9.1,0a1.584,1.584,0,0,1,1.04.323,1.029,1.029,0,0,1,.355.813c0,.687-.54,1.13-1.406,1.157-.094,0-.189,0-.284,0l-.456,0H2.369Zm0-11.59H40.632V71.889H2.366Z" transform="translate(0)" fill="#fff"/>
      <path id="Caminho_30" data-name="Caminho 30" d="M51.953,170.679a15.645,15.645,0,0,1,.04-31.29h.153a15.645,15.645,0,0,1-.041,31.29Zm.068-28.99a13.33,13.33,0,1,0,.069,0Z" transform="translate(-27.316 -104.656)" fill="#fff"/>
      <path id="Caminho_31" data-name="Caminho 31" d="M84.573,182.866a1.015,1.015,0,0,1-1.086-.977,6.992,6.992,0,0,1-.025-1.171c.006-.184.012-.368.012-.552v-.5l-.5.376c-.2-.148-.407-.293-.612-.439-.619-.44-1.259-.9-1.832-1.4a2.314,2.314,0,0,1-.514-1.11,1.028,1.028,0,0,1,.721-1.336,1.25,1.25,0,0,1,.423-.081,1.129,1.129,0,0,1,.95.629,3.531,3.531,0,0,0,2.847,1.3,2.536,2.536,0,0,0,1.39-.358,1.73,1.73,0,0,0-.835-3.18c-.257-.015-.511-.017-.7-.017l-.594,0c-.161,0-.322,0-.483-.007a4.082,4.082,0,0,1-3.9-3.308,3.956,3.956,0,0,1,2.711-4.554,1.1,1.1,0,0,0,.906-1.305,3.582,3.582,0,0,1,.076-1.12.983.983,0,0,1,1.038-.826c.053,0,.107,0,.163.008.481.045,1.023.313.967.921a2.518,2.518,0,0,0,1.683,2.843,4.068,4.068,0,0,1,1.389,1.806,1.039,1.039,0,0,1,.084.839,1.293,1.293,0,0,1-1.14.768,1.209,1.209,0,0,1-1.011-.7,3,3,0,0,0-2.5-1.236,2.018,2.018,0,0,0-1.412.481,2.046,2.046,0,0,0-.571,1.785,2.418,2.418,0,0,0,1.449,1.246,2.2,2.2,0,0,0,.747.109c.167,0,.339-.01.51-.021s.324-.02.483-.02l.1,0a4.056,4.056,0,0,1,3.913,3.4,3.958,3.958,0,0,1-2.664,4.425c-.811.259-1.1.673-1.007,1.428a3.7,3.7,0,0,1-.012.784,1.027,1.027,0,0,1-1.083,1.063h-.072" transform="translate(-59.895 -122.337)" fill="#fff"/>
    </g>
  </g>
</svg>
