<svg xmlns="http://www.w3.org/2000/svg" xmlns:xlink="http://www.w3.org/1999/xlink" width="127.424" height="141" viewBox="0 0 127.424 141">
  <defs>
    <clipPath id="clip-path">
      <rect id="Retângulo_12" data-name="Retângulo 12" width="127.424" height="141" fill="#274592"/>
    </clipPath>
    <clipPath id="clip-path-2">
      <rect id="Retângulo_14" data-name="Retângulo 14" width="90.018" height="90" fill="#fff"/>
    </clipPath>
  </defs>
  <g id="icon-beneficios-01" transform="translate(100.712 -1551)">
    <g id="icon-beneficios-01-2" data-name="icon-beneficios-01" transform="translate(-100.712 1551)" clip-path="url(#clip-path)">
      <path id="Caminho_34" data-name="Caminho 34" d="M0,45.166V95.834a19.833,19.833,0,0,0,9.916,17.175L53.8,138.343a19.831,19.831,0,0,0,19.833,0l43.879-25.334a19.831,19.831,0,0,0,9.916-17.175V45.166a19.832,19.832,0,0,0-9.916-17.175L73.628,2.657a19.833,19.833,0,0,0-19.833,0L9.916,27.991A19.832,19.832,0,0,0,0,45.166" transform="translate(0 0)" fill="#274592"/>
    </g>
    <g id="ícone" transform="translate(-82.009 1576.5)" clip-path="url(#clip-path-2)">
      <path id="Caminho_37" data-name="Caminho 37" d="M43.5,269.306c-.248-.135-.51-.257-.764-.375a4.861,4.861,0,0,1-1.582-.983,8.313,8.313,0,0,1-1.184-1.966c-.171-.352-.349-.715-.552-1.086l-.065-.119-.135,0c-2.732-.075-4.314-1.579-4.7-4.469l-.027-.2-.2-.008a4.989,4.989,0,0,1-3.564-1.393,4.633,4.633,0,0,1-1.244-3.665l.01-.2-.2-.039a4.846,4.846,0,0,1-3.51-2.42,1.491,1.491,0,0,0-.648-.51l-.075-.04a25.722,25.722,0,0,1-8.364-6.917,2.83,2.83,0,0,0-1-.716q-2.546-1.252-5.1-2.5c-3.078-1.507-6.262-3.065-9.382-4.617a3.552,3.552,0,0,1-.875-.723c-.112-.113-.227-.23-.346-.34v-.36c.393-.649.68-.892,1.046-.892a2.4,2.4,0,0,1,.986.31l2.258,1.1c4.2,2.049,8.543,4.167,12.8,6.285a4.614,4.614,0,0,1,1.428,1.241,22.963,22.963,0,0,0,6.555,5.6l.27.152.075-.3a6.708,6.708,0,0,1,2.642-3.456c.367-.309.746-.628,1.1-.966.93-.9,1.914-1.774,2.866-2.621l.459-.409a1.493,1.493,0,0,1,.971-.432.988.988,0,0,1,.736.338,1,1,0,0,1,.3.725,1.557,1.557,0,0,1-.593,1.015q-1.507,1.372-3.023,2.734-1.244,1.121-2.486,2.245a2.418,2.418,0,0,0-.836,2.537,2.146,2.146,0,0,0,1.766,1.667,2.287,2.287,0,0,0,.4.033,3.625,3.625,0,0,0,1.089-.188,2.029,2.029,0,0,1,.62-.115.949.949,0,0,1,.794.4,1.123,1.123,0,0,1-.052,1.441,2.3,2.3,0,0,0,1.809,3.77,2.683,2.683,0,0,0,1.59-.542,1.773,1.773,0,0,1,1-.439.968.968,0,0,1,.675.314c.474.455.466.943-.029,1.684a2.332,2.332,0,0,0,.2,2.976,2.425,2.425,0,0,0,1.713.677,2.558,2.558,0,0,0,1.357-.382,3.447,3.447,0,0,0,.347-.259,3.138,3.138,0,0,1,.289-.219,1.189,1.189,0,0,1,.633-.208,1.115,1.115,0,0,1,.913,1.638.593.593,0,0,1-.039.061c-.017.026-.034.051-.05.077-.823,1.411-.711,2.609.315,3.374a2.3,2.3,0,0,0,1.393.487,3.265,3.265,0,0,0,2.237-1.1l.157-.154-.415-.49c-.2-.238-.4-.479-.611-.713a4.29,4.29,0,0,1-.954-4.744,4.564,4.564,0,0,1,4.056-2.97c.167-.017.333-.043.5-.068l.033-.005a.331.331,0,0,0,.163-.08l.084-.056.021-.1a4.893,4.893,0,0,1,5-4.288l.189-.005.037-.185a4.908,4.908,0,0,1,5.053-4.369l.2-.011.025-.195a4.834,4.834,0,0,1,1.753-3.223,4.543,4.543,0,0,1,2.9-1.071,4.358,4.358,0,0,1,3.172,1.394c.692.727,1.337,1.478,2.02,2.274.308.359.619.721.939,1.086l.125.143.166-.091a10.751,10.751,0,0,0,4.063-3.611,7.982,7.982,0,0,1,3.639-2.971c2.509-1.161,5.027-2.407,7.462-3.612l1.911-.944a1.773,1.773,0,0,1,.769-.216,1.012,1.012,0,0,1,.784.4.988.988,0,0,1,.25.848,1.345,1.345,0,0,1-.769.888c-1.485.742-3,1.48-4.474,2.193l-1.788.87c-.111.054-.221.11-.332.165-.251.126-.511.257-.77.365a13.076,13.076,0,0,0-5.854,4.36,10.906,10.906,0,0,1-2.555,2.234c-.462.328-.94.667-1.38,1.029a1.848,1.848,0,0,0-.694.892,4.711,4.711,0,0,1-4.736,4.005.611.611,0,0,0-.183.047l-.063.022-.134.043-.026.139a4.928,4.928,0,0,1-4.99,4.353l-.166.011-.046.16c-.874,3.046-1.947,3.982-4.994,4.354l-.14.017-.051.132c-1.172,3.011-2.528,4.354-4.4,4.354a7.326,7.326,0,0,1-3.06-.843l-.108-.051-2.963,1.576Zm5.487-10.183a2.4,2.4,0,0,0-1.581.643,2.233,2.233,0,0,0-.253,3.3l.135.164c.658.8,1.338,1.625,2.085,2.368a4.185,4.185,0,0,0,1.045.695c.108.056.205.106.281.153l.066.04.077-.006a2.709,2.709,0,0,0,2.466-1.462,2.086,2.086,0,0,0-.285-2.4c-.668-.806-1.466-1.753-2.315-2.671a2.334,2.334,0,0,0-1.721-.819m5.586-4.536a2.606,2.606,0,0,0-2.525,1.386,2.093,2.093,0,0,0,.237,2.413c.728.9,1.508,1.8,2.317,2.684a2.365,2.365,0,0,0,1.737.824,2.411,2.411,0,0,0,1.581-.632,2.266,2.266,0,0,0,.244-3.312c-.728-.89-1.446-1.753-2.23-2.538a3.88,3.88,0,0,0-1-.665c-.093-.047-.173-.088-.233-.125l-.059-.036Zm5.074-4.6a2.728,2.728,0,0,0-2.387,1.452,2.072,2.072,0,0,0,.264,2.4c.736.889,1.533,1.835,2.377,2.738a2.256,2.256,0,0,0,1.659.78,2.43,2.43,0,0,0,1.576-.636,2.218,2.218,0,0,0,.338-3.223,34.87,34.87,0,0,0-2.4-2.733,3.216,3.216,0,0,0-1-.609c-.112-.05-.215-.1-.3-.142l-.064-.035Zm5.1-4.531a2.275,2.275,0,0,0-.982.235,2.44,2.44,0,0,0-1.505,2.4v.038l.011.036a1.2,1.2,0,0,1,.026.123,1.625,1.625,0,0,0,.286.743l.213.261a37.517,37.517,0,0,0,2.636,3,1.826,1.826,0,0,0,1.308.535h0a2.576,2.576,0,0,0,1.724-.746,2.153,2.153,0,0,0,.366-2.942,38.383,38.383,0,0,0-2.673-3.07,1.926,1.926,0,0,0-1.41-.617" transform="translate(0 -179.306)" fill="#fff"/>
      <path id="Caminho_38" data-name="Caminho 38" d="M53.815,160.788a5.218,5.218,0,0,1-2.986-.995c-1.357-.951-2.731-1.927-4.059-2.872q-1.034-.735-2.068-1.469c-.177-.126-.357-.247-.55-.377l-.445-.3-4.6,4.184c-.072.065-.143.132-.214.2a6.493,6.493,0,0,1-.563.489,1.253,1.253,0,0,1-.738.272,1.024,1.024,0,0,1-.77-.371,1.05,1.05,0,0,1,.08-1.5c.783-.747,1.6-1.486,2.392-2.2q.465-.42.928-.841l.467-.427c.423-.388.86-.789,1.3-1.171a2.658,2.658,0,0,1,1.733-.774,2.792,2.792,0,0,1,1.59.592c.8.561,1.6,1.13,2.4,1.7,1.41,1.006,2.867,2.046,4.332,3.025a3.774,3.774,0,0,0,1.992.593l.1,0a2.115,2.115,0,0,0,1.912-1.636,2.392,2.392,0,0,0-.632-2.51c-1.78-1.818-3.386-3.457-5.035-5.1-.3-.3-.6-.6-.892-.9a30.874,30.874,0,0,0-2.9-2.713,15.551,15.551,0,0,0-9.828-3.419,19.9,19.9,0,0,0-3.788.381c-2.145.417-4.45.792-7.045,1.146a2.68,2.68,0,0,1-.363.024,3.348,3.348,0,0,1-1.361-.293c-7.187-3.338-14.741-6.88-23.094-10.83a3.173,3.173,0,0,1-.8-.636c-.1-.1-.2-.2-.312-.3v-.52c.461-.6.723-.794,1.059-.794a2.7,2.7,0,0,1,1.059.336l4.5,2.108c5.913,2.773,12.027,5.641,18.05,8.441a2.764,2.764,0,0,0,1.14.232,2.919,2.919,0,0,0,.416-.029c1.124-.163,2.264-.353,3.366-.536,1.724-.287,3.506-.583,5.267-.785A19.027,19.027,0,0,1,37,140.086a17.609,17.609,0,0,1,11.387,4.243,1.679,1.679,0,0,0,1.113.459,2.155,2.155,0,0,0,.6-.1,19.643,19.643,0,0,1,5.439-.8,16.635,16.635,0,0,1,6.28,1.219,6.043,6.043,0,0,0,6.058-.61c4.676-2.862,9.5-5.655,14.173-8.356q2.738-1.584,5.472-3.174l.149-.088c.124-.074.249-.148.377-.215a1.605,1.605,0,0,1,.739-.2.967.967,0,0,1,.871.521,1.1,1.1,0,0,1-.513,1.554c-1.908,1.133-3.857,2.269-5.743,3.367l-1.343.782q-2.176,1.269-4.354,2.534c-3.528,2.05-7.175,4.171-10.746,6.287a4.218,4.218,0,0,1-2.174.66,4.11,4.11,0,0,1-1.484-.293,21.162,21.162,0,0,0-7.644-1.758c-.23,0-.462.006-.689.018-.774.041-1.551.132-2.374.227-.4.046-.806.094-1.239.138l-.435.045.277.339c.107.131.193.241.268.336a4.938,4.938,0,0,0,.355.421q1.012,1.031,2.028,2.057,1.5,1.52,3,3.046a4.609,4.609,0,0,1,.422,6.4,4.447,4.447,0,0,1-3.453,1.647" transform="translate(0 -99.628)" fill="#fff"/>
      <path id="Caminho_39" data-name="Caminho 39" d="M132.222,38.1a7.162,7.162,0,0,1-2.353-.695c-.459-.179-1.03-.4-1.716-.655-7.873-2.909-12.5-8.622-13.743-16.979a17.912,17.912,0,0,1-.124-2.683c0-.212,0-.424,0-.635-.013-2.981-.013-6.182,0-10.075.006-2.1.817-3.082,2.892-3.495q1.586-.316,3.172-.637c3.781-.762,7.69-1.549,11.553-2.2A3.428,3.428,0,0,1,132.47,0a9.664,9.664,0,0,1,2.085.326c.3.068.6.139.9.2,2.569.49,5.178,1.006,7.7,1.505q1.951.386,3.9.77c2.278.446,3.127,1.471,3.131,3.78q.008,4.2,0,8.4v.036a4.625,4.625,0,0,1-.047.8.946.946,0,0,1-1,.854H149.1a.954.954,0,0,1-1.03-.861,4.419,4.419,0,0,1-.049-.82l0-1.935c0-2.181-.01-4.435.012-6.652a1.265,1.265,0,0,0-1.174-1.424q-2.44-.468-4.878-.949c-2.973-.583-6.046-1.185-9.078-1.735a3.281,3.281,0,0,0-.59-.05,8.571,8.571,0,0,0-1.627.213l-.288.056c-2.092.4-4.217.811-6.271,1.211-2.119.413-4.311.84-6.468,1.248a1.288,1.288,0,0,0-1.2,1.485c.029,1.473.023,2.973.018,4.422q0,.766,0,1.532l-.1,0,.009.237c.029.771.036,1.56.042,2.322a35.792,35.792,0,0,0,.287,5.109c1.037,6.752,4.844,11.564,11.315,14.3,1.062.449,2.169.828,3.24,1.194l.337.116a2.324,2.324,0,0,0,.713.137.992.992,0,0,0,.383-.069c.631-.264,1.284-.518,1.915-.764a32.365,32.365,0,0,0,4.958-2.26,17.349,17.349,0,0,0,7.994-11.209c.014-.056.026-.113.039-.169a3.177,3.177,0,0,1,.084-.325,1.073,1.073,0,0,1,1.013-.845,1.3,1.3,0,0,1,.262.028,1.072,1.072,0,0,1,.708.453.98.98,0,0,1,.1.773,25.165,25.165,0,0,1-1.2,3.917A20.035,20.035,0,0,1,136.45,36.721c-.742.268-1.353.5-1.843.689a7.426,7.426,0,0,1-2.386.694" transform="translate(-87.28)" fill="#fff"/>
      <path id="Caminho_40" data-name="Caminho 40" d="M149.341,49.834a7,7,0,0,1-2.554-.523A15.124,15.124,0,0,1,136.709,35.4c-.065-2.266-.049-4.574-.034-6.807q.007-1.057.012-2.113c0-.84.28-1.164,1.142-1.332q1.425-.279,2.849-.566c2.639-.528,5.369-1.075,8.067-1.515a3.8,3.8,0,0,1,.618-.047,10.687,10.687,0,0,1,2.007.268c.171.034.34.067.508.1,2.112.391,4.254.82,6.326,1.235q1.252.251,2.5.5c1.04.206,1.267.472,1.276,1.5.011,1.157.008,2.334.006,3.472,0,.492,0,1.691,0,1.691l.178.017c-.059.686-.1,1.382-.135,2.058a26.982,26.982,0,0,1-.578,4.935c-1.208,4.885-4.392,8.411-9.465,10.48a6.955,6.955,0,0,1-2.648.568m-.273-24.577a8.276,8.276,0,0,0-2.818.467,3.055,3.055,0,0,1-.545.119c-.1.015-.191.03-.285.049l-6.543,1.291v.194c0,.876-.011,1.749-.021,2.593-.023,1.894-.045,3.682.043,5.5.257,5.288,2.938,9.163,7.969,11.518a5.738,5.738,0,0,0,2.461.594h0a5.88,5.88,0,0,0,2.493-.6c4.485-2.073,7.07-5.3,7.684-9.6a46.311,46.311,0,0,0,.281-6.966c-.008-.847-.017-1.722-.008-2.579,0-.348-.5-.753-.834-.833-1.165-.282-2.334-.517-3.476-.7-.717-.114-1.447-.274-2.153-.428a20.055,20.055,0,0,0-4.249-.615" transform="translate(-104.377 -17.579)" fill="#fff"/>
      <path id="Caminho_41" data-name="Caminho 41" d="M170.747,67.311a1.766,1.766,0,0,1-1.09-.608c-.19-.178-.382-.354-.573-.529-.387-.355-.786-.721-1.162-1.1a1.117,1.117,0,0,1-.108-1.633.99.99,0,0,1,.719-.322,1.372,1.372,0,0,1,.862.362c.222.186.432.38.676.606.119.11.243.226.378.348l.184.167,5.763-7c.043-.051.084-.1.125-.156a3.216,3.216,0,0,1,.37-.416,1.173,1.173,0,0,1,.765-.34,1.054,1.054,0,0,1,.682.287.978.978,0,0,1,.19,1.425c-.306.437-.66.858-1,1.265-.123.147-.247.293-.369.441l-.923,1.122q-2.2,2.68-4.414,5.354c-.41.5-.751.726-1.072.726" transform="translate(-127.937 -43.298)" fill="#fff"/>
    </g>
  </g>
</svg>
