<svg xmlns="http://www.w3.org/2000/svg" xmlns:xlink="http://www.w3.org/1999/xlink" width="95" height="72.79" viewBox="0 0 95 72.79">
  <defs>
    <clipPath id="clip-path">
      <rect id="Retângulo_41" data-name="Retângulo 41" width="95" height="72.79" fill="none"/>
    </clipPath>
  </defs>
  <g id="icon-05" clip-path="url(#clip-path)">
    <path id="Caminho_135" data-name="Caminho 135" d="M35.9,117.878l-.7-.217a29.073,29.073,0,0,1-17.653-3.921,30.24,30.24,0,0,1-5.779-47.925,1.184,1.184,0,0,0,.112-1.767l-.368-.306a1.289,1.289,0,0,0-1.533.237,35.573,35.573,0,0,0-5.57,7.281,32.9,32.9,0,0,0,31.276,49.3c.365-.24,1.073-.867.936-1.625a1.352,1.352,0,0,0-.724-1.062" transform="translate(0 -47.895)" fill="#ff8a54" fill-rule="evenodd"/>
    <path id="Caminho_136" data-name="Caminho 136" d="M113.287,104.037h3.689a1.537,1.537,0,0,0,1.491-1.536l1.772-29.434a1.322,1.322,0,0,0-.2-1.167,1.691,1.691,0,0,0-1.162-.468H111.5a1.457,1.457,0,0,0-1.154.471,1.829,1.829,0,0,0-.465,1.176l1.786,29.434a1.487,1.487,0,0,0,1.616,1.524m3.993-29.573-.011.175L115.6,101.016h-.7l-1.677-26.553Z" transform="translate(-82.771 -53.806)" fill="#ff8a54" fill-rule="evenodd"/>
    <path id="Caminho_137" data-name="Caminho 137" d="M115.3,212.63a5.245,5.245,0,1,0,0,10.485,5.379,5.379,0,0,0,5.545-5.18,5.729,5.729,0,0,0-5.545-5.306m0,7.373a2.137,2.137,0,1,1,2.162-2.067A2.173,2.173,0,0,1,115.3,220" transform="translate(-82.775 -160.164)" fill="#ff8a54" fill-rule="evenodd"/>
    <path id="Caminho_138" data-name="Caminho 138" d="M133.6,11.57a20.674,20.674,0,0,0-27.664-9.46,18.813,18.813,0,0,0-5.1,3.695,1.168,1.168,0,0,0-.019,1.811l.256.206a1.28,1.28,0,0,0,1.555-.187,15.234,15.234,0,0,1,4.534-3.1,17.873,17.873,0,0,1,24.059,8.176,18.253,18.253,0,0,1,.939,13.807A17.048,17.048,0,0,1,123.033,36.8a17.535,17.535,0,0,1-16.641-.418c-.318-.181-.633-.385-.936-.588l-.173-.1a17.375,17.375,0,0,1-3.129-2.488l-.334-.267a1.166,1.166,0,0,0-.571-.139l-9.181-.73,4.9-7.688a2.329,2.329,0,0,0,.273-.87,16.8,16.8,0,0,1,2.357-11.8,1.383,1.383,0,0,0-2.4-1.382,19.483,19.483,0,0,0-2.04,5.11,32.344,32.344,0,0,0-5.568-4.013A32.884,32.884,0,0,0,54.73,12.459a1.2,1.2,0,0,0-.32,1.753l.46.382a1.343,1.343,0,0,0,1.46.047,30.185,30.185,0,0,1,31.978-.986,35.164,35.164,0,0,1,6.356,4.823,18.043,18.043,0,0,0,.028,4.7L88.818,32.36a1.129,1.129,0,0,0-.034,1.237,1.063,1.063,0,0,0,.454.607,1.643,1.643,0,0,0,.646.259l10.892.922c.8.794,1.728,1.563,2.65,2.324A29.769,29.769,0,0,1,99.37,55.037,30.323,30.323,0,0,1,80.731,69.312a1.386,1.386,0,0,0-.942,1.627,1.5,1.5,0,0,0,.708.755,1.886,1.886,0,0,0,1.006.234,32.737,32.737,0,0,0,20.35-15.457,32.3,32.3,0,0,0,4.4-17.128,20.426,20.426,0,0,0,28.439-12.055A20.123,20.123,0,0,0,133.6,11.57" transform="translate(-40.796 0)" fill="#ff8a54" fill-rule="evenodd"/>
    <path id="Caminho_139" data-name="Caminho 139" d="M259.22,61.455a1.156,1.156,0,0,0,.995.4,1.287,1.287,0,0,0,1-.4l6.571-6.545a7.5,7.5,0,0,0,4.484,1.39,7.8,7.8,0,0,0,5.481-2.282,7.974,7.974,0,0,0-.1-11A7.79,7.79,0,0,0,265.8,53.026l-6.576,6.548a1.38,1.38,0,0,0,0,1.881M268.591,45a5.049,5.049,0,0,1,7.17,0,5.007,5.007,0,0,1,0,7.136,5.056,5.056,0,0,1-7.17,0,4.993,4.993,0,0,1,0-7.136" transform="translate(-194.979 -30.682)" fill="#ff8a54" fill-rule="evenodd"/>
  </g>
</svg>
