<svg xmlns="http://www.w3.org/2000/svg" xmlns:xlink="http://www.w3.org/1999/xlink" width="127.424" height="141" viewBox="0 0 127.424 141">
  <defs>
    <clipPath id="clip-path">
      <rect id="Retângulo_1" data-name="Retângulo 1" width="127.424" height="141" fill="#ff8a54"/>
    </clipPath>
    <clipPath id="clip-path-2">
      <rect id="Retângulo_2" data-name="Retângulo 2" width="80" height="72.157" fill="#fff"/>
    </clipPath>
  </defs>
  <g id="icon-beneficios-02" transform="translate(100.712 -1551)">
    <g id="icon-beneficios-02-2" data-name="icon-beneficios-02" transform="translate(-100.712 1551)" clip-path="url(#clip-path)">
      <path id="Caminho_3" data-name="Caminho 3" d="M0,45.166V95.834a19.833,19.833,0,0,0,9.916,17.175L53.8,138.343a19.831,19.831,0,0,0,19.833,0l43.879-25.334a19.831,19.831,0,0,0,9.916-17.175V45.166a19.832,19.832,0,0,0-9.916-17.175L73.628,2.657a19.833,19.833,0,0,0-19.833,0L9.916,27.991A19.832,19.832,0,0,0,0,45.166" transform="translate(0 0)" fill="#ff8a54"/>
    </g>
    <g id="ícone" transform="translate(-77 1585.421)" clip-path="url(#clip-path-2)">
      <path id="Caminho_4" data-name="Caminho 4" d="M0,178.823a1.93,1.93,0,0,1,1.771-.722c1.56.033,3.122.01,4.8.01v-.874q0-5.887,0-11.774A2.749,2.749,0,0,1,9.594,162.4c2.552-.016,5.1-.01,7.656,0,2.122.007,3.17,1.052,3.173,3.162q.007,5.77,0,11.54v.962h3.809c0-1.031,0-2.037,0-3.043,0-1.092-.01-2.184,0-3.275.011-.857.456-1.358,1.168-1.363s1.166.479,1.171,1.344c.011,1.819,0,3.639,0,5.458v.868c.29.025.492.058.694.058,2.578,0,5.156-.013,7.734.014.575.006.756-.152.754-.744q-.03-10.136,0-20.273c0-.661-.188-.919-.889-.909q-3.71.053-7.421,0c-.711-.011-.884.261-.879.916.024,3.171.016,6.342.007,9.512,0,1.046-.793,1.707-1.578,1.259a1.615,1.615,0,0,1-.73-1.144q-.085-5.106-.018-10.214a2.676,2.676,0,0,1,2.8-2.655c2.682-.016,5.364-.01,8.047,0a2.769,2.769,0,0,1,3,3.021c.01,3.275,0,6.55,0,9.824v11.343H41.9v-1q0-14.191,0-28.382c0-2.348,1.017-3.354,3.387-3.354q3.672,0,7.344,0a2.815,2.815,0,0,1,3.132,3.136q0,14.308,0,28.616v.978h3.809v-.984q0-18.479,0-36.959a3.283,3.283,0,0,1,.724-2.395,2.636,2.636,0,0,1,2-.9c2.812,0,5.625-.037,8.437.012a2.655,2.655,0,0,1,2.692,2.832c.013,3.846.007,7.693,0,11.54,0,.924-.427,1.436-1.164,1.443s-1.177-.5-1.178-1.42c0-3.717-.021-7.434.014-11.15.007-.739-.247-.937-.947-.928q-3.671.048-7.343,0c-.689-.009-.9.225-.9.9q.022,18.674.013,37.348c0,.2.03.406.049.66h9.11v-.893q0-10.175,0-20.351c0-.234-.014-.47.01-.7a1.1,1.1,0,0,1,1.117-1.084,1.107,1.107,0,0,1,1.2,1,4.26,4.26,0,0,1,.023.778q0,10.136,0,20.272v1.03c1.641,0,3.219.023,4.8-.01a1.936,1.936,0,0,1,1.771.722v.936a2.028,2.028,0,0,1-1.779.7q-38.221-.018-76.442,0a2.023,2.023,0,0,1-1.779-.7Zm44.251-.767h9.129c.016-.255.039-.458.039-.66q0-14.413.015-28.826c0-.745-.287-.927-.973-.918-2.368.029-4.735.01-7.1.011-1.093,0-1.105.011-1.105,1.075q0,14.218,0,28.437Zm-35.3-.013a2.238,2.238,0,0,0,.346.061c2.731,0,5.463,0,8.194.015.519,0,.588-.239.587-.668-.01-3.946-.019-7.893.006-11.839,0-.7-.251-.884-.917-.875q-3.667.048-7.336,0c-.715-.01-.942.21-.936.934.032,3.894.014,7.789.017,11.684,0,.227.025.454.038.69" transform="translate(0 -108.303)" fill="#fff"/>
      <path id="Caminho_5" data-name="Caminho 5" d="M89.553,8.989C88.3,8.117,87.074,7.248,85.83,6.4a1.258,1.258,0,0,1-.7-1.346c.121-.625.563-.855,1.144-1Q93.82,2.11,101.362.133c1.355-.353,1.853-.031,1.992,1.33.533,5.219,1.069,10.439,1.552,15.663a1.8,1.8,0,0,1-.519,1.257c-.41.407-.953.244-1.426-.089-1.231-.869-2.475-1.72-3.776-2.622-.585.716-1.146,1.419-1.723,2.107a60.513,60.513,0,0,1-27.78,18.569,78.146,78.146,0,0,1-19.011,3.734,2.63,2.63,0,0,1-2.986-2.037,2.582,2.582,0,0,1,1.973-3.15,107.252,107.252,0,0,0,16.06-6.4,75.757,75.757,0,0,0,14.517-9.374,2.372,2.372,0,0,1,.781-.5,1.076,1.076,0,0,1,1.333.54,1.139,1.139,0,0,1-.4,1.576c-1.946,1.478-3.851,3.017-5.868,4.394A94.81,94.81,0,0,1,51.276,36.833a6.763,6.763,0,0,0-.885.3c-.155.074-.257.257-.383.39.171.074.347.221.511.209,1.064-.079,2.127-.173,3.186-.3a71.143,71.143,0,0,0,23.081-6.509,56.441,56.441,0,0,0,20.5-16.686c.205-.269.4-.546.616-.805a1.165,1.165,0,0,1,1.778-.269c.864.569,1.707,1.168,2.689,1.843-.421-4.188-.828-8.226-1.247-12.386L89.035,5.755c.915.639,1.694,1.179,2.468,1.727.924.654,1.037,1.123.456,2.1a39.98,39.98,0,0,1-6.2,7.69,1.188,1.188,0,0,1-1.795.1,1.205,1.205,0,0,1,.114-1.737Q86.647,12.6,89.2,9.556a5.235,5.235,0,0,0,.358-.566" transform="translate(-37.696 0)" fill="#fff"/>
    </g>
  </g>
</svg>
