<svg xmlns="http://www.w3.org/2000/svg" xmlns:xlink="http://www.w3.org/1999/xlink" width="95" height="74.167" viewBox="0 0 95 74.167">
  <defs>
    <clipPath id="clip-path">
      <rect id="Retângulo_50" data-name="Retângulo 50" width="95" height="74.167" fill="none"/>
    </clipPath>
  </defs>
  <g id="icon-14" clip-path="url(#clip-path)">
    <path id="Caminho_176" data-name="Caminho 176" d="M62.719,46.39a1.293,1.293,0,0,0,0,2.585h49.873a1.293,1.293,0,1,0,0-2.585Z" transform="translate(-44.265 -33.428)" fill="#ff8a54" fill-rule="evenodd"/>
    <path id="Caminho_177" data-name="Caminho 177" d="M62.719,103.161a1.293,1.293,0,0,0,0,2.585H84a1.293,1.293,0,1,0,0-2.585Z" transform="translate(-44.265 -74.337)" fill="#ff8a54" fill-rule="evenodd"/>
    <path id="Caminho_178" data-name="Caminho 178" d="M64.451,135.638a1.293,1.293,0,0,0,0,2.585H81.539a1.295,1.295,0,1,0,0-2.585Z" transform="translate(-45.515 -97.739)" fill="#ff8a54" fill-rule="evenodd"/>
    <path id="Caminho_179" data-name="Caminho 179" d="M107.905,73.628a1.293,1.293,0,1,0,0,2.585h5.411a1.293,1.293,0,1,0,0-2.585Z" transform="translate(-76.822 -53.055)" fill="#ff8a54" fill-rule="evenodd"/>
    <path id="Caminho_180" data-name="Caminho 180" d="M63.922,73.628a1.293,1.293,0,1,0,0,2.585h6.46a1.293,1.293,0,0,0,0-2.585Z" transform="translate(-45.098 -53.055)" fill="#ff8a54" fill-rule="evenodd"/>
    <path id="Caminho_181" data-name="Caminho 181" d="M187.571,73.763a28.088,28.088,0,0,0-39.516,0,1.293,1.293,0,0,0,0,1.721,1.319,1.319,0,0,0,1.726,0,25.64,25.64,0,0,1,18.07-7.5,25.544,25.544,0,1,1-21.206,11.425,1.213,1.213,0,1,0-1.995-1.379,27.381,27.381,0,0,0-4.568,18.131,27.927,27.927,0,0,0,47.56,17.11,27.818,27.818,0,0,0-.07-39.514" transform="translate(-100.841 -47.299)" fill="#ff8a54"/>
    <path id="Caminho_182" data-name="Caminho 182" d="M166.052,123.118a22.739,22.739,0,0,0,32.136-32.178,22.467,22.467,0,0,0-16.014-6.588,22.678,22.678,0,0,0-16.123,38.767m1.723-30.455a20.485,20.485,0,0,1,14.38-5.984,20.191,20.191,0,0,1,14.31,5.984,20.414,20.414,0,0,1,0,28.723,20.3,20.3,0,0,1-28.69,0,20.411,20.411,0,0,1,0-28.723" transform="translate(-114.924 -60.782)" fill="#ff8a54"/>
    <path id="Caminho_183" data-name="Caminho 183" d="M214.121,132.769a1.272,1.272,0,1,0-2.543,0c0,3.466,2.912,6.387,6.8,6.865v1.072a1.333,1.333,0,0,0,1.315,1.309,1.379,1.379,0,0,0,1.3-1.309v-1.077c3.824-.557,6.8-3.539,6.8-6.86,0-3.383-2.912-6.306-6.8-6.86V117.2c2.476.456,4.183,2.171,4.183,4.238a1.308,1.308,0,0,0,2.616,0c0-3.461-2.943-6.387-6.877-6.865V113.5a1.255,1.255,0,0,0-1.226-1.307,1.282,1.282,0,0,0-1.315,1.307v1.077c-3.886.554-6.8,3.478-6.8,6.863,0,3.469,2.912,6.393,6.8,6.865v8.7c-2.515-.453-4.255-2.171-4.255-4.241m-.078-11.328c0-2.031,1.7-3.71,4.255-4.233v8.558c-2.479-.456-4.255-2.246-4.255-4.325m11.135,11.406c0,1.942-1.782,3.7-4.183,4.16V128.6c2.476.456,4.183,2.177,4.183,4.247" transform="translate(-152.461 -80.846)" fill="#ff8a54"/>
    <path id="Caminho_184" data-name="Caminho 184" d="M42.832,58.527H3.536a.992.992,0,0,1-1.046-.968V3.546A1.019,1.019,0,0,1,3.536,2.5H83.33a1.018,1.018,0,0,1,1.046,1.049V24.838A26.886,26.886,0,0,1,87.1,27.286V3.546A3.837,3.837,0,0,0,83.33,0H3.536A3.569,3.569,0,0,0,0,3.546V57.559A3.569,3.569,0,0,0,3.536,61.1H44.278a27.652,27.652,0,0,1-1.446-2.577" transform="translate(0 -0.001)" fill="#ff8a54" fill-rule="evenodd"/>
    <path id="Caminho_185" data-name="Caminho 185" d="M55.618,68.029H29.483a7.3,7.3,0,0,0-6.048-6.051V30.6a7.283,7.283,0,0,0,6.048-6.051H87.036a7.274,7.274,0,0,0,6.37,6.051v6.521a27.168,27.168,0,0,1,2.58,1.3V29.548a2.5,2.5,0,0,0-.568-.971,1.522,1.522,0,0,0-1.125-.4,4.823,4.823,0,0,1-4.84-4.68,1.536,1.536,0,0,0-1.612-1.452H28.593A1.647,1.647,0,0,0,26.985,23.5a4.794,4.794,0,0,1-4.68,4.68,1.538,1.538,0,0,0-1.449,1.614V62.865a1.654,1.654,0,0,0,1.449,1.62,4.774,4.774,0,0,1,4.68,4.6,1.6,1.6,0,0,0,1.609,1.53H56.3q-.4-1.267-.683-2.582" transform="translate(-15.028 -15.885)" fill="#ff8a54" fill-rule="evenodd"/>
  </g>
</svg>
