<svg xmlns="http://www.w3.org/2000/svg" xmlns:xlink="http://www.w3.org/1999/xlink" width="80" height="73.408" viewBox="0 0 80 73.408">
  <defs>
    <clipPath id="clip-path">
      <rect id="Retângulo_44" data-name="Retângulo 44" width="80" height="73.408" fill="none"/>
    </clipPath>
  </defs>
  <g id="icon-08" clip-path="url(#clip-path)">
    <path id="Caminho_152" data-name="Caminho 152" d="M79.469,29.517c-1.376-4.555-4.329-6.541-8.334-8.127a1.231,1.231,0,0,1-.9-1.225c-.441-5.207-2.344-9.142-6.567-13.572C59.532,2.248,54.517,1,49.715.3c-.426-.06-.854-.13-1.279-.2L47.787,0H44.361l-.034,0-.166.049-.34.08C35.429,1.059,29.9,4.109,25.9,10.017a.779.779,0,0,1-.989.4C18.558,8.96,13.2,11.706,11.591,17.261a.916.916,0,0,1-.7.727C3.316,20.4-.805,26.486.132,33.865a15.485,15.485,0,0,0,14.52,13.269c.444.015.89.018,1.337.018.735,0,1.451-.013,2.17-.013V57.877l-.457-.008a9.741,9.741,0,0,0-1.264.021c-.514.047-.722-.1-.919-.633A5.573,5.573,0,0,0,12.3,54.012a5.469,5.469,0,0,0-4.477.2A5.619,5.619,0,0,0,9.66,64.851l.594.026a5.449,5.449,0,0,0,5.329-3.727c.135-.374.285-.491.657-.491H16.3c.7.023,1.415.016,2.108.013l.7-.005c1.5-.005,1.911-.423,1.913-1.942,0-5.4,0-7.011,0-12.412,0-1.482-.431-1.918-1.929-1.941-.514-.011-1.028-.008-1.542-.011a29.776,29.776,0,0,1-3.964-.161A12.539,12.539,0,0,1,2.769,32.022c-.213-5.378,3.649-10.1,9.4-11.472a2.443,2.443,0,0,0,2.072-2.118,6.874,6.874,0,0,1,3.426-4.7,9.207,9.207,0,0,1,7.535-.345c1.264.452,1.692.309,2.409-.82,4.825-7.636,11.927-10.738,21.72-9.464,6.733.872,11.408,3.564,14.715,8.477a17.837,17.837,0,0,1,3.517,10.032c.067,1.474.273,1.628,1.672,2.027A10.759,10.759,0,0,1,76.7,30.491a10.137,10.137,0,0,1-1.679,9.4,10.935,10.935,0,0,1-9.2,4.49h-.075c-1.012,0-1.672.545-1.679,1.389a1.28,1.28,0,0,0,.363.942,1.771,1.771,0,0,0,1.29.454h.023c5.954-.039,10.286-2.7,12.877-7.919l0-.01a13.839,13.839,0,0,0,.844-9.721M13.1,59.375A2.8,2.8,0,0,1,10.262,62.1h-.094A2.816,2.816,0,0,1,8.349,57.22a2.8,2.8,0,0,1,1.934-.784h.086A2.847,2.847,0,0,1,13.1,59.375" transform="translate(0)" fill="#ff8a54"/>
    <path id="Caminho_153" data-name="Caminho 153" d="M105.316,195.675c-.584-.215-.688-.467-.685-1.061.013-4.885.013-7.441.01-11.322l0-3.574,0-.148a5.679,5.679,0,0,0-.029-.724,1.377,1.377,0,0,0-1.466-1.347c-2.767-.026-5.57-.026-8.332,0a1.39,1.39,0,1,0,.044,2.775c.368.01.74.015,1.108.015.524,0,1.033-.005,1.542-.007.96,0,1.921,0,2.9,0h1.375l.01.195.018.519v3.844c0,3.281,0,5.526.016,9.882a.8.8,0,0,1-.638.929,5.583,5.583,0,0,0-3.483,6.271,5.651,5.651,0,0,0,5.523,4.6h.016a5.694,5.694,0,0,0,5.495-4.467,5.53,5.53,0,0,0-3.421-6.375m-4.924,5.165a2.819,2.819,0,0,1,2.814-2.788h.023a2.809,2.809,0,0,1,2.824,2.816,2.843,2.843,0,0,1-.849,2.025,2.786,2.786,0,0,1-1.965.817h-.026a2.819,2.819,0,0,1-2.009-.869,2.79,2.79,0,0,1-.812-2" transform="translate(-70.023 -133.109)" fill="#ff8a54"/>
    <path id="Caminho_154" data-name="Caminho 154" d="M159.434,195.6c-.4-.145-.506-.3-.5-.706.018-.875.016-1.76.013-2.616,0-.35,0-.7,0-1.049l0-3.637c0-2.668,0-4.464-.005-8.23,0-1.358-.509-1.864-1.869-1.864-2.57,0-5.145-.01-7.714,0-1.033,0-1.684.53-1.7,1.376a1.278,1.278,0,0,0,.342.942,1.793,1.793,0,0,0,1.308.472c.41.005.82.008,1.228.008.682,0,1.365-.005,2.045-.005h3.494l.013.179.026.462v4.2c0,3.156,0,5.435.016,9.692,0,.488-.153.636-.592.813a5.607,5.607,0,0,0-.774,10.131,5.664,5.664,0,0,0,2.8.747,5.607,5.607,0,0,0,5.123-3.348,5.485,5.485,0,0,0,.052-4.431,5.71,5.71,0,0,0-3.3-3.136m.932,5.287a2.871,2.871,0,0,1-2.783,2.835,2.761,2.761,0,0,1-1.991-.781,2.82,2.82,0,0,1,1.918-4.88h.016a2.836,2.836,0,0,1,2.839,2.826" transform="translate(-110.743 -133.119)" fill="#ff8a54"/>
    <path id="Caminho_155" data-name="Caminho 155" d="M223.272,187.158c-2.692-1.051-5.84.039-6.878,2.383-.618,1.4-1.412,1.591-2.772,1.456l-.3-.018-.081-.005,0-4.55c0-2.2,0-3.764,0-7.086,0-1.321-.509-1.84-1.806-1.843-2.567-.01-5.137,0-7.709,0-1.1,0-1.762.524-1.775,1.389a1.261,1.261,0,0,0,.348.929,1.926,1.926,0,0,0,1.4.475c.864.005,1.729.005,2.593.005h2.435c.514,0,.994-.008,1.557.029l.156.01,0,4.758c0,2.089,0,3.623,0,6.834,0,1.4.449,1.85,1.835,1.861l.548.005c.766.008,1.557.01,2.339-.013h.057c.368,0,.514.114.657.488A5.412,5.412,0,0,0,220.84,198l.4.016a5.631,5.631,0,0,0,5.412-4.348,5.708,5.708,0,0,0-3.377-6.507m-2.107,2.393h.005a2.857,2.857,0,0,1,2.006.862,2.8,2.8,0,0,1,.828,2,2.85,2.85,0,0,1-2.852,2.8h-.031a2.782,2.782,0,0,1-1.98-.849,2.845,2.845,0,0,1,2.025-4.817" transform="translate(-151.46 -133.117)" fill="#ff8a54"/>
  </g>
</svg>
