<svg xmlns="http://www.w3.org/2000/svg" xmlns:xlink="http://www.w3.org/1999/xlink" width="80" height="71.194" viewBox="0 0 80 71.194">
  <defs>
    <clipPath id="clip-path">
      <rect id="Retângulo_37" data-name="Retângulo 37" width="80" height="71.194" fill="none"/>
    </clipPath>
  </defs>
  <g id="icon-01" clip-path="url(#clip-path)">
    <path id="Caminho_99" data-name="Caminho 99" d="M27.577,298.313a1.314,1.314,0,0,0-1.225,1.23V308.3a1.255,1.255,0,0,0,1.225,1.231,1.2,1.2,0,0,0,1.217-1.231v-8.761a1.246,1.246,0,0,0-1.217-1.23" transform="translate(-21.082 -238.65)" fill="#ff8a54" fill-rule="evenodd"/>
    <path id="Caminho_100" data-name="Caminho 100" d="M54.793,182.09c-2.667-1.283-7.663-1.37-7.837-1.37a1.155,1.155,0,1,0,0,2.31c1.294,0,5.083.259,6.891,1.112,1.517.491,2.337-1.168.945-2.052" transform="translate(-36.625 -144.575)" fill="#ff8a54" fill-rule="evenodd"/>
    <path id="Caminho_101" data-name="Caminho 101" d="M45.056,149.132a1.164,1.164,0,0,0-.826.33L21.247,171.214a1.163,1.163,0,0,1-1.046.351,1.333,1.333,0,0,1-1.307-1.653c3.108-1.976,3.933-5.784,3.654-9.223,1.716-2.518,1.148-7.409,1.223-10.271a1.176,1.176,0,0,0-1.222-1.133H11.319c-4.97-.162-9.128,5.515-6.7,10.181l.52,1.222c-.337,3.523.958,7.261,3.744,9.223.037.951.1,2-1.046,2.434l-4.177,1.22A4.833,4.833,0,0,0,0,178.179v10.876a1.222,1.222,0,0,0,2.442,0V178.179a2.614,2.614,0,0,1,1.827-2.44,43.093,43.093,0,0,0,5.223-1.653c2.507,3.092,6.49,2.825,8.8-.343a3.843,3.843,0,0,0,4.351-.526L39,157.73l1.661,1.65L21.68,178.267c-2.782,2.3-1.589,8-1.827,11.053a1.176,1.176,0,1,0,2.353,0v-6.7c-1.278-1.939,21.526-22.445,22.366-23.933,1.87-1.5.652-4.791.529-6.791l.781-.782a1.169,1.169,0,0,0-.826-1.98M15.845,172.954c-1.527,1.526-3.442.384-4.613-.958a2.042,2.042,0,0,0,.261-1.038,8.128,8.128,0,0,0,5.141,0,6.723,6.723,0,0,0,.256.958Zm-1.558-3.889c-4.861.108-7.157-4.285-6.624-8.814l-.088-.52a6.791,6.791,0,0,1-1.214-3.311C6.451,149.1,17,151.877,21.5,151.377c-.029,2.375.366,6.187-1.125,8.267-.087.087-.087.256-.087.517v2.522a6.3,6.3,0,0,1-6,6.382m28.984-12.294-.694.694-1.658-1.653,2.178-2.091c.1.83.962,2.34.174,3.05" transform="translate(0 -119.305)" fill="#ff8a54" fill-rule="evenodd"/>
    <path id="Caminho_102" data-name="Caminho 102" d="M208.3,0h-39.73a3.647,3.647,0,0,0-3.644,3.755V35.368a1.18,1.18,0,0,0,1.13,1.225,1.2,1.2,0,0,0,1.217-1.225V3.755a1.3,1.3,0,0,1,1.3-1.391H208.3a1.353,1.353,0,0,1,1.3,1.391V36.242a1.284,1.284,0,0,1-1.3,1.312H181.667a1.222,1.222,0,0,0,0,2.442H208.3a3.694,3.694,0,0,0,3.641-3.755V3.755A3.751,3.751,0,0,0,208.3,0" transform="translate(-131.939)" fill="#ff8a54" fill-rule="evenodd"/>
    <path id="Caminho_103" data-name="Caminho 103" d="M207.894,46.469a1.213,1.213,0,0,0-1.658,0l-10.562,10.57a1.126,1.126,0,0,0,.871,1.906c.18.818,10.435-10.006,10.651-10.052.462.278,5.758,6.1,6.326,5.7a1.168,1.168,0,0,0,.829-.327l13.611-13.516v3.377a1.18,1.18,0,0,0,2.361,0V37.972a1.58,1.58,0,0,0-1.4-1.128H222.73a1.216,1.216,0,0,0,0,2.432h3.4L213.3,51.927Z" transform="translate(-156.282 -29.475)" fill="#ff8a54" fill-rule="evenodd"/>
  </g>
</svg>
