<svg xmlns="http://www.w3.org/2000/svg" xmlns:xlink="http://www.w3.org/1999/xlink" width="85" height="86.27" viewBox="0 0 85 86.27">
  <defs>
    <clipPath id="clip-path">
      <rect id="Retângulo_47" data-name="Retângulo 47" width="85" height="86.27" fill="none"/>
    </clipPath>
  </defs>
  <g id="icon-11" clip-path="url(#clip-path)">
    <path id="Caminho_170" data-name="Caminho 170" d="M84.928,30.047A48.912,48.912,0,0,0,57.947.67a1.387,1.387,0,0,0-1.817.71l-.391.879A42.119,42.119,0,0,0,12.323,71.9a41.724,41.724,0,0,0,12.8,8.733l-.285.817a1.381,1.381,0,0,0,.821,1.753A47.584,47.584,0,0,0,53.917,84.87a1.39,1.39,0,0,0,1.007-1.706l-8.47-31.6a1.385,1.385,0,0,0-1.611-1,12.227,12.227,0,0,1-7.364-.81,1.374,1.374,0,0,0-1.83.719,10.4,10.4,0,0,1-1.014-.884,10.573,10.573,0,0,1,8.076-18.043l-.221.5a1.389,1.389,0,0,0,.752,1.85,12.451,12.451,0,0,1,7.028,7.186,1.39,1.39,0,0,0,1.3.893l.416-.064.7-.219a10.1,10.1,0,0,1-.179,2.5,1.391,1.391,0,0,0,1,1.614l27.821,7.455.358.047.707-.194a1.4,1.4,0,0,0,.641-.86,42.357,42.357,0,0,0,.015-20.139l.986-.311a1.385,1.385,0,0,0,.9-1.761m-4.28,20.164L55.41,43.446a13.435,13.435,0,0,0-.014-2.607L80.39,32.957a39.594,39.594,0,0,1,.258,17.254M44.1,53.488,51.873,82.5a44.8,44.8,0,0,1-23.966-1.429l.257-.738a.049.049,0,0,0,0-.007l9.511-27.264c0-.006,0-.013,0-.02l.073-.209a14.885,14.885,0,0,0,6.34.657M32.675,32.655A13.348,13.348,0,0,0,34.688,53.2L26.038,78.01a38.93,38.93,0,0,1-11.754-8.068,39.419,39.419,0,0,1-2.42-53.019,1.362,1.362,0,0,0,.23.3C24.972,29.607,28.358,32.345,28.5,32.455a1.387,1.387,0,0,0,1.733-2.166c-.033-.025-3.492-2.829-16.214-15.063a1.359,1.359,0,0,0-.405-.267q.331-.348.673-.69A39.455,39.455,0,0,1,54.61,4.8L48.69,18.108,43.9,28.874a13.254,13.254,0,0,0-11.227,3.78M49.4,34.709a15.261,15.261,0,0,0-3.814-2.787L58.1,3.781A46.122,46.122,0,0,1,81.83,29.595l-.863.272-.016,0L69.236,33.564,52.345,38.889a15.105,15.105,0,0,0-2.948-4.18" transform="translate(0 0)" fill="#ff8a54"/>
  </g>
</svg>
