<svg xmlns="http://www.w3.org/2000/svg" xmlns:xlink="http://www.w3.org/1999/xlink" width="100" height="88.166" viewBox="0 0 100 88.166">
  <defs>
    <clipPath id="clip-path">
      <rect id="Retângulo_49" data-name="Retângulo 49" width="100" height="88.166" fill="none"/>
    </clipPath>
  </defs>
  <g id="icon-13" clip-path="url(#clip-path)">
    <path id="Caminho_173" data-name="Caminho 173" d="M59.188,78.479a1.538,1.538,0,0,0,2.168.01,1.481,1.481,0,0,0,.54-1.109,1.447,1.447,0,0,0-.53-1.083l-4.813-4.916a1.528,1.528,0,0,0-2.175,0L41.429,84.368a1.483,1.483,0,0,0,0,2.272L66.123,111.4a10.729,10.729,0,0,0,7.514,3.2,10.02,10.02,0,0,0,7.521-3.2l31.725-31.718a1.649,1.649,0,0,0,.187-2.272,1.53,1.53,0,0,0-2.182,0L79.166,109.221a7.644,7.644,0,0,1-5.436,2.265,7.959,7.959,0,0,1-5.429-2.265L44.65,85.41,55.421,74.7Z" transform="translate(-28.392 -49.236)" fill="#ff8a54"/>
    <path id="Caminho_174" data-name="Caminho 174" d="M177.306,13.49,164.256.454a1.636,1.636,0,0,0-2.272.01l-38.26,38.273a1.369,1.369,0,0,1-.836.25,1.384,1.384,0,0,1-.809-.23l-7.628-7.707a1.611,1.611,0,0,0-2.268,2.288l7.7,7.594a3.715,3.715,0,0,0,2.911,1.262,4.207,4.207,0,0,0,2.911-1.256L162.844,3.874l10.822,10.708-9.723,9.8a1.383,1.383,0,0,0-.006,2.192,1.564,1.564,0,0,0,2.185,0l10.872-10.848a1.508,1.508,0,0,0,.423-.992,1.19,1.19,0,0,0-.11-1.239" transform="translate(-77.553 0)" fill="#ff8a54"/>
    <path id="Caminho_175" data-name="Caminho 175" d="M85.893,38.7a1.556,1.556,0,0,0-1.016.36,1.412,1.412,0,0,0-.47,1.1v33.8A12.812,12.812,0,0,1,71.6,86.742H15.821a12.811,12.811,0,0,1-12.8-12.79V18.146a12.812,12.812,0,0,1,12.8-12.793H73.056A1.422,1.422,0,0,0,74.431,3.89a1.477,1.477,0,0,0-1.376-1.465H15.821A15.835,15.835,0,0,0,0,18.236V74.042A15.832,15.832,0,0,0,15.821,89.85H71.6A15.833,15.833,0,0,0,87.425,74.042V40.156A1.45,1.45,0,0,0,85.893,38.7" transform="translate(0 -1.683)" fill="#ff8a54"/>
  </g>
</svg>
