<svg xmlns="http://www.w3.org/2000/svg" xmlns:xlink="http://www.w3.org/1999/xlink" width="127.424" height="141" viewBox="0 0 127.424 141">
  <defs>
    <clipPath id="clip-path">
      <rect id="Retângulo_5" data-name="Retângulo 5" width="127.424" height="141" transform="translate(0 0)" fill="#4fd6ff"/>
    </clipPath>
    <clipPath id="clip-path-2">
      <rect id="Retângulo_6" data-name="Retângulo 6" width="85" height="85.169" fill="#fff"/>
    </clipPath>
  </defs>
  <g id="icon-beneficios-04" transform="translate(82.712 -1551.011)">
    <g id="icon-beneficios-04-2" data-name="icon-beneficios-04" transform="translate(-82.712 1551.011)" clip-path="url(#clip-path)">
      <path id="Caminho_17" data-name="Caminho 17" d="M0,45.166V95.834a19.833,19.833,0,0,0,9.916,17.175L53.8,138.343a19.831,19.831,0,0,0,19.833,0l43.879-25.334a19.831,19.831,0,0,0,9.916-17.175V45.166a19.832,19.832,0,0,0-9.916-17.175L73.628,2.657a19.833,19.833,0,0,0-19.833,0L9.916,27.991A19.832,19.832,0,0,0,0,45.166" transform="translate(0 0)" fill="#4fd6ff"/>
    </g>
    <g id="ícone" transform="translate(-56 1584)" clip-path="url(#clip-path-2)">
      <path id="Caminho_18" data-name="Caminho 18" d="M40.011,0c1.5.217,3,.4,4.491.657a37.545,37.545,0,0,1,27.558,51.6c-.053.127-.108.255-.153.385a.875.875,0,0,0-.017.191c.756.232,1.527.435,2.276.7A16.289,16.289,0,0,1,81.76,78.622a4.491,4.491,0,0,1-.7.813A1.227,1.227,0,0,1,79.2,77.9a6,6,0,0,1,.434-.606c3.323-4.649,3.923-9.629,1.3-14.713A13.171,13.171,0,0,0,68.214,55.1,13.784,13.784,0,1,0,75.464,80.9c.073-.04.145-.081.218-.119.826-.433,1.489-.309,1.878.351a1.263,1.263,0,0,1-.623,1.807,16.162,16.162,0,0,1-5.991,2.077c-.242.034-.479.1-.718.159H67.073a3.289,3.289,0,0,0-.462-.146c-6.665-1.083-11.113-4.836-13.4-11.179-.214-.591-.344-1.213-.529-1.879-.267.089-.5.153-.722.244A35.745,35.745,0,0,1,27.919,73.8C13.393,69.608,4.331,60,.818,45.236c-.4-1.685-.552-3.43-.818-5.147V35.1c.216-1.476.4-2.958.656-4.425A36.378,36.378,0,0,1,4.475,19.75c.474-.883,1.1-1.165,1.8-.819.741.37.9,1.056.4,1.988a34.423,34.423,0,0,0-4.139,18A34.513,34.513,0,0,0,15.474,64.773c.183.153.389.278.558.4.477-1.393.843-2.789,1.43-4.083.578-1.276,1.381-2.45,2.146-3.773A14.7,14.7,0,0,1,16.755,52a29.931,29.931,0,0,1-1.1-10.855,41.982,41.982,0,0,1,4.411-16.575,25.246,25.246,0,0,1,7.142-8.946c6.661-5.063,15.407-4.49,21.59,1.409,3.975,3.792,6.343,8.533,7.983,13.7.117.369.242.738.325,1.115a1.246,1.246,0,1,1-2.393.678c-.589-1.639-1.1-3.312-1.769-4.916a24.548,24.548,0,0,0-6.3-9.158,13.812,13.812,0,0,0-19.407.435,28.7,28.7,0,0,0-7.293,12.672,38.372,38.372,0,0,0-1.662,15.426,17.951,17.951,0,0,0,1.85,6.681c.36.673.832,1.286,1.283,1.974a17.212,17.212,0,0,1,8.2-4.075,14.721,14.721,0,0,1-4.246-4.47,13.483,13.483,0,0,1-1.944-6.87c-.023-2.633-.012-5.267-.006-7.9,0-1.012.327-1.376,1.33-1.563a33.922,33.922,0,0,0,10.688-3.675,13.934,13.934,0,0,0,4.647-4.068c.72-1.024,1.742-.919,2.346.213a16.969,16.969,0,0,0,3.8,5.1,25.957,25.957,0,0,0,3.718,2.437c.544.32,1,.635.994,1.3-.016,3.1.088,6.216-.12,9.307a13.089,13.089,0,0,1-5.486,9.751c-.131.1-.263.2-.392.3-.019.016-.024.049-.079.169a17.186,17.186,0,0,1,8.006,4,12,12,0,0,0,2.593-5.265,31.745,31.745,0,0,0,.418-12.216c-.033-.247-.083-.493-.094-.741a1.254,1.254,0,0,1,1.066-1.435,1.2,1.2,0,0,1,1.39,1.121c.189,2.842.457,5.69.423,8.533a19.927,19.927,0,0,1-2.083,8.9c-.524,1.027-1.216,1.967-1.866,3l1.071,1.455a16.464,16.464,0,0,1,13.393-6.4A33.2,33.2,0,0,0,72.351,41.4a34.21,34.21,0,0,0-6.225-24.062c-5.943-8.293-14-13.33-24.159-14.5C28.813,1.316,18.062,5.941,9.724,16.23c-.07.086-.135.176-.206.261-.585.7-1.282.845-1.873.39a1.227,1.227,0,0,1-.1-1.9c1.193-1.419,2.36-2.872,3.675-4.172A36.941,36.941,0,0,1,32.079.387C33.114.228,34.157.128,35.2,0ZM36.563,72.6a36.25,36.25,0,0,0,15.175-3,1.028,1.028,0,0,0,.722-1.109A16.053,16.053,0,0,1,53.97,61.9a1.391,1.391,0,0,0-.049-1.108,14.154,14.154,0,0,0-9.369-6.7.848.848,0,0,0-1.067.483c-1.083,1.866-2.2,3.712-3.322,5.557-1.41,2.326-3.95,2.315-5.368-.022-1.148-1.893-2.266-3.8-3.438-5.681A1.035,1.035,0,0,0,30.546,54a14.1,14.1,0,0,0-12,12.217.973.973,0,0,0,.535,1.127A34.286,34.286,0,0,0,36.563,72.6M26.05,33.09a86.357,86.357,0,0,0,.051,8.649c.558,5.462,5.606,9.641,11.184,9.567A11.109,11.109,0,0,0,48.3,41.437c.236-2.7.12-5.425.129-8.139a.852.852,0,0,0-.422-.6,17.5,17.5,0,0,1-6.518-6.132c-.147-.218-.309-.425-.477-.656-4.2,4.222-9.514,5.924-14.961,7.182m7.91,20.767c1.05,1.751,2.006,3.363,2.98,4.964.423.695.668.69,1.1-.015q1.358-2.232,2.689-4.48a2.647,2.647,0,0,0,.163-.469Z" fill="#fff"/>
      <path id="Caminho_19" data-name="Caminho 19" d="M278.157,267.681a2.58,2.58,0,0,1,2.3,1.45c.376.708.752,1.419,1.065,2.155a1.088,1.088,0,0,0,1,.717c.8.091,1.589.208,2.377.345a2.5,2.5,0,0,1,2.078,1.8,2.549,2.549,0,0,1-.625,2.685c-.556.578-1.119,1.153-1.72,1.682a1.1,1.1,0,0,0-.379,1.168c.153.759.264,1.526.389,2.29a2.539,2.539,0,0,1-1.057,2.62,2.508,2.508,0,0,1-2.74.239c-.718-.354-1.4-.791-2.14-1.085a1.782,1.782,0,0,0-1.2-.012c-.716.279-1.371.71-2.062,1.056a2.56,2.56,0,0,1-2.885-.229,2.388,2.388,0,0,1-.98-2.713,3.812,3.812,0,0,0-1.531-4.833,2.408,2.408,0,0,1-.854-2.836,2.563,2.563,0,0,1,2.3-1.871,11.281,11.281,0,0,1,1.636-.237,1.736,1.736,0,0,0,1.811-1.346,11.277,11.277,0,0,1,.846-1.707,2.593,2.593,0,0,1,2.375-1.338m-6.538,7.156-.116.248c.621.575,1.223,1.172,1.867,1.719a3.125,3.125,0,0,1,1.022,3.3c-.168.8-.275,1.607-.445,2.625.837-.429,1.52-.711,2.13-1.105a3.416,3.416,0,0,1,4.035,0c.605.39,1.279.674,2.109,1.1-.179-1.077-.285-1.923-.466-2.752a3.07,3.07,0,0,1,1.072-3.2c.634-.554,1.206-1.18,1.954-1.922-.949-.14-1.673-.294-2.405-.346a3.346,3.346,0,0,1-3.168-2.259c-.282-.725-.691-1.4-1.132-2.273-.518,1.052-.935,1.89-1.345,2.732a2.81,2.81,0,0,1-2.3,1.683c-.942.119-1.877.294-2.815.444" transform="translate(-209.371 -208.311)" fill="#fff"/>
      <path id="Caminho_20" data-name="Caminho 20" d="M151.8,189.483a5.359,5.359,0,0,1-4.726-2.155c-.594-.826-.544-1.592.1-2.054s1.338-.239,1.929.606a3.4,3.4,0,0,0,5.024-.011c.584-.841,1.292-1.057,1.934-.588.615.449.673,1.2.124,1.988a5.11,5.11,0,0,1-4.383,2.212" transform="translate(-114.128 -143.998)" fill="#fff"/>
      <path id="Caminho_21" data-name="Caminho 21" d="M134.669,154.862c0-.47-.027-.941.007-1.408a1.231,1.231,0,0,1,2.456-.053,25.323,25.323,0,0,1-.008,3.062,1.159,1.159,0,0,1-1.235,1.1,1.214,1.214,0,0,1-1.215-1.212c-.03-.5-.006-.994-.005-1.491" transform="translate(-104.792 -118.502)" fill="#fff"/>
      <path id="Caminho_22" data-name="Caminho 22" d="M189.325,154.915c0-.47-.023-.94,0-1.408a1.21,1.21,0,0,1,1.2-1.219,1.137,1.137,0,0,1,1.244,1.081,21.313,21.313,0,0,1,0,3.144,1.117,1.117,0,0,1-1.265,1.052,1.156,1.156,0,0,1-1.175-1.159c-.037-.494-.007-.994-.008-1.491" transform="translate(-147.325 -118.512)" fill="#fff"/>
    </g>
  </g>
</svg>
