<svg xmlns="http://www.w3.org/2000/svg" xmlns:xlink="http://www.w3.org/1999/xlink" width="100" height="80.493" viewBox="0 0 100 80.493">
  <defs>
    <clipPath id="clip-path">
      <rect id="Retângulo_48" data-name="Retângulo 48" width="100" height="80.493" fill="none"/>
    </clipPath>
  </defs>
  <g id="icon-12" clip-path="url(#clip-path)">
    <path id="Caminho_171" data-name="Caminho 171" d="M4.836,0A4.8,4.8,0,0,0,0,4.71V78.964a1.648,1.648,0,0,0,1.539,1.529,1.45,1.45,0,0,0,1.548-1.529V4.71a1.717,1.717,0,0,1,1.75-1.642H95.268A1.624,1.624,0,0,1,96.91,4.71V75.792a1.616,1.616,0,0,1-1.642,1.633H12.783a1.521,1.521,0,0,0-1.551,1.539,1.457,1.457,0,0,0,1.551,1.529H95.268a4.706,4.706,0,0,0,4.732-4.7V4.71A4.558,4.558,0,0,0,95.372,0Z" fill="#ff8a54" fill-rule="evenodd"/>
    <path id="Caminho_172" data-name="Caminho 172" d="M114.605,78.012a11.023,11.023,0,0,0-11.037-10.981c-.472,0-.931.031-1.419.076a10.146,10.146,0,0,0-1.183-4.509,1.538,1.538,0,0,0-2.07-.632,1.434,1.434,0,0,0-.746.872,1.592,1.592,0,0,0,.135,1.249,8.789,8.789,0,0,1,.881,4.518v.377a1.713,1.713,0,0,0,.532,1.236,1.443,1.443,0,0,0,1.447.315,7.769,7.769,0,0,1,2.36-.412,7.962,7.962,0,0,1,7.951,7.954,7.7,7.7,0,0,1-.978,3.917l-.05-.028a7.556,7.556,0,0,0-5.858-1.86,6.321,6.321,0,0,0-4.575-1.91l-.475.013A10.215,10.215,0,0,0,96.684,74.3a9.27,9.27,0,0,0-5.965-2.127,9.543,9.543,0,0,0-9.342,8.007L81,80.136H79.681l-.469.139-.239.057-.164.06-.157.025a7.435,7.435,0,0,0-4.8,5.028l-.069.286-.085.242H64.45a8.118,8.118,0,0,1,0-16.235,6.02,6.02,0,0,1,2.118.312,1.568,1.568,0,0,0,1.627-.588,6.147,6.147,0,0,1,5.034-2.728,7.655,7.655,0,0,1,1.9.255,1.287,1.287,0,0,0,1.331-.095,1.629,1.629,0,0,0,.645-.928,12.209,12.209,0,0,1,1.066-2.731l.126-.3a11.573,11.573,0,0,1,6.721-5.361l.116-.016a12.159,12.159,0,0,1,2.951-.358,10.543,10.543,0,0,1,7.957,3.656,1.576,1.576,0,0,0,2.162.063,1.491,1.491,0,0,0,.075-2.089,13.792,13.792,0,0,0-10.194-4.594,14.986,14.986,0,0,0-6.249,1.683,16.848,16.848,0,0,0-2.728,1.69,19.753,19.753,0,0,0-2.9,3.159l-.1.138v.06l-.025.063-.207.387c-.365.667-1.133,2.077-1.479,2.693a13.3,13.3,0,0,0-1.479-.091,9.25,9.25,0,0,0-6.906,3.159,13.829,13.829,0,0,0-1.866-.082,11.174,11.174,0,0,0,0,22.348h9.222A7.548,7.548,0,0,0,80.688,95.4H97.181a1.544,1.544,0,0,0,0-3.087H80.688A4.444,4.444,0,0,1,76.245,87.8l-.006-.377a4.512,4.512,0,0,1,4.449-3.946,6.5,6.5,0,0,1,1.3.139,1.823,1.823,0,0,0,1.321-.107l.186-.12a1.8,1.8,0,0,0,.526-1.3V81.9A6.475,6.475,0,0,1,96.8,80.435a1.3,1.3,0,0,0,.749.985l.715.217.516-.091a2.226,2.226,0,0,1,.963-.135,3.35,3.35,0,0,1,2.74,1.435,1.547,1.547,0,0,0,1.6.617,3.981,3.981,0,0,1,1.111-.173l.714-.009a4.567,4.567,0,0,1,2.819,1.743,4.618,4.618,0,0,1,.909,2.718,4.511,4.511,0,0,1-4.506,4.506h-3.448a1.5,1.5,0,0,0-1.51,1.513,1.532,1.532,0,0,0,1.51,1.513h3.448a7.573,7.573,0,0,0,7.6-7.532,8.251,8.251,0,0,0-.557-2.929,11.183,11.183,0,0,0,2.435-6.8" transform="translate(-37.258 -38.139)" fill="#ff8a54"/>
  </g>
</svg>
