<svg xmlns="http://www.w3.org/2000/svg" xmlns:xlink="http://www.w3.org/1999/xlink" width="90" height="62.733" viewBox="0 0 90 62.733">
  <defs>
    <clipPath id="clip-path">
      <rect id="Retângulo_42" data-name="Retângulo 42" width="90" height="62.733" fill="none"/>
    </clipPath>
  </defs>
  <g id="icon-06" clip-path="url(#clip-path)">
    <path id="Caminho_140" data-name="Caminho 140" d="M74.485,34.952l3.965,1.176V59.7L54.925,52.639V43.283A1.26,1.26,0,0,0,53.639,42a1.32,1.32,0,0,0-1.283,1.286v9.356L28.831,59.7V36.127l23.525-6.974v8.9a1.314,1.314,0,0,0,1.283,1.289,1.256,1.256,0,0,0,1.286-1.289v-8.9l8.029,2.382a15.972,15.972,0,0,1-3.39-3.646L54.925,26.5V4.722L54.947,3.5l8.9,2.456A15.933,15.933,0,0,1,66.85,4.32L55.12,1.17a4.815,4.815,0,0,0-3.221.052L27.463,7.687,1.644.077,1.368,0A2.032,2.032,0,0,0,.545.262,1.153,1.153,0,0,0,0,1.269V53.647a1.205,1.205,0,0,0,.914,1.289L27,62.733h.463L52.634,55.3c.091.094.276.094.545.094l.553-.094L78.9,62.733h.369a3.388,3.388,0,0,0,.821-.187,1.579,1.579,0,0,0,.548-1.1l.369-26.234V32.843a15.815,15.815,0,0,1-6.526,2.109M54.947,3.122h.16l-.16.041ZM28.831,9.984,52.35,3.841v.881h.005V26.5L28.831,33.561ZM26.27,33.561,17.391,30.9l-.424-.085a1.361,1.361,0,0,0-1.222,1,1.325,1.325,0,0,0,.917,1.556l9.609,2.935V59.7L2.745,52.639V29.247l8.88,2.665h.369a1.46,1.46,0,0,0,1.275-.925,1.323,1.323,0,0,0-.914-1.556L2.745,26.5V3.012L26.27,9.984Z" transform="translate(0)" fill="#ff8a54" fill-rule="evenodd"/>
    <path id="Caminho_141" data-name="Caminho 141" d="M301.231,56.3a5.569,5.569,0,1,0,5.567,5.534,5.555,5.555,0,0,0-5.567-5.534m3.513,5.534a3.547,3.547,0,1,1-7.093,0,3.6,3.6,0,0,1,3.579-3.533,3.527,3.527,0,0,1,3.513,3.533" transform="translate(-228.006 -43.415)" fill="#ff8a54"/>
    <path id="Caminho_142" data-name="Caminho 142" d="M290.83,42.524l-1.349-.785.025-.212a6.159,6.159,0,0,0,.077-.842,6.355,6.355,0,0,0-.082-1.027l1.308-.8a1.39,1.39,0,0,0,.733-.89,1.335,1.335,0,0,0-.184-1.09l-.733-1.291a.964.964,0,0,0-.829-.5l-.46.129a.92.92,0,0,0-.484.589l.1.686.518.931-1.462.865a.869.869,0,0,0-.493,1.041,7.631,7.631,0,0,1,.08,1.363c0,.49-.038.933-.08,1.4a.917.917,0,0,0,.444,1.022l1.5.892-2.01,3.461-1.49-.881a.936.936,0,0,0-1.1.072,8.686,8.686,0,0,1-2.4,1.4.909.909,0,0,0-.7.9v1.746h-4.023V48.945a.951.951,0,0,0-.6-.884,7.655,7.655,0,0,1-2.434-1.391.923.923,0,0,0-1.115-.1l-1.542.889L270.025,44l1.55-.9a.97.97,0,0,0,.435-1.005,7.965,7.965,0,0,1-.08-1.412c0-.457.041-.936.08-1.355a.928.928,0,0,0-.446-1.024l-1.539-.889,2.007-3.461,1.592.917a1.069,1.069,0,0,0,1.052-.116,6.866,6.866,0,0,1,2.387-1.385.881.881,0,0,0,.664-.944v-1.7h4.023v1.7a1.127,1.127,0,0,0,.661.931,7.677,7.677,0,0,1,2.45,1.41.989.989,0,0,0,1.09.077l1.509-.895.3.473a.94.94,0,0,0,1.3.366.958.958,0,0,0,.344-1.289l-.479-.87a1.473,1.473,0,0,0-2.021-.531l-1.335.812a8.051,8.051,0,0,0-1.872-1.09V30.255a1.4,1.4,0,0,0-.518-1.076,1.833,1.833,0,0,0-1.481-.352h-4.444a1.493,1.493,0,0,0-1.479,1.47v1.564a7.979,7.979,0,0,0-1.867,1.1l-1.407-.834A1.723,1.723,0,0,0,271.49,32a1.307,1.307,0,0,0-.931.664L268.092,36.9l-.113.3a1.31,1.31,0,0,0,.565,1.58l.008-.016.088.121,1.451.843c-.033.363-.063.727-.063,1.054a9.377,9.377,0,0,0,.061,1.011l-1.33.815a1.17,1.17,0,0,0-.675.876,1.219,1.219,0,0,0,.121,1.1l.856,1.446.584,1.244.955,1.649a1.515,1.515,0,0,0,.936.719,1.63,1.63,0,0,0,1.074-.182l1.344-.782a11.023,11.023,0,0,0,1.867,1.085v1.534a1.5,1.5,0,0,0,1.479,1.476h4.923a1.459,1.459,0,0,0,1.476-1.476V49.766a10.731,10.731,0,0,0,1.864-1.1l1.349.782a1.453,1.453,0,0,0,.757.206l.391-.041a1.983,1.983,0,0,0,.865-.694l2.459-4.268a2.069,2.069,0,0,0,.157-1.206,1.44,1.44,0,0,0-.71-.925" transform="translate(-206.608 -22.208)" fill="#ff8a54"/>
    <path id="Caminho_143" data-name="Caminho 143" d="M261.1,8.873a17.079,17.079,0,1,0,17.079,17.079A17.1,17.1,0,0,0,261.1,8.873m0,32A14.923,14.923,0,1,1,276.02,25.952,14.94,14.94,0,0,1,261.1,40.876" transform="translate(-188.179 -6.843)" fill="#ff8a54"/>
  </g>
</svg>
