<svg xmlns="http://www.w3.org/2000/svg" xmlns:xlink="http://www.w3.org/1999/xlink" width="75" height="80.154" viewBox="0 0 75 80.154">
  <defs>
    <clipPath id="clip-path">
      <rect id="Retângulo_38" data-name="Retângulo 38" width="75" height="80.154" transform="translate(0 -1)" fill="none"/>
    </clipPath>
  </defs>
  <g id="icon-02" transform="translate(0 1)" clip-path="url(#clip-path)">
    <path id="Caminho_104" data-name="Caminho 104" d="M1.163,58.479a1.214,1.214,0,0,0,1.072-1.235V51.627a1.21,1.21,0,0,0-1.072-1.235A1.166,1.166,0,0,0,0,51.627v5.617a1.167,1.167,0,0,0,1.163,1.235" transform="translate(0 -40.016)" fill="#ff8a54" fill-rule="evenodd"/>
    <path id="Caminho_105" data-name="Caminho 105" d="M96.174,158.51l-.152,0a1.063,1.063,0,0,0-.974.959,14.609,14.609,0,0,0,15.766,15.463,14.734,14.734,0,0,0,9.954-5.061,14.482,14.482,0,0,0,3.472-10.616,14.15,14.15,0,0,0-5.076-10.1,14.579,14.579,0,0,0-20.572,1.591,14.919,14.919,0,0,0-2.8,5.1,1.052,1.052,0,0,0,.647,1.348,1.068,1.068,0,0,0,1.31-.637,12.7,12.7,0,0,1,2.428-4.331,12.471,12.471,0,1,1,10.343,20.639,12.438,12.438,0,0,1-13.39-13.238,1.058,1.058,0,0,0-.954-1.124" transform="translate(-75.446 -115.653)" fill="#ff8a54" fill-rule="evenodd"/>
    <path id="Caminho_106" data-name="Caminho 106" d="M133.717,171.944l-18.154-15.491a3.124,3.124,0,0,0-2.318-.766,3.419,3.419,0,0,0-1.526.542l-1.745-1.488a18.389,18.389,0,0,0,2.707-6.811,1.124,1.124,0,0,0-.9-1.212h-.16a1.2,1.2,0,0,0-1.044.874,15.965,15.965,0,0,1-3.72,7.852,16.565,16.565,0,0,1-11.358,5.7,16.738,16.738,0,0,1-12.15-3.885,16.642,16.642,0,1,1,27.522-12.73,1.32,1.32,0,0,0,.99,1.085l.075.005a1.237,1.237,0,0,0,1.093-1.114,18.8,18.8,0,0,0-33.067-11.959,18.383,18.383,0,0,0-4.491,13.64A18.6,18.6,0,0,0,82,158.979a18.962,18.962,0,0,0,13.676,4.457,18.176,18.176,0,0,0,10.9-4.663l1.725,1.469a3.192,3.192,0,0,0,.83,3.767l4.21,3.594a1.165,1.165,0,0,0,1.454-.126,1.092,1.092,0,0,0-.119-1.534l-4.125-3.519a1.142,1.142,0,0,1-.124-1.609l2.235-2.6a1.165,1.165,0,0,1,.74-.459.95.95,0,0,1,.743.348l9,7.615-3.658,4.259-2.433-2.142a1.138,1.138,0,0,0-1.542.124,1.091,1.091,0,0,0,.124,1.531l11.639,9.933a3.156,3.156,0,0,0,2.387.763,3.106,3.106,0,0,0,2.171-1.114l2.225-2.583a2.938,2.938,0,0,0,.817-2.22,3.285,3.285,0,0,0-1.16-2.33M109.552,158.5l-1.526-1.3.624-.724,1.524,1.3Zm11.461,12.828,3.656-4.248.58.5-3.671,4.2Zm2.158,1.861,3.658-4.259.815.745-3.669,4.2Zm9.316,2.008-2.217,2.583a1.354,1.354,0,0,1-1.627.137l-3.078-2.627,3.661-4.259,3.05,2.655a.809.809,0,0,1,.4.536,1.286,1.286,0,0,1-.186.974" transform="translate(-59.881 -100.048)" fill="#ff8a54" fill-rule="evenodd"/>
    <path id="Caminho_107" data-name="Caminho 107" d="M1.147,7.476a1.23,1.23,0,0,0,1.2-1.217V2.338H39.636v0H44.18l.186,12.142A1.13,1.13,0,0,0,45.476,15.6l12.024.1V56.017a1.153,1.153,0,0,0,1.2,1.121,1.132,1.132,0,0,0,1.114-1.121V14.574c.371-.284.278-.472,0-.753L46.4.282A1.29,1.29,0,0,0,45.564,0H1.147a1.129,1.129,0,0,0-1.1,1.121V6.259a1.155,1.155,0,0,0,1.1,1.217m54.875,6.069-9.162-.188-.093-9.152Z" transform="translate(-0.035)" fill="#ff8a54" fill-rule="evenodd"/>
    <path id="Caminho_108" data-name="Caminho 108" d="M57.8,154.781H2.333V103.575a1.153,1.153,0,0,0-1.116-1.209,1.227,1.227,0,0,0-1.209,1.209v52.507a1.175,1.175,0,0,0,1.209,1.207H57.754a1.254,1.254,0,1,0,.046-2.508" transform="translate(-0.006 -81.288)" fill="#ff8a54" fill-rule="evenodd"/>
  </g>
</svg>
