<svg id="logo-retail" xmlns="http://www.w3.org/2000/svg" width="313.932" height="90" viewBox="0 0 313.932 90">
  <path id="Caminho_14" data-name="Caminho 14" d="M33.158,56.4a14.017,14.017,0,0,0,3.056-8.2c.039-1.286.058-2.8.05-4.488.013-1.673-.007-3.575-.05-5.718V31.107A18.733,18.733,0,0,1,41.28,17.829,16.883,16.883,0,0,1,54.18,12.4L69.5,12.4a39.821,39.821,0,0,0-11.3-8.22A40.457,40.457,0,0,0,51.812,1.7a42.41,42.41,0,0,0-23.76,0A40.857,40.857,0,0,0,21.669,4.18a38.536,38.536,0,0,0-19.582,21.5,35.779,35.779,0,0,0-.119,23.745A36.851,36.851,0,0,0,7.717,59.971H25.831A8.912,8.912,0,0,0,33.158,56.4" transform="translate(0 -0.004)" fill="#0b4f82"/>
  <path id="Caminho_15" data-name="Caminho 15" d="M164.854,144.705a36.1,36.1,0,0,0-3.656-7.415h-19.91a9.04,9.04,0,0,0-7.422,3.518,13.941,13.941,0,0,0-3.051,8.256q-.011,1.043,0,3.692v6.7c-.007,2.93-.007,5.158,0,6.7a18.729,18.729,0,0,1-5.079,13.278,16.8,16.8,0,0,1-12.813,5.425H100.436a40.138,40.138,0,0,0,9.044,5.765,42.11,42.11,0,0,0,30.832,1.671,41.023,41.023,0,0,0,4.232-1.674,38.55,38.55,0,0,0,20.43-22.172,35.682,35.682,0,0,0-.12-23.745" transform="translate(-87.077 -119.398)" fill="#0b4f82"/>
  <path id="Caminho_16" data-name="Caminho 16" d="M746.376,181.015q11.912,2.582,11.915,9.34,0,8.777-17.386,8.772h-4.511q-8.352,0-12.188-3.747l3.44-1.592q3.2,2.561,8.756,2.558h7.312q10.688,0,10.693-5.766,0-4.951-10.17-7.121L735.6,181.64q-11.112-2.365-11.107-8.727,0-7.984,14.081-7.984h6.846q8.453,0,12.166,3.579l-3.44,1.577q-3.073-2.365-9.156-2.373H737.13q-8.749,0-8.75,5.366,0,4.057,9.029,5.995Z" transform="translate(-628.685 -143.255)" fill="#0b4f82"/>
  <path id="Caminho_17" data-name="Caminho 17" d="M1049.623,163.938q7.825,4.687,7.833,13.312a4.3,4.3,0,0,1-.248,1.55h-40.561a13.231,13.231,0,0,0,6.85,11.038,23.185,23.185,0,0,0,12.049,2.988,36.063,36.063,0,0,0,8.693-1.1,19.645,19.645,0,0,0,7.563-3.3l2.889,2.088q-6.486,5.1-19.131,5.1a28.6,28.6,0,0,1-15.019-3.822q-7.955-4.808-7.952-13.9a15.454,15.454,0,0,1,7.764-13.828,27.3,27.3,0,0,1,14.744-3.926,27.575,27.575,0,0,1,14.526,3.8m3.775,12.083a13.4,13.4,0,0,0-6.826-10.322,24.344,24.344,0,0,0-23.037,0,13.365,13.365,0,0,0-6.888,10.322Z" transform="translate(-879.077 -139.096)" fill="#0b4f82"/>
  <path id="Caminho_18" data-name="Caminho 18" d="M1384.7,76.927q2.861,0,2.858,2.077,0,2.154-2.858,2.152c-1.8,0-2.7-.716-2.7-2.152,0-1.384.9-2.077,2.7-2.077m1.995,45.9H1382.8v-34.2h3.888Z" transform="translate(-1199.573 -66.696)" fill="#0b4f82"/>
  <path id="Caminho_19" data-name="Caminho 19" d="M1500.86,42.027V92.571h-3.887V86.206a21.709,21.709,0,0,1-10.134,5.838,28.443,28.443,0,0,1-8.227,1.166,27.45,27.45,0,0,1-14.8-3.858,15.338,15.338,0,0,1-7.7-13.862q0-9.229,7.509-13.97,6.041-3.781,14.776-3.784,11.835,0,18.578,7.559V42.027Zm-14.036,46.951a22.016,22.016,0,0,0,10.149-7.12V77.22a16.126,16.126,0,0,0-4.431-11.717q-4.952-5.1-13.953-5.1a22.247,22.247,0,0,0-12.3,3.253,13.178,13.178,0,0,0-6.178,11.763q0,7.82,6.147,11.821a22.354,22.354,0,0,0,12.331,3.187,23.01,23.01,0,0,0,8.235-1.45" transform="translate(-1264.116 -36.438)" fill="#0b4f82"/>
  <path id="Caminho_20" data-name="Caminho 20" d="M1862.523,164.059a16.276,16.276,0,0,1-.03,27.655,29.664,29.664,0,0,1-29.441-.032,16.157,16.157,0,0,1,0-27.623,29.618,29.618,0,0,1,29.472,0m-2.546,25.4a14.125,14.125,0,0,0,.068-23.368,24.509,24.509,0,0,0-24.544,0,14.145,14.145,0,0,0,0,23.438,22.014,22.014,0,0,0,12.285,3.293,21.69,21.69,0,0,0,12.19-3.363" transform="translate(-1584.859 -139.095)" fill="#0b4f82"/>
  <path id="Caminho_21" data-name="Caminho 21" d="M2219.652,166.937h-.273q.451,0-5.226-.409a14.159,14.159,0,0,0-10.749,4.217q-4.28,4.418-4.272,11.964V198h-3.771V163.8h3.771v6.675q5.407-6.845,15.578-6.848.794.072,4.942.519Z" transform="translate(-1905.719 -142.129)" fill="#0b4f82"/>
  <path id="Caminho_22" data-name="Caminho 22" d="M762.345,550.747l-.1-.018q.178,0-2.017-.247a5.1,5.1,0,0,0-4.2,2.18,9.577,9.577,0,0,0-1.625,5.984v7.717H752.94V549.105H754.4v3.373a6.657,6.657,0,0,1,6.032-3.445q.3.036,1.91.268Z" transform="translate(-653.563 -476.685)" fill="#464645"/>
  <path id="Caminho_23" data-name="Caminho 23" d="M855.7,555.812a2.962,2.962,0,0,1-.089.784H839.9a7.439,7.439,0,0,0,2.159,5.117,7.074,7.074,0,0,0,5.158,1.932,10.937,10.937,0,0,0,3.373-.553,6.749,6.749,0,0,0,2.927-1.66l1.106,1.053q-2.5,2.57-7.406,2.57a8.669,8.669,0,0,1-6.434-2.49,8.764,8.764,0,0,1-2.472-6.452,8.914,8.914,0,0,1,2.427-6.425,9.1,9.1,0,0,1,12.511-.085,8.42,8.42,0,0,1,2.445,6.208m-1.589-.626a7.456,7.456,0,0,0-2.2-4.828,7.42,7.42,0,0,0-9.8,0,7.414,7.414,0,0,0-2.213,4.828Z" transform="translate(-727.692 -475.056)" fill="#464645"/>
  <path id="Caminho_24" data-name="Caminho 24" d="M1005.239,519.1h-4.676v12.332q0,2.106,1.5,2.106h1.035v1.41h-.768q-3.266,0-3.266-3.355V512.8h1.5v4.89h4.676Z" transform="translate(-867.191 -445.273)" fill="#464645"/>
  <path id="Caminho_25" data-name="Caminho 25" d="M1077.9,564.734h-1.5v-3.213a8.485,8.485,0,0,1-3.926,2.945,8.75,8.75,0,0,1-3.195.589,8.38,8.38,0,0,1-6.336-2.49,10.055,10.055,0,0,1-.089-12.912,8.958,8.958,0,0,1,13.546,1.321v-3.516h1.5Zm-1.5-5.408v-2.338a9.6,9.6,0,0,0-1.711-5.907,6.33,6.33,0,0,0-5.4-2.57,6.746,6.746,0,0,0-5.258,2.142,8.824,8.824,0,0,0-.036,10.869,6.784,6.784,0,0,0,5.294,2.124,7.1,7.1,0,0,0,3.191-.732,9.054,9.054,0,0,0,3.922-3.587" transform="translate(-920.603 -475.056)" fill="#464645"/>
  <path id="Caminho_26" data-name="Caminho 26" d="M1229.792,506.209a.97.97,0,0,1-1.106,1.089.947.947,0,0,1-1.053-1.089.931.931,0,0,1,1.053-1.053q1.107,0,1.106,1.053m-.339,22.113h-1.5V511.063h1.5Z" transform="translate(-1065.574 -438.643)" fill="#464645"/>
  <rect id="Retângulo_4" data-name="Retângulo 4" width="1.499" height="25.557" transform="translate(169.189 64.122)" fill="#464645"/>
</svg>
