<svg xmlns="http://www.w3.org/2000/svg" xmlns:xlink="http://www.w3.org/1999/xlink" width="150" height="150" viewBox="0 0 150 150">
  <defs>
    <clipPath id="clip-path">
      <rect id="Retângulo_2247" data-name="Retângulo 2247" width="86.19" height="80" fill="#fff"/>
    </clipPath>
  </defs>
  <g id="Grupo_55412" data-name="Grupo 55412" transform="translate(-580 -6274)">
    <circle id="Elipse_178" data-name="Elipse 178" cx="75" cy="75" r="75" transform="translate(580 6274)" fill="#1f84c8"/>
    <g id="Grupo_34216" data-name="Grupo 34216" transform="translate(612 6309)">
      <g id="Grupo_34215" data-name="Grupo 34215" clip-path="url(#clip-path)">
        <path id="Caminho_24732" data-name="Caminho 24732" d="M81.623,4.574A15.5,15.5,0,0,0,70.583,0h0A15.527,15.527,0,0,0,59.532,4.576a15.264,15.264,0,0,0-2,2.529L42.871,6.829a6.457,6.457,0,0,0-4.51,1.939L1.94,45.19A6.428,6.428,0,0,0,0,49.687,5.089,5.089,0,0,0,1.463,53.32L26.68,78.534A5.076,5.076,0,0,0,30.309,80a6.444,6.444,0,0,0,4.5-1.942l36.425-36.42a6.448,6.448,0,0,0,1.937-4.605l-.111-6.041A15.556,15.556,0,0,0,81.623,4.574m-13.4,34.06L31.8,75.057c-.672.667-1.712.882-2.12.474L4.464,50.314a.885.885,0,0,1-.216-.628A2.2,2.2,0,0,1,4.94,48.2L41.369,11.769a2.229,2.229,0,0,1,1.519-.693l24.737.469a.881.881,0,0,1,.606.221.858.858,0,0,1,.225.6l.269,14.438A11.23,11.23,0,0,1,63.1,24.113a7.535,7.535,0,0,0-2.191-5.019,7.78,7.78,0,0,0-10.745,0,7.6,7.6,0,0,0,5.368,12.966h0A7.529,7.529,0,0,0,60.9,29.836a7.836,7.836,0,0,0,1-1.242,15.446,15.446,0,0,0,6.9,2.464l.112,6.047a2.236,2.236,0,0,1-.694,1.529M56.021,21.21a15.611,15.611,0,0,0,2.627,4.445,3.3,3.3,0,0,1-.747,1.177,3.348,3.348,0,1,1-2.365-5.717,3.254,3.254,0,0,1,.485.1m16.952,5.5L72.7,12.288a5.009,5.009,0,0,0-5-4.991l-4.717-.089a11.272,11.272,0,0,1,7.592-2.96h0a11.371,11.371,0,0,1,8.036,19.414,11.257,11.257,0,0,1-5.646,3.05" fill="#fff"/>
      </g>
    </g>
  </g>
</svg>
