<?xml version="1.0" encoding="utf-8"?>
<!-- Generator: Adobe Illustrator 26.0.2, SVG Export Plug-In . SVG Version: 6.00 Build 0)  -->
<svg version="1.1" id="Camada_1" xmlns="http://www.w3.org/2000/svg" xmlns:xlink="http://www.w3.org/1999/xlink" x="0px" y="0px"
	 viewBox="0 0 566.9 566.9" style="enable-background:new 0 0 566.9 566.9;" xml:space="preserve">
<style type="text/css">
	.st0{fill:#0080B9;}
</style>
<g>
	<path class="st0" d="M354.8,311.9c10.1,0,18.3,7.1,18.3,15.8c0,4.6,3.7,8.3,8.3,8.3s8.3-3.7,8.3-8.3c0-15.2-11.3-28-26.6-31.5v-4.3
		c0-4.6-3.7-8.3-8.3-8.3c-4.6,0-8.3,3.7-8.3,8.3v4.3c-15.2,3.5-26.6,16.3-26.6,31.5c0,17.9,15.6,32.4,34.9,32.4
		c10.1,0,18.3,7.1,18.3,15.8s-8.2,15.8-18.3,15.8c-10.1,0-18.3-7.1-18.3-15.8c0-4.6-3.7-8.3-8.3-8.3c-4.6,0-8.3,3.7-8.3,8.3
		c0,15.2,11.3,28,26.6,31.5v3.6c0,4.6,3.7,8.3,8.3,8.3c4.6,0,8.3-3.7,8.3-8.3v-3.6c15.2-3.5,26.6-16.3,26.6-31.5
		c0-17.9-15.6-32.4-34.9-32.4c-10.1,0-18.3-7.1-18.3-15.8C336.6,319,344.8,311.9,354.8,311.9"/>
	<path class="st0" d="M445.8,294.2c-10.9-16.9-26.1-30.4-44.2-39.1c-4.2-2-9.1-0.2-11.1,3.9c-2,4.2-0.2,9.1,3.9,11.1
		c31.5,15.1,51.8,47.5,51.8,82.4c0,14.9-3.7,29.7-10.7,42.8c-2.2,4.1-0.6,9.1,3.5,11.3l3.9,1l7.3-4.4c8.2-15.5,12.6-33,12.6-50.6
		C462.8,331.7,457,311.5,445.8,294.2"/>
	<path class="st0" d="M367.3,261h0.5h0.1c4.5,0,8.3-3.7,8.3-8.3c0-4.6-3.7-8.3-8.3-8.3h-0.6c-4.6,0-8.3,3.7-8.3,8.3
		C359,257.3,362.8,261,367.3,261"/>
	<path class="st0" d="M315.4,434.8c-31.5-15.1-51.8-47.5-51.8-82.4c0-14.9,3.7-29.7,10.7-42.8c2.2-4,0.6-9.1-3.4-11.3
		c-4.1-2.2-9.1-0.6-11.3,3.5c-8.2,15.5-12.6,33-12.6,50.6c0,20.7,5.9,40.9,17,58.2c10.9,16.9,26.1,30.4,44.2,39.1l3.6,0.8
		c3.1,0,6.1-1.8,7.5-4.7C321.2,441.7,319.5,436.8,315.4,434.8"/>
	<path class="st0" d="M342.4,443.7H342c-4.6,0-8.3,3.7-8.4,8.3c0,4.6,3.7,8.3,8.3,8.3h0.6c4.6,0,8.3-3.7,8.3-8.3
		C350.7,447.5,347,443.7,342.4,443.7"/>
	<path class="st0" d="M392.6,216.3l-3.7-6.8h21.6c21.1,0,38.2-17.1,38.2-38.2c0-21-17.1-38.2-38.2-38.2H344
		c4.2-6.1,6.7-13.6,6.7-21.6c0-21.1-17.1-38.2-38.2-38.2H109.1c-21.1,0-38.2,17.1-38.2,38.2c0,21.1,17.1,38.2,38.2,38.2h66.5
		c-4.2,6.1-6.7,13.6-6.7,21.6c0,8,2.5,15.4,6.7,21.6h-21.7c-21.1,0-38.2,17.1-38.2,38.2c0,12.1,5.6,22.9,14.4,29.9
		c-8.8,7-14.4,17.8-14.4,29.9c0,12.1,5.6,22.9,14.4,29.9c-8.8,7-14.4,17.8-14.4,29.9c0,12.1,5.6,22.9,14.4,29.9
		c-8.8,7-14.4,17.8-14.4,29.9c0,21.1,17.1,38.2,38.2,38.2h97.9c25.8,27.6,62.5,44.8,103.1,44.8c77.8,0,141.2-63.3,141.2-141.2
		C496.1,287.6,452.2,232.9,392.6,216.3 M87.5,111.6c0-11.9,9.7-21.6,21.6-21.6h203.4c11.9,0,21.6,9.7,21.6,21.6
		c0,11.9-9.7,21.6-21.6,21.6H109.1C97.2,133.1,87.5,123.5,87.5,111.6 M185.5,171.4c0-11.9,9.7-21.6,21.6-21.6h203.5
		c11.9,0,21.6,9.7,21.6,21.6s-9.7,21.6-21.6,21.6h-53.2H207.1C195.1,192.9,185.5,183.3,185.5,171.4 M132.3,231.2
		c0-11.9,9.7-21.6,21.6-21.6h203.5c3.4,0,6.5,0.8,9.4,2.2c-4-0.3-7.9-0.5-11.9-0.5c-39,0-74.3,15.9-99.9,41.5H153.9
		C142,252.7,132.3,243,132.3,231.2 M132.3,291c0-11.9,9.7-21.6,21.6-21.6h86.9c-9.4,12.9-16.7,27.5-21.3,43.2h-65.5
		C142,312.5,132.3,302.8,132.3,291 M132.3,350.7c0-11.9,9.7-21.6,21.6-21.6h61.7c-1.3,7.6-1.9,15.3-1.9,23.2c0,6.8,0.5,13.4,1.4,20
		h-61.2C142,372.3,132.3,362.6,132.3,350.7 M153.9,432.1c-11.9,0-21.6-9.7-21.6-21.6c0-11.9,9.7-21.6,21.6-21.6h64.6
		c4.2,15.6,11,30.2,19.9,43.2H153.9z M354.9,477c-68.7,0-124.6-55.9-124.6-124.6c0-68.7,55.9-124.5,124.6-124.5
		c68.7,0,124.6,55.9,124.6,124.5C479.5,421.1,423.6,477,354.9,477"/>
</g>
</svg>
