<?xml version="1.0" encoding="utf-8"?>
<!-- Generator: Adobe Illustrator 26.0.2, SVG Export Plug-In . SVG Version: 6.00 Build 0)  -->
<svg version="1.1" id="Camada_1" xmlns="http://www.w3.org/2000/svg" xmlns:xlink="http://www.w3.org/1999/xlink" x="0px" y="0px"
	 viewBox="0 0 566.9 566.9" style="enable-background:new 0 0 566.9 566.9;" xml:space="preserve">
<style type="text/css">
	.st0{fill:#0080B9;}
</style>
<g>
	<path class="st0" d="M369,361.9c0-11.9,0-22.9,0-34c0-5.2-0.1-10.4,0-15.5c0.1-4.4,2.6-7.1,7-6.9c4.1,0.2,6.2,2.8,6.2,7
		c0,14.3,0,28.5,0,42.8c0,2,0,4,0,6c0.6,0.3,1.2,0.6,1.8,1c1.2-1.6,2.6-3,3.5-4.7c10.4-20.5,33.8-29.3,54.7-20.4
		c9.6,4.1,16.9,10.8,21.1,20.3c1.7,3.7,3.8,4.6,7.6,4.6c12.1-0.1,12.1,0,12.1-12.4c0-5.5,0-11,0-17c-3.1,0-5.2,0-7.4,0
		c-11.5-0.1-20.2-8-21-19.4c-0.4-5-0.3-10-0.1-15c0.2-4.6,2.7-7.1,7.5-7c6.2,0.1,12.5,0,18.8,0c-1.1-7.4-7.5-13.5-15.5-14.9
		c-2.2-0.4-4.4-0.5-6.6-0.5c-23.7,0-47.4,0.1-71.1-0.1c-4.1,0-5.5,1.2-5.4,5.3c0.2,6.2-2.1,9-6.4,9c-4.5,0-6.7-3.1-6.7-9.6
		c0-36.8,0-73.7,0-110.5c0-2.2,0-4.4,0-7.1c-85.6,0-170.8,0-256.9,0c0,2.2,0,4.4,0,6.5c0,36.7,0,73.3,0,110c0,1.5,0.1,3,0,4.4
		c-0.2,3.7-2.3,5.9-5.9,6.1c-3.9,0.3-6.3-1.9-7.1-5.6c-0.3-1.4-0.1-2.9-0.1-4.4c0-37.9,0-75.9,0-113.8c0-12,4.9-17,16.7-17
		c83.3,0,166.6,0,249.9,0c12,0,16.6,4.7,16.6,17c0,11.5,0,11.5,11.3,11.5c13,0,25.9-0.1,38.9,0c17.5,0.2,31.2,13.5,27.8,36.5
		c-0.1,0.5-0.2,1.3-0.6,1.5c-6,4.2-2.7,9.4-1.6,14.3c2.3,9.5,4.9,19,7,28.6c0.7,3.1,2,4.6,5.1,5.5c15.9,4.6,25.7,17.5,25.8,34.1
		c0.1,22.8,0.1,45.5,0,68.3c0,7-1.9,8.8-9,9c-6.3,0.1-12.5,0-18.6,0c-6.8,29.3-20.9,42.9-43.5,42.6c-22.4-0.3-36.6-14.4-42.3-42.6
		c-2.2,0-4.6,0-6.9,0c-45,0-90,0.1-134.9-0.1c-5.2,0-7.5,0.7-8.3,6.9c-2.6,20.7-20.8,35.8-41.6,35.8c-21.3-0.1-38.8-15.7-41.7-37.2
		c-0.2-1.5-0.3-2.9-0.5-5.4c-3.3,0-6.5,0-9.7,0c-8.5,0-17,0.2-25.5-0.1c-9.2-0.4-14.1-5.8-14.3-14.9c-0.1-4.2,0-8.4,0-13.4
		c-6.9,0-13.3,0-19.8,0c-5.7,0-8.3-2.2-8.3-6.6c0-4.4,2.6-6.5,8.3-6.5c20,0,40,0,60,0c4.6,0,8.2,1,8.5,6.4c0.2,4.6-2.6,6.7-8.7,6.8
		c-8.7,0-17.3,0-26.4,0c0,5,0,9.5,0,14.5c1.6,0.2,3.2,0.4,4.8,0.4c6.7,0,13.4-0.5,20,0.1c8.8,0.8,14-1.4,19.3-9.8
		c16.9-26.9,57.3-24.1,71.8,4.4c2.1,4.2,4.4,5.4,8.8,5.4c41.6-0.2,83.3-0.1,124.9-0.1C364.1,361.9,366.1,361.9,369,361.9z
		 M382.2,219.2c0,13.1,0.2,25.5-0.1,37.8c-0.1,4.3,1.2,5.7,5.6,5.7c19.8-0.2,39.5-0.1,59.3-0.1c1.6,0,3.2-0.2,5.4-0.4
		c-3.5-13.9-6.8-27.3-10.2-40.7c-0.3-1-2-2.2-3.1-2.2C420.4,219.2,401.7,219.2,382.2,219.2z M454.3,376c0.1-16-12.8-29-28.7-29.1
		c-15.9-0.1-29,13-29,28.9c0,15.7,12.8,28.6,28.6,28.7C441.2,404.7,454.3,391.9,454.3,376z M219.8,375.8c0-16-13-28.9-29-28.8
		c-15.6,0-28.6,12.9-28.8,28.5c-0.1,16,12.8,29,28.7,29.1C206.9,404.6,219.8,391.7,219.8,375.8z M446.6,205.6
		c0.2-9.1-5.6-14.8-15.1-14.9c-13.3-0.2-26.6-0.1-40,0c-10.7,0.1-9-1.4-9.5,9.5c-0.2,4.7,1.4,5.9,5.9,5.9
		c17.9-0.2,35.9-0.1,53.8-0.1C443.5,205.9,445.1,205.7,446.6,205.6z M467.7,304.4c0,3.5-0.3,5.9,0.1,8.2c0.7,5.1,4.5,7.1,11.3,6.9
		c5.9-0.2,3.7-4.5,3.7-7.2c0.3-7.8,0.1-7.9-8-7.8C472.7,304.4,470.5,304.4,467.7,304.4z"/>
	<path class="st0" d="M234.1,274c17.1-17.3,33.9-34.2,50.7-51.1c2.5-2.5,4.9-5,7.5-7.4c3.1-2.9,6.7-3.5,9.9-0.3
		c3.1,3.2,2.5,6.8-0.5,9.8c-20.9,21-41.8,41.9-62.8,62.8c-3.5,3.5-7.3,3.2-10.8-0.3c-11.3-11.2-22.5-22.5-33.8-33.7
		c-3.2-3.2-4.3-6.7-0.8-10.2c3.4-3.4,7.1-2.5,10.3,0.7c9.2,9.1,18.3,18.3,27.5,27.4C231.9,272.2,232.6,272.7,234.1,274z"/>
	<path class="st0" d="M297.6,333.7c15.7,0,31.5,0,47.2,0c6,0,9.1,2.2,9.2,6.4c0.1,4.2-3.3,6.7-9,6.7c-31.6,0-63.3,0-94.9,0
		c-5.8,0-9.1-2.5-8.8-6.8c0.4-5.3,4-6.4,8.6-6.4C265.8,333.8,281.7,333.7,297.6,333.7z"/>
	<path class="st0" d="M134.1,318.6c-12.9,0-25.9,0-38.8,0c-1.8,0-4.1,0.4-5.4-0.6c-2-1.5-4.8-3.9-4.7-5.8c0.1-2.3,2.6-4.9,4.7-6.4
		c1.4-1,3.9-0.6,5.9-0.6c25.5,0,51,0,76.5,0c1.7,0,3.4-0.1,5,0.2c3.7,0.6,6.6,3,5.7,6.7c-0.6,2.4-3.4,4.5-5.7,6.2
		c-1.1,0.8-3.2,0.3-4.9,0.3C159.6,318.6,146.9,318.6,134.1,318.6z"/>
	<path class="st0" d="M439.2,375.9c0,7.7-6,13.5-13.8,13.4c-7.7-0.1-13.6-6-13.5-13.7c0.1-7.5,6.3-13.7,13.8-13.6
		C433,362,439.2,368.3,439.2,375.9z"/>
	<path class="st0" d="M204.5,375.8c0,7.8-5.8,13.5-13.7,13.5c-7.6-0.1-13.8-6.3-13.7-13.7c0.1-7.4,6.5-13.7,13.9-13.7
		C198.5,362,204.5,368.2,204.5,375.8z"/>
</g>
</svg>
