<?xml version="1.0" encoding="utf-8"?>
<!-- Generator: Adobe Illustrator 26.0.2, SVG Export Plug-In . SVG Version: 6.00 Build 0)  -->
<svg version="1.1" id="Camada_1" xmlns="http://www.w3.org/2000/svg" xmlns:xlink="http://www.w3.org/1999/xlink" x="0px" y="0px"
	 viewBox="0 0 566.9 566.9" style="enable-background:new 0 0 566.9 566.9;" xml:space="preserve">
<style type="text/css">
	.st0{fill:#0080B9;}
</style>
<g>
	<path class="st0" d="M415.5,70.8c6.7,1.6,13.6,2.6,20.1,4.8c55.2,19.1,77.5,82.8,46.1,131.9c-3.7,5.8-8.3,11.1-13.2,15.9
		c-35.6,35.8-71.4,71.5-107.1,107.2c-19.2,19.3-42.4,28.8-69.6,27.3c-22.1-1.3-41.2-10-57-25.6c-7-6.9-7.2-17.5-0.6-24.7
		c6.5-7,17.3-7.8,24.6-1.1c11.7,10.8,25.1,16.8,41.3,15.9c12.2-0.7,22.8-5.1,32-13l7.4-7.2c34.8-34.8,69.8-69.6,104.5-104.5
		c20.7-20.8,22-52.1,3.1-73.5c-19.5-22.2-53.4-24.5-75.1-4.5c-15.3,14.2-29.7,29.4-44.5,44.1c-5.9,5.9-11.7,11.9-17.7,17.6
		c-7.6,7.3-18.3,7.3-25.3,0.3c-7-7-7-17.8,0.4-25.3c20.6-20.7,41.1-41.4,62-61.8c13.7-13.4,30.5-20.8,49.4-23.2l2.3-0.8H415.5z"/>
	<path class="st0" d="M70.9,398.9c1.4-6,2.5-12.1,4.2-18c4.3-14.4,12.3-26.5,22.8-37.1c32.7-32.7,65.3-65.4,98.1-98
		c28.4-28.2,67.4-35.1,103-17.6c8.4,4.1,16,10.3,23.1,16.6c7.4,6.5,7.1,17.5,0.5,24.6c-6.5,6.8-17.1,7.6-24.3,1.1
		c-8.7-7.7-18.1-13.7-29.7-15.4c-16.4-2.5-31,1.4-43.6,12.2l-10.4,10.1c-30.5,30.5-61.1,61-91.6,91.6c-18.3,18.4-21.8,44.4-9,65.8
		c17.1,28.7,56.5,35,81,12.2c17.5-16.3,34-33.7,51-50.6c5.3-5.3,11.3-7.9,18.8-5.7c12,3.5,16.7,17.9,9,27.7l-1.6,1.9
		c-17.9,17.7-35.2,36.1-53.7,53.2C170.2,517.8,89.9,493.5,73.9,430c-1.2-4.8-2-9.7-3.1-14.5V398.9z"/>
	<path class="st0" d="M216.2,70.8c10.7,3.7,14.6,11.4,14.2,22.4c-0.5,16,0,32.1-0.2,48.1c0,8.2-4.8,14.7-12.1,17.1
		c-7.2,2.4-15.3,0.2-19.5-6.2c-2.1-3.3-3.6-7.6-3.7-11.5c-0.4-17-0.2-34-0.2-51c0-9.7,5.3-15.5,13.9-18.9H216.2z"/>
	<path class="st0" d="M70.9,208.7l3.5-6.5c2.7-3.9,6.5-6.8,11.3-6.9c19.6-0.2,39.3-0.5,58.8,0.1c8.1,0.2,13.7,7.1,14.8,15.4
		c0.9,7.7-3.6,15.4-11,18.1l-8.5,1.4c-15.5,0.1-31-0.3-46.5,0.2c-11,0.3-18.7-3.6-22.4-14.2V208.7z"/>
	<path class="st0" d="M194.8,177.1c-0.2,7.3-3.4,12.8-10,15.9c-6.4,3-12.6,2.3-18.4-1.9l-3.1-2.7c-16.9-16.9-33.9-33.8-50.7-50.8
		c-10.5-10.6-7.1-26.5,6.5-30.5c6-1.8,11.6-0.7,16.3,3.4c3.9,3.5,7.6,7.3,11.3,11c13.9,13.9,27.8,27.8,41.7,41.7
		C192.2,167.1,194.9,171.4,194.8,177.1"/>
	<path class="st0" d="M460.5,442.9c-0.2,7.3-3.5,12.7-10.1,15.9c-6.4,3.1-12.6,2.3-18.3-1.9l-4.3-3.9c-16.6-16.5-33.1-33-49.6-49.6
		c-8.4-8.5-8.2-20.4,0.4-27.3c6.3-5.1,15.1-5.3,21.5-0.5l3.4,3c16.8,16.8,33.7,33.7,50.5,50.4C458,432.9,460.7,437.2,460.5,442.9"/>
	<path class="st0" d="M452.1,336.6c9,0,18-0.2,26.9,0c8.8,0.3,15.7,6.8,16.9,15.4c1.1,8.3-4.1,16.6-12.2,19l-7.3,1
		c-16.5,0.1-32.9,0.1-49.4,0c-12.8-0.1-21.1-9.3-19.1-20.9c1.4-8.4,8.5-14.3,17.6-14.6h0.8L452.1,336.6L452.1,336.6z"/>
	<path class="st0" d="M372.1,451.9c0,8.4,0.2,16.9,0,25.3c-0.3,14.8-14.3,23.5-26.5,16.4c-5.8-3.3-8.8-8.5-8.9-15
		c-0.2-17.8-0.2-35.7,0-53.5c0.1-9.8,7.4-17,16.9-17.6c9.1-0.5,17.4,6.2,18,15.7c0.7,9.5,0.2,19.1,0.2,28.6H372.1z"/>
</g>
</svg>
