<svg xmlns="http://www.w3.org/2000/svg" xmlns:xlink="http://www.w3.org/1999/xlink" width="150" height="150" viewBox="0 0 150 150">
  <defs>
    <clipPath id="clip-path">
      <rect id="Retângulo_2363" data-name="Retângulo 2363" width="77.099" height="102" fill="#fff"/>
    </clipPath>
  </defs>
  <g id="Grupo_55386" data-name="Grupo 55386" transform="translate(8607 12949)">
    <circle id="Elipse_181" data-name="Elipse 181" cx="75" cy="75" r="75" transform="translate(-8607 -12949)" fill="#1f84c8"/>
    <g id="Grupo_55387" data-name="Grupo 55387" transform="translate(-8571.023 -12925.004)">
      <g id="Grupo_55386-2" data-name="Grupo 55386" transform="translate(0 0.004)" clip-path="url(#clip-path)">
        <path id="Caminho_24894" data-name="Caminho 24894" d="M211.237,752.3h-32.5a.815.815,0,0,0-.815.815V757.1a.815.815,0,0,0,.815.815h32.5a.815.815,0,0,0,.815-.815v-3.982a.815.815,0,0,0-.815-.815" transform="translate(-159.802 -675.667)" fill="#fff"/>
        <path id="Caminho_24895" data-name="Caminho 24895" d="M211.237,831.094h-32.5a.815.815,0,0,0-.815.815v3.983a.815.815,0,0,0,.815.815h32.5a.815.815,0,0,0,.815-.815v-3.983a.815.815,0,0,0-.815-.815" transform="translate(-159.802 -746.431)" fill="#fff"/>
        <path id="Caminho_24896" data-name="Caminho 24896" d="M233.875,906.444H205.983c-.231,0-.376.154-.26.278l5.1,5.442a11.307,11.307,0,0,0,5.311,2.931l3.678.995a.475.475,0,0,0,.241,0l3.678-.995a11.306,11.306,0,0,0,5.311-2.931l5.1-5.442c.116-.123-.029-.278-.26-.278" transform="translate(-184.729 -814.105)" fill="#fff"/>
        <path id="Caminho_24897" data-name="Caminho 24897" d="M18.985,71.8a26.264,26.264,0,0,0-3.831-12c-3.182-5.178-5.4-8.662-6.6-10.354a28.4,28.4,0,0,1,23.187-44.8V1.305A31.74,31.74,0,0,0,5.826,51.371c1.42,2,4.223,6.5,6.482,10.172a22.935,22.935,0,0,1,3.4,12.007v1.586H31.739V71.8Z" transform="translate(0 -1.172)" fill="#fff"/>
        <path id="Caminho_24898" data-name="Caminho 24898" d="M415.069,27.658,408.45,26.8l4.059-5.151a6.746,6.746,0,0,0-.615-9.035l-3.666-3.561a7.134,7.134,0,0,0-5-2.012,7.247,7.247,0,0,0-4.3,1.415l-5.3,3.943-.88-6.431A7.029,7.029,0,0,0,385.734,0h-2.592V4.322h2.592A2.6,2.6,0,0,1,388.34,6.54l1.1,8.014a2.962,2.962,0,0,0,1.88,2.356q.33.127.654.264a3.109,3.109,0,0,0,3.05-.372l6.609-4.914a2.686,2.686,0,0,1,3.457.222l3.666,3.561a2.5,2.5,0,0,1,.229,3.358l-5.058,6.42a2.88,2.88,0,0,0-.383,2.963q.141.315.271.636a3.021,3.021,0,0,0,2.425,1.826l8.249,1.065a2.58,2.58,0,0,1,2.282,2.531v5.036a2.58,2.58,0,0,1-2.282,2.531L406.235,43.1a3.021,3.021,0,0,0-2.425,1.826q-.131.32-.271.636a2.88,2.88,0,0,0,.383,2.963l5.058,6.42a2.5,2.5,0,0,1-.229,3.358l-3.666,3.561a2.686,2.686,0,0,1-3.457.222l-6.609-4.914a3.109,3.109,0,0,0-3.05-.372q-.324.137-.654.264a2.962,2.962,0,0,0-1.88,2.356l-1.1,8.014a2.6,2.6,0,0,1-2.606,2.217h-2.592v4.317h2.592A7.029,7.029,0,0,0,392.745,68l.88-6.431,5.3,3.943a7.247,7.247,0,0,0,4.3,1.415h0a7.133,7.133,0,0,0,5-2.013l3.665-3.561a6.746,6.746,0,0,0,.615-9.035l-4.059-5.151,6.619-.854a6.962,6.962,0,0,0,6.141-6.811V34.469a6.962,6.962,0,0,0-6.141-6.811" transform="translate(-344.111 -0.005)" fill="#fff"/>
        <path id="Caminho_24899" data-name="Caminho 24899" d="M344.326,223.181v4.075a10.247,10.247,0,1,1,0,20.477v4.075c8.233,0,14.906-6.408,14.906-14.313s-6.674-14.313-14.906-14.313" transform="translate(-309.25 -200.446)" fill="#fff"/>
      </g>
    </g>
  </g>
</svg>
