<?xml version="1.0" encoding="utf-8"?>
<!-- Generator: Adobe Illustrator 26.0.2, SVG Export Plug-In . SVG Version: 6.00 Build 0)  -->
<svg version="1.1" id="Camada_1" xmlns="http://www.w3.org/2000/svg" xmlns:xlink="http://www.w3.org/1999/xlink" x="0px" y="0px"
	 viewBox="0 0 566.9 566.9" style="enable-background:new 0 0 566.9 566.9;" xml:space="preserve">
<style type="text/css">
	.st0{fill:#0080B9;}
</style>
<g>
	<rect x="112" y="259.6" class="st0" width="68.6" height="13.7"/>
	<rect x="112" y="300.8" class="st0" width="102.9" height="13.7"/>
	<rect x="112" y="342" class="st0" width="246.9" height="13.7"/>
	<rect x="112" y="383.1" class="st0" width="41.2" height="13.7"/>
	<rect x="180.6" y="383.1" class="st0" width="41.2" height="13.7"/>
	<rect x="249.2" y="383.1" class="st0" width="41.2" height="13.7"/>
	<path class="st0" d="M352.1,252.7c-5,0-9.6,1.4-13.6,3.8c-4.2-2.4-8.9-3.8-13.8-3.8c-15.1,0-27.4,12.3-27.4,27.4
		c0,15.2,12.3,27.5,27.4,27.5c5,0,9.6-1.4,13.8-3.8c4,2.3,8.6,3.8,13.6,3.8c15.2,0,27.5-12.3,27.5-27.5
		C379.6,265,367.3,252.7,352.1,252.7 M328.2,293.4l-3.5,0.5c-7.5,0-13.7-6.2-13.7-13.7c0-7.5,6.2-13.7,13.7-13.7l3.5,0.5
		c-2.2,3.9-3.5,8.4-3.5,13.2C324.6,285,326,289.5,328.2,293.4 M352.1,293.9c-7.5,0-13.7-6.2-13.7-13.7c0-7.5,6.2-13.7,13.7-13.7
		c7.5,0,13.7,6.2,13.7,13.7C365.8,287.7,359.6,293.9,352.1,293.9"/>
	<path class="st0" d="M481.8,221L194,130.1c-2-0.7-18.1-5.9-25.8,13.4l-23.7,74.9H91.4c-11.4,0.1-20.6,9.3-20.6,20.6v178.4
		c0,11.4,9.2,20.6,20.6,20.6h301.8c7.2,0,13.5-3.7,17.2-9.3l11.4,2.6c9,0,16.9-5.8,19.6-14.4l53.7-170.1
		C496.8,241.6,498,225.4,481.8,221 M173,173.8l141.4,44.6h-91.2l-58.5-18.5L173,173.8z M160.6,213.1l17.2,5.5h-18.9L160.6,213.1z
		 M400.1,417.4c0,3.8-3.1,6.8-6.8,6.8H91.4c-3.8,0-6.9-3.1-6.9-6.8V239c0-3.8,3.1-6.8,6.9-6.8h301.8c3.8,0,6.8,3.1,6.8,6.8
		L400.1,417.4L400.1,417.4z M428.3,412.8c-1.1,3.5-5.1,5.6-8.6,4.4l-5.9-1.9V293.1l47.6,15.1L428.3,412.8z M465.5,295l-51.7-16.3
		v-28.8l60,18.9L465.5,295z M482.1,242.7l-4.1,13.1l-64.5-20.3c-1.8-9.6-10.1-16.9-20.2-16.9h-33.4l-182.8-57.8l4.1-13.1
		c1.1-3.5,5-5.6,8.6-4.4l287.8,90.8C483.3,235.6,482.6,240.9,482.1,242.7"/>
</g>
</svg>
