<svg xmlns="http://www.w3.org/2000/svg" width="150" height="150" viewBox="0 0 150 150">
  <g id="Grupo_55413" data-name="Grupo 55413" transform="translate(-885 -6274)">
    <circle id="Elipse_179" data-name="Elipse 179" cx="75" cy="75" r="75" transform="translate(885 6274)" fill="#1f84c8"/>
    <path id="Caminho_24725" data-name="Caminho 24725" d="M37.029,40.674l6.108-7.834V66.429l-29.2-8.137V35.215L35.43,41.2l.977.27Zm9.152-7.834,6.106,7.834.625.8.974-.27,21.491-5.99V58.293l-29.2,8.137Zm-40-2.935,6.805-8.732,29.083,8.105-6.808,8.728Zm41.063-.627,29.08-8.105,6.808,8.732-29.083,8.1ZM18.072,19.442l26.587-7.408,26.587,7.408L44.659,26.85ZM6.026,11.409,34.839,3.384l6.805,6.34-28.813,8.03ZM47.673,9.724l6.805-6.34,28.813,8.026-6.808,6.345ZM53.651,0l-.62.579-8.373,7.8L36.286.582,35.666,0l-.817.229L2.609,9.215,0,9.941l1.98,1.847,8.39,7.818L2.4,29.826,1.008,31.613l2.185.608,7.7,2.15V60.593l1.116.314,31.123,8.672L44.659,70l1.522-.424L77.3,60.907l1.119-.314V34.371l7.7-2.15,2.185-.608-1.394-1.787-7.968-10.22,8.39-7.818,1.98-1.847-2.609-.726L54.469.232Z" transform="translate(915 6313.997)" fill="#fff"/>
  </g>
</svg>
