<?xml version="1.0" encoding="utf-8"?>
<!-- Generator: Adobe Illustrator 26.0.2, SVG Export Plug-In . SVG Version: 6.00 Build 0)  -->
<svg version="1.1" id="Camada_1" xmlns="http://www.w3.org/2000/svg" xmlns:xlink="http://www.w3.org/1999/xlink" x="0px" y="0px"
	 viewBox="0 0 566.9 566.9" style="enable-background:new 0 0 566.9 566.9;" xml:space="preserve">
<style type="text/css">
	.st0{fill:#0080B9;}
</style>
<g>
	<path class="st0" d="M109.1,496.1c-3.1-1.2-6.4-1.9-9.2-3.5c-9.1-5.1-14-13.1-14.8-23.5c-0.1-1.2-0.1-2.5-0.1-3.7
		c0-121.2,0-242.4,0-363.6c0-8.2,2-15.6,7.7-21.7c5.5-5.8,12.3-9,20.3-9c66.4-0.1,132.8-0.1,199.3,0c15.4,0,27.4,12.2,27.9,27.7
		c0,0.6,0,1.1,0,1.7c0,122,0,244.1,0,366.1c0,12.2-5.3,21.2-16.1,26.8c-2.3,1.2-4.8,1.9-7.3,2.8
		C247.5,496.1,178.3,496.1,109.1,496.1z M325.9,265.6c0-54.9,0-109.9,0-164.8c0-10.1-5.6-15.7-15.6-15.7c-6.6,0-13.3,0.1-19.9-0.1
		c-2.7-0.1-4.6,0.7-6.4,2.8c-4.7,5.4-9.7,10.7-14.5,16c-5.9,6.5-13.3,9.7-22.1,9.6c-23-0.1-45.9-0.1-68.9,0c-9,0-16.4-3.3-22.4-9.8
		c-5-5.4-9.9-10.8-15.1-16c-1.4-1.3-3.7-2.3-5.6-2.4c-6.4-0.3-12.7-0.1-19.1-0.1c-11.6,0-17,5.3-17,17c0,109,0,218.1,0,327.1
		c0,12.1,5.1,17.2,17.1,17.2c64.1,0,128.1-0.2,192.2,0.2c11.1,0.1,17.6-6.1,17.6-17.8C325.7,374.4,325.9,320,325.9,265.6z
		 M325.8,456.7c-7.9,4.9-16.3,3.8-24.6,3.8c-57.3,0-114.5,0.1-171.8,0c-10.1,0-20.5,1.8-30.3-3.7c0,3,0,5.3,0,7.7
		c0,12.2,5.2,17.4,17.4,17.4c64,0,128.1,0,192.1,0c1.4,0,2.8,0.1,4.1-0.1c6.8-0.6,12.4-5.8,12.9-12.4
		C326.1,465.4,325.8,461.4,325.8,456.7z M266.9,85.3c-36.5,0-72.1,0-107.7,0c-0.3,0.4-0.7,0.9-1,1.3c3.1,2.7,6.3,5.3,9.3,8.1
		c3.1,2.9,6.5,4.5,10.8,4.5c23.1,0,46.2,0.1,69.3-0.2c3.1,0,6.6-1.4,9.1-3.2C260.3,93,263.2,89.2,266.9,85.3z"/>
	<path class="st0" d="M408,496.1c-5.8-1.1-11.8-1.8-17.4-3.4c-5.1-1.5-10.1-3.7-14.8-6.3c-5.2-2.9-7.5-7.7-7.5-13.8
		c0.1-74,0.1-148,0-222c0-7.7,3.7-12.4,10-15.8c8.4-4.6,17.6-6.4,27-7.3c14.8-1.4,29.6-0.9,43.9,3.7c3.3,1,6.4,2.5,9.5,4.1
		c6.2,3.4,9.1,8.5,9.1,15.9c-0.2,73.5-0.2,146.9,0,220.4c0,8-3.2,13.8-10.1,16.4c-8.2,3.2-16.9,4.9-25.3,7.2c-1.4,0.4-3,0.6-4.4,0.8
		C421.3,496.1,414.7,496.1,408,496.1z M453.6,433.7c-23.9,7.5-47.2,7.5-71,0c0,2.4,0,4.2,0,6c0,7.1,0.2,7.7,6.9,9.7
		c18.6,5.6,37.4,5.7,56,0.3c8.1-2.3,8.1-2.6,8.1-10.8C453.6,437.4,453.6,435.9,453.6,433.7z M382.7,462.1c0,2,0,3.2,0,4.5
		c-0.1,9.2-0.1,9.4,8.9,11.9c11.7,3.4,23.7,4.4,35.7,2.9c7.7-1,15.3-3.2,22.9-5.1c1.4-0.4,3.1-2.2,3.3-3.6c0.5-3.3,0.2-6.8,0.2-10.6
		C429.8,469.5,406.6,469.6,382.7,462.1z M383,377.1c-0.4,13.8-2.7,12.9,11.4,16.9c12.5,3.5,25.5,3.5,38.3,1.7
		c6-0.8,11.8-2.8,17.5-4.6c1.4-0.4,3.1-2.2,3.3-3.6c0.5-3.3,0.2-6.7,0.2-10.5C429.8,384.4,406.5,384.5,383,377.1z M453.6,265.1
		c-12.2,1.4-23.9,3.9-35.7,3.9c-11.7,0-23.3-2.5-35-3.9c-0.6,12.6-2.3,11.6,10.7,15.4c11.1,3.3,22.6,3.9,34.1,2.4
		c7.6-1,15-3.1,22.5-5.1c1.4-0.4,3-2.5,3.3-4C454,270.7,453.6,267.5,453.6,265.1z M383,292.1c-0.6,14-2.4,12.9,10.7,16.8
		c11.4,3.3,23.2,3.8,35,2.3c7.2-0.9,14.3-3,21.3-4.9c1.5-0.4,3.2-2.4,3.5-3.9c0.5-3.2,0.2-6.5,0.2-10.3
		C429.9,299.4,406.6,299.5,383,292.1z M453.6,320.4c-23.8,7.4-47.2,7.4-70.5,0.1c-0.8,14-2.3,12.9,10.5,16.7
		c11.8,3.5,24.1,3.7,36.2,2.2c6.8-0.9,13.5-2.9,20.1-4.8c1.5-0.4,3.3-2.4,3.6-3.8C454,327.6,453.6,324.3,453.6,320.4z M453.6,405.4
		c-23.9,7.5-47.3,7.4-71,0c0,2.4,0,4.2,0,6c0,7.1,0.1,7.7,6.9,9.7c18.6,5.6,37.4,5.7,56,0.3c8.2-2.3,8.1-2.6,8.1-10.8
		C453.6,409.1,453.6,407.6,453.6,405.4z M383.1,348.8c-0.9,14-2.2,12.9,10.3,16.7c12.3,3.7,25.1,3.7,37.8,2.1
		c6.4-0.8,12.6-2.8,18.8-4.7c1.5-0.4,3.2-2.4,3.4-3.9c0.5-3.2,0.2-6.5,0.2-10.3C429.9,356,406.7,356.2,383.1,348.8z M383.9,248.1
		c14.3,9.8,58.6,8.8,68.3-0.2C438.9,238.7,397.1,238.7,383.9,248.1z"/>
	<path class="st0" d="M416,198.4c-36-2-63.5-31.5-61.6-66.1c1.9-36.3,31.6-63.2,67.6-61.3c34.7,1.8,61.9,32.3,59.9,67.3
		C479.9,172.7,449.7,200.3,416,198.4z M418.2,184.3c28.1-0.5,50-22.8,49.5-50.7c-0.4-27.1-23.3-49-50.8-48.6
		c-26.8,0.5-48.8,23.2-48.5,50C368.8,162.3,391.5,184.7,418.2,184.3z"/>
	<path class="st0" d="M233.8,403.7c4.9,0,9.3,0,14.2,0c0-1.8,0-3.4,0-5c0-49.1,0-98.2,0-147.4c0-12.4,5.2-17.6,17.7-17.6
		c5.3,0,10.5,0,15.8,0c10.6,0,16.2,5.6,16.2,16.1c0,49.7,0,99.3,0,149c0,1.5,0,3,0,5c2.5,0,4.6-0.1,6.8,0c4.5,0.2,7.5,3.2,7.3,7.3
		c-0.1,4-3,6.7-7.4,6.8c-8.7,0.1-17.4,0-26.1,0c-51.3,0-102.7,0-154,0c-1.4,0-2.8,0.1-4.1-0.1c-3.7-0.3-5.9-2.4-6.5-5.9
		c-0.6-3.4,1-5.9,4-7.4c0.9-0.4,1.8-0.7,3-1.2c0-10.8,0-21.7,0-32.7c0-10-0.1-19.9,0-29.9c0.1-9.2,5.8-14.9,15.1-15
		c6.1-0.1,12.2,0,18.3,0c10.5,0,16.1,5.5,16.1,16.2c0,18.8,0,37.6,0,56.4c0,1.6,0,3.3,0,5.1c4.8,0,9.2,0,14.2,0c0-1.6,0-3.2,0-4.8
		c0-35,0-70,0-105c0-12.6,5-17.5,17.6-17.5c5.4,0,10.8,0,16.2,0c10.2,0.1,15.7,5.6,15.7,15.7c0,35.4,0,70.8,0,106.3
		C233.8,400,233.8,401.6,233.8,403.7z M283.2,403.8c0-52.1,0-103.7,0-155.5c-7.1,0-13.9,0-20.8,0c0,52,0,103.7,0,155.5
		C269.5,403.8,276.2,403.8,283.2,403.8z M198.8,290.8c0,37.9,0,75.4,0,112.9c7,0,13.7,0,20.6,0c0-37.7,0-75.3,0-112.9
		C212.5,290.8,205.9,290.8,198.8,290.8z M155.5,403.7c0-21.4,0-42.3,0-63.3c-7,0-13.7,0-20.6,0c0,21.2,0,42.2,0,63.3
		C141.9,403.7,148.6,403.7,155.5,403.7z"/>
	<path class="st0" d="M263.9,170.1c-5.4,0-9.9,0.1-14.4,0c-5.5-0.1-8.4-2.6-8.5-7c0-4.4,2.9-7.1,8.3-7.2c10.5-0.1,21-0.2,31.5,0
		c7.7,0.2,9.4,2.1,9.5,9.8c0.1,8,0.1,16,0.1,24.1c0,5.4-2.6,8.5-6.9,8.7c-4.4,0.1-7.2-3.1-7.3-8.7c-0.1-3.2-0.1-6.4-0.1-9.5
		c0-0.1-0.1-0.2-0.5-1c-1.2,0.9-2.3,1.8-3.3,2.7c-44.5,38.4-89,76.8-133.5,115.3c-2.2,1.9-4.5,3.7-6.8,5.5
		c-3.7,2.8-7.7,2.6-10.2-0.4c-2.8-3.2-2.3-7.3,1.5-10.6c9.5-8.3,19-16.5,28.6-24.7c36.5-31.4,72.9-62.8,109.4-94.3
		C262.1,172.1,262.6,171.4,263.9,170.1z"/>
	<path class="st0" d="M419.2,170c-12.2,0-21.8-8.9-22.2-19.4c-0.2-5.2,2-8.4,6.1-8.8c4.1-0.4,7,2.2,8,7.2c0.9,4.9,3.6,7.2,7.8,6.8
		c3.6-0.3,6.4-3.4,6.3-7c-0.1-3.9-2.9-6.6-7.7-7.1c-15-1.6-23.9-14.3-19.5-27.8c3.1-9.4,12.4-15.6,22.1-14.6
		c9.9,1,17.8,8.7,19.1,18.4c0.7,5.1-1.5,9.1-5.5,9.7c-4.6,0.7-7.4-1.7-8.5-7.3c-0.9-4.4-3.9-7-7.6-6.7c-3.6,0.3-6.4,3.3-6.4,6.9
		c-0.1,4.2,2.5,6.7,7.4,7.2c12,1.2,19.8,8.7,20.8,19.9c0.8,9.5-5.6,18.9-15.2,21.7C422.2,169.7,420.1,169.9,419.2,170z"/>
</g>
</svg>
