<?xml version="1.0" encoding="utf-8"?>
<!-- Generator: Adobe Illustrator 26.0.2, SVG Export Plug-In . SVG Version: 6.00 Build 0)  -->
<svg version="1.1" id="Camada_1" xmlns="http://www.w3.org/2000/svg" xmlns:xlink="http://www.w3.org/1999/xlink" x="0px" y="0px"
	 viewBox="0 0 566.9 566.9" style="enable-background:new 0 0 566.9 566.9;" xml:space="preserve">
<style type="text/css">
	.st0{fill:#0080B9;}
</style>
<g>
	<g>
		<path class="st0" d="M157.6,481.9c-10,0-15.6-5.7-15.6-15.7c0-19.8,0-39.6,0-59.4h125.3v-14.2H142c0-30.4,0-60.8,0-91.2
			c0-52.5,0.2-105.1-0.1-157.6h226.9c0,60.1,0,120.1,0,180.2h14.2c0-74.1,0-148.2,0-222.3c0-1.2,0-2.5-0.1-3.7
			c-0.8-10.4-5.7-18.4-14.8-23.5c-2.8-1.6-6.1-2.4-9.2-3.5c-69.2,0-138.4,0-207.6,0c-2.4,0.9-5,1.6-7.3,2.8
			c-10.8,5.6-16.2,14.6-16.2,26.8c0,122,0,244.1,0,366.1c0,0.6,0,1.1,0,1.7c0.4,15.5,12.4,27.7,27.9,27.7c49.2,0.1,98.5,0.1,147.7,0
			v-14.2L177.5,482C170.9,481.8,164.2,481.9,157.6,481.9z M142.1,97.5c0.5-6.6,6.1-11.9,12.9-12.4c1.4-0.1,2.8-0.1,4.1-0.1
			c64,0,128.1,0,192.1,0c12.2,0,17.4,5.2,17.4,17.4c0,2.3,0,4.7,0,7.7l0,19.5H141.9l0.2-19.3C142,105.5,141.8,101.5,142.1,97.5z"/>
		<polygon class="st0" points="439.2,365.7 419.2,345.8 346.6,418.4 320.3,392.1 300.3,412 326.7,438.4 326.7,438.4 346.6,458.3 
			346.6,458.3 346.6,458.3 366.5,438.4 366.5,438.4 		"/>
		<rect x="241.7" y="430.7" class="st0" width="27.3" height="27.3"/>
	</g>
	<rect x="168.1" y="254.3" class="st0" width="27.3" height="27.3"/>
	<rect x="241.7" y="254.3" class="st0" width="27.3" height="27.3"/>
	<rect x="315.5" y="254.3" class="st0" width="27.3" height="27.3"/>
</g>
</svg>
