<svg xmlns="http://www.w3.org/2000/svg" xmlns:xlink="http://www.w3.org/1999/xlink" width="150" height="150" viewBox="0 0 150 150">
  <defs>
    <clipPath id="clip-path">
      <rect id="Retângulo_2244" data-name="Retângulo 2244" width="94.013" height="90" transform="translate(0 0)" fill="#fff"/>
    </clipPath>
  </defs>
  <g id="Grupo_55411" data-name="Grupo 55411" transform="translate(-272 -6274)">
    <circle id="Elipse_177" data-name="Elipse 177" cx="75" cy="75" r="75" transform="translate(272 6274)" fill="#1f84c8"/>
    <g id="Grupo_34209" data-name="Grupo 34209" transform="translate(300 6304.004)">
      <g id="Grupo_34208" data-name="Grupo 34208" transform="translate(0 -0.004)" clip-path="url(#clip-path)">
        <path id="Caminho_24716" data-name="Caminho 24716" d="M24.939,435.41c.3-.677.59-1.275.876-1.831.307-.6.63-1.192.96-1.765l.079-.137a24.526,24.526,0,0,1-1.37-2.3l-.029-.057-.16-.324c-.719.008-1.444,0-2.171-.034h-.013c-.4-.019-.8-.044-1.2-.075-.121.073-.243.142-.367.208a8.415,8.415,0,0,1-3.06.926,8.577,8.577,0,0,1-.967.038H17.5a8.243,8.243,0,0,1-3.115-.68,8.368,8.368,0,0,1-2.639-1.821l-.013-.013a8.809,8.809,0,0,1-.637-.733,8.108,8.108,0,0,1-1.4-2.85,8.275,8.275,0,0,1-.224-3.2l0-.018a8.867,8.867,0,0,1,.176-.952,8.307,8.307,0,0,1,3.7-5.04c.059-.033.116-.068.174-.1.083-.049.161-.1.223-.126l.256-.134.222-.1a8.4,8.4,0,0,1,3.122-.745,8.1,8.1,0,0,1,3.135.488l.152.058c.1.039.2.076.279.113l.259.114.219.11a8.336,8.336,0,0,1,1.447.936,23.788,23.788,0,0,1,.431-2.643l.008-.034q.044-.186.09-.371c-.545-.448-1.088-.919-1.638-1.419l-.012-.011c-.489-.451-.976-.922-1.448-1.4-.236-.239-.474-.486-.707-.734l-.011-.011-.359-.387-1.47-1.638.7-1.573c.159-.356.328-.708.5-1.059a17.978,17.978,0,0,0-4.8.312c-.18.715-.324,1.436-.434,2.143s-.179,1.431-.217,2.134a14.272,14.272,0,0,0-1.546.6,13.449,13.449,0,0,0-2.8,1.71,20.906,20.906,0,0,0-1.89-1.015q-.489-.231-1-.444t-1.024-.393a17.72,17.72,0,0,0-1.868,2.155,18.358,18.358,0,0,0-1.5,2.426c.449.59.908,1.145,1.4,1.678q.369.4.749.772c.255.25.52.494.785.728a14.294,14.294,0,0,0-.5,1.58,14.091,14.091,0,0,0-.406,3.256c-.667.246-1.317.528-1.973.846s-1.282.67-1.916,1.059a18.954,18.954,0,0,0,.522,2.8,17.718,17.718,0,0,0,.962,2.687,21.4,21.4,0,0,0,2.188-.05q.541-.04,1.07-.1c.357-.045.711-.1,1.06-.16a13.553,13.553,0,0,0,3.218,3.723c-.219.669-.412,1.361-.57,2.068s-.283,1.428-.369,2.155a17.3,17.3,0,0,0,2.516,1.341,17.736,17.736,0,0,0,2.7.926c.475-.565.918-1.151,1.324-1.741s.782-1.208,1.121-1.831c.275.03.548.075.825.089l.414.03.415.011a13.5,13.5,0,0,0,3.264-.329,21.211,21.211,0,0,0,1.259,1.737,21.565,21.565,0,0,0,1.454,1.635c.1-.033.2-.068.3-.1l.473-1.213c.235-.6.5-1.237.793-1.888" transform="translate(0 -374.718)" fill="#fff"/>
        <path id="Caminho_24717" data-name="Caminho 24717" d="M957.6,422.57c-.656-.318-1.306-.6-1.973-.846a14.084,14.084,0,0,0-.406-3.256,14.267,14.267,0,0,0-.5-1.58c.265-.234.53-.479.785-.729s.5-.506.749-.772c.5-.533.956-1.088,1.4-1.678a18.355,18.355,0,0,0-1.5-2.426,17.731,17.731,0,0,0-1.868-2.155q-.521.187-1.024.393t-1,.444a20.871,20.871,0,0,0-1.89,1.015,13.444,13.444,0,0,0-2.8-1.71,14.25,14.25,0,0,0-1.546-.6q-.056-1.055-.217-2.134c-.11-.707-.253-1.427-.434-2.143a18.076,18.076,0,0,0-4.332-.34c.144.293.285.587.42.883l.709,1.562-1.133,1.287a40.1,40.1,0,0,1-4.473,4.354,25.135,25.135,0,0,1,.5,2.621l.009.074.022.2a8.273,8.273,0,0,1,1.018-.612l.219-.11.259-.114c.077-.037.175-.074.279-.113l.152-.058a8.1,8.1,0,0,1,3.135-.488,8.406,8.406,0,0,1,3.122.745l.222.1.256.134c.062.03.14.076.223.126.058.034.116.069.174.1a8.306,8.306,0,0,1,3.7,5.04,8.836,8.836,0,0,1,.176.952l0,.018a8.275,8.275,0,0,1-.224,3.2,8.107,8.107,0,0,1-1.4,2.85,8.767,8.767,0,0,1-.637.733l-.013.013a8.37,8.37,0,0,1-2.639,1.821,8.243,8.243,0,0,1-3.115.68H942a8.563,8.563,0,0,1-.967-.038,8.416,8.416,0,0,1-3.06-.926c-.193-.1-.381-.215-.566-.333q-.242.015-.476.026c-.662.032-1.336.049-2,.049h-.163a24.658,24.658,0,0,1-1.309,2.332l-.022.035-.207.316a39.994,39.994,0,0,1,2.755,5.6l.469,1.176c.4-.423.782-.864,1.141-1.31a21.191,21.191,0,0,0,1.259-1.736,13.5,13.5,0,0,0,3.264.329l.415-.011.414-.03c.276-.014.55-.058.825-.089.339.623.712,1.227,1.121,1.831s.849,1.176,1.324,1.741a17.744,17.744,0,0,0,2.7-.926,17.3,17.3,0,0,0,2.516-1.341c-.086-.727-.216-1.457-.369-2.155s-.35-1.4-.57-2.068a13.551,13.551,0,0,0,3.218-3.723c.349.061.7.115,1.06.16s.709.077,1.07.1a21.373,21.373,0,0,0,2.188.05,17.722,17.722,0,0,0,.962-2.687,18.97,18.97,0,0,0,.522-2.8c-.633-.388-1.27-.741-1.916-1.059" transform="translate(-865.503 -374.714)" fill="#fff"/>
        <path id="Caminho_24718" data-name="Caminho 24718" d="M300.013,251.577c.11-.131.2-.274.307-.41l.3-.414c.1-.136.193-.282.288-.424l.282-.428a21.96,21.96,0,0,0,1.85-3.613q.464.025.931.039c.311.009.617.012.929.012q.93,0,1.876-.046c.634-.029,1.256-.079,1.887-.144s1.264-.144,1.9-.24a28.683,28.683,0,0,0,.986-5.715c-1.142-.607-2.282-1.15-3.442-1.629q-.878-.359-1.756-.671c-.587-.208-1.167-.4-1.766-.575-.022-.341-.033-.683-.063-1.023l-.11-1.019a22.3,22.3,0,0,0-.908-3.956,36.819,36.819,0,0,0,5.52-5.128,28.823,28.823,0,0,0-2.917-5.01c-1.262.268-2.486.586-3.683.964q-.9.288-1.776.614-.437.163-.865.335c-.286.114-.575.238-.858.361l-.35-.375-.175-.187c-.059-.062-.122-.12-.182-.18l-.367-.358c-.122-.119-.243-.24-.373-.351a22.05,22.05,0,0,0-3.236-2.451q.205-.9.369-1.818c.109-.613.207-1.24.282-1.857s.139-1.249.188-1.884c.024-.317.045-.638.061-.955s.026-.634.033-.954a28.864,28.864,0,0,0-5.449-1.964q-.6.756-1.146,1.525t-1.059,1.577q-.253.4-.494.8c-.161.265-.318.534-.472.808q-.461.818-.875,1.644c-.337-.057-.679-.08-1.019-.114-.17-.014-.34-.038-.511-.043l-.512-.023a22.292,22.292,0,0,0-4.054.207q-.42-.821-.886-1.634c-.155-.271-.315-.542-.478-.81s-.329-.528-.5-.791a37.2,37.2,0,0,0-2.221-3.088,28.756,28.756,0,0,0-5.44,2q.029.963.1,1.906c.051.632.121,1.266.2,1.888s.177,1.236.291,1.849.245,1.224.387,1.824c-.144.092-.293.176-.432.275l-.422.292c-.139.1-.283.192-.419.295l-.407.312a21.976,21.976,0,0,0-2.971,2.765q-.852-.36-1.735-.685t-1.774-.593c-.6-.184-1.216-.361-1.826-.513s-1.233-.294-1.862-.422a29.024,29.024,0,0,0-2.878,5.016l.319.355.328.353q.329.35.664.689.669.678,1.357,1.313c.937.854,1.889,1.645,2.88,2.382-.1.328-.2.653-.292.983s-.167.663-.245,1a21.5,21.5,0,0,0-.5,4.029c-.6.181-1.178.379-1.761.592s-1.166.443-1.749.688c-.293.123-.58.249-.865.379s-.571.265-.856.4q-.855.415-1.7.876a29.237,29.237,0,0,0,1.023,5.683q.47.071.951.127t.952.1q.949.09,1.884.134,1.894.08,3.735-.025l.408.94.454.919a21.878,21.878,0,0,0,2.21,3.405c-.341.522-.659,1.047-.969,1.586s-.61,1.089-.9,1.651-.554,1.125-.815,1.7-.51,1.17-.742,1.767a29.069,29.069,0,0,0,4.445,3.7,37.529,37.529,0,0,0,3.132-2.162q.749-.575,1.457-1.176c.473-.4.939-.823,1.387-1.246l.453.239.464.218.464.217c.156.069.316.131.473.2a21.832,21.832,0,0,0,3.878,1.2,35.731,35.731,0,0,0,.649,3.677q.212.917.471,1.839c.173.612.364,1.213.57,1.821a28.941,28.941,0,0,0,5.785-.027q.3-.914.551-1.824c.167-.615.318-1.231.453-1.844s.256-1.222.36-1.835.19-1.234.262-1.847c.167-.036.335-.069.5-.108l.5-.131.5-.131c.164-.048.326-.1.489-.154a21.78,21.78,0,0,0,3.741-1.575q.675.627,1.393,1.231c.239.2.483.4.727.6s.49.384.741.572q.751.566,1.542,1.1c.265.181.529.355.8.525s.538.339.812.505a28.948,28.948,0,0,0,4.416-3.74,37.266,37.266,0,0,0-3.479-6.674m-6.947-6.851q-.132.2-.261.4l-.28.383-.022.031c-.035.053-.089.118-.146.188-.041.05-.082.1-.117.145l-.153.192c-.02.025-.042.048-.064.072l-.07.077c-.049.054-.1.109-.144.164s-.11.127-.157.174q-.178.18-.353.363c-.056.055-.114.108-.171.161s-.118.108-.175.163l-.014.013c-.063.063-.146.132-.233.2l-.106.089c-.151.135-.322.265-.5.4l-.2.155q-.2.137-.4.277l-.023.017c-.024.018-.071.047-.116.074l-.231.143a11.35,11.35,0,0,1-1.631.84l-.058.026c-.076.036-.175.073-.28.111-.069.025-.137.05-.206.077l-.123.047c-.028.011-.067.027-.079.03l-.565.18c-.029.009-.059.016-.088.023l-.1.027-.219.058c-.075.021-.151.041-.227.059-.165.033-.329.068-.495.1l-.09.02-.6.1-.021,0c-.021,0-.043,0-.064.006l-.117.012h0l-.464.05c-.1,0-.206.01-.309.016-.212.012-.412.024-.6.019h-.063c-.183.007-.381,0-.591-.013-.1-.005-.2-.01-.306-.013-.16-.017-.319-.032-.482-.046l-.1-.009-.025,0-.058-.009-.5-.072c-.029,0-.058-.011-.087-.017l-.1-.021c-.072-.015-.144-.029-.216-.042s-.162-.03-.23-.047c-.164-.042-.329-.083-.491-.122-.065-.016-.143-.04-.225-.066s-.147-.046-.221-.067l-.015,0c-.105-.028-.224-.071-.351-.116l-.144-.052-.128-.045c-.043-.015-.085-.029-.114-.041l-.284-.118a12.287,12.287,0,0,1-5.623-4.67c-.048-.08-.1-.159-.148-.238s-.1-.164-.152-.247l-.282-.508a13.743,13.743,0,0,1-.723-1.692,13.444,13.444,0,0,1-.465-1.8,14.007,14.007,0,0,1-.192-1.859,13.647,13.647,0,0,1,.089-1.841l.081-.556c.039-.189.077-.381.112-.572a12.329,12.329,0,0,1,3.648-6.339l.2-.19.437-.37.106-.081.114-.087.018-.015c.152-.124.323-.242.5-.367L276,227.9c.138-.084.275-.169.412-.255l.088-.056.026-.014.268-.147a11.163,11.163,0,0,1,1.676-.766,11.387,11.387,0,0,1,1.776-.5l.018,0,.114-.025.1-.022.553-.087c.033-.006.078-.013.094-.014l.562-.06.02,0,.1-.006.306-.016.142-.009c.043,0,.085-.007.12-.007l.591,0,.628.027.093.01q.24.025.481.045l.283.041c.214.03.417.058.6.1l.058.011c.191.032.393.083.607.137l.267.066c.154.048.308.095.456.138l.059.017.027.008.343.123a12.317,12.317,0,0,1,3.255,1.766c.08.061.158.124.236.188s.154.125.232.186l.018.014c.014.01.05.043.076.067l.092.082.216.191a13.621,13.621,0,0,1,1.272,1.347A13.938,13.938,0,0,1,293.313,232a12.856,12.856,0,0,1,.8,1.656q.083.225.169.449c.024.071.046.143.069.215s.047.15.072.225c.011.036.023.071.035.106.007.02.014.04.019.058l.151.571.007.026.019.094c.018.095.038.189.059.283s.043.2.059.288c.029.195.061.393.094.59a14.953,14.953,0,0,1,.106,1.85,14.417,14.417,0,0,1-.174,1.844,13.757,13.757,0,0,1-.456,1.8,12.506,12.506,0,0,1-.722,1.705c-.153.3-.335.62-.556.972" transform="translate(-235.47 -194.873)" fill="#fff"/>
        <path id="Caminho_24719" data-name="Caminho 24719" d="M262.966,992.027c.3.187.608.372.915.55a57.729,57.729,0,0,0,6.9,3.462c1.175.5,2.368.951,3.571,1.366.3.107.6.205.9.3s.6.2.91.285l.914.273.921.246c1.232.3,2.472.6,3.729.793.313.06.629.093.944.141s.63.093.947.121l.951.1.953.068.478.036c.159.011.319.013.478.02l.958.036c.319,0,.639,0,.959,0h.48l.48-.014c1.283-.014,2.563-.136,3.848-.273l.962-.122c.321-.045.64-.1.961-.151s.64-.109.96-.17.642-.113.96-.188l.958-.211.955-.239c.32-.074.635-.172.953-.257l.477-.133.474-.146a48.718,48.718,0,0,0,7.48-2.973c1.224-.6,2.43-1.266,3.626-1.969.6-.354,1.19-.72,1.776-1.1s1.171-.777,1.753-1.181c-.467.566-.956,1.107-1.453,1.645s-1.015,1.046-1.538,1.554c-1.048,1.011-2.146,1.963-3.281,2.862a44.463,44.463,0,0,1-7.262,4.668,42.038,42.038,0,0,1-7.99,3.127,40.788,40.788,0,0,1-8.452,1.4,42.352,42.352,0,0,1-8.611-.358,37.361,37.361,0,0,1-4.266-.879,36.235,36.235,0,0,1-4.167-1.377,40.874,40.874,0,0,1-7.833-4.192c-.377-.257-.749-.523-1.119-.792a28.612,28.612,0,0,0-1.535,5.872l-7.052-16.475,16.089-.04a24.122,24.122,0,0,0-4.069,4.312" transform="translate(-232.734 -916.031)" fill="#fff"/>
        <path id="Caminho_24720" data-name="Caminho 24720" d="M254.476,13.045c1.2-.7,2.4-1.367,3.626-1.97a48.73,48.73,0,0,1,7.48-2.973l.474-.146.477-.133c.319-.085.633-.182.953-.257l.955-.239.958-.211c.318-.075.64-.125.96-.188s.639-.123.96-.17.64-.107.961-.151l.962-.122c1.285-.137,2.565-.259,3.848-.273l.48-.014h.48c.32,0,.639,0,.959,0l.958.036c.159.007.319.009.478.02l.478.036.953.068.951.1c.317.028.632.077.947.121s.63.08.943.141c1.256.2,2.5.491,3.729.793l.921.246.914.273c.305.085.607.189.91.285s.6.195.905.3c1.2.415,2.4.862,3.571,1.366a57.741,57.741,0,0,1,6.9,3.462c.307.178.612.363.915.55a24.125,24.125,0,0,1-4.069,4.312l16.089-.04L308.452,1.8a28.613,28.613,0,0,1-1.535,5.872c-.37-.269-.742-.535-1.119-.792a40.874,40.874,0,0,0-7.833-4.192A36.211,36.211,0,0,0,293.8,1.308,37.363,37.363,0,0,0,289.532.43a42.346,42.346,0,0,0-8.611-.358,40.789,40.789,0,0,0-8.452,1.4,42.039,42.039,0,0,0-7.99,3.127,44.463,44.463,0,0,0-7.262,4.668c-1.135.9-2.233,1.85-3.281,2.862-.523.508-1.038,1.021-1.538,1.554s-.985,1.079-1.453,1.645c.583-.4,1.163-.8,1.753-1.181s1.179-.751,1.776-1.1" transform="translate(-232.734 0.004)" fill="#fff"/>
      </g>
    </g>
  </g>
</svg>
