<?xml version="1.0" encoding="utf-8"?>
<!-- Generator: Adobe Illustrator 26.0.2, SVG Export Plug-In . SVG Version: 6.00 Build 0)  -->
<svg version="1.1" id="Camada_1" xmlns="http://www.w3.org/2000/svg" xmlns:xlink="http://www.w3.org/1999/xlink" x="0px" y="0px"
	 viewBox="0 0 566.9 566.9" style="enable-background:new 0 0 566.9 566.9;" xml:space="preserve">
<style type="text/css">
	.st0{fill:#0080B9;}
</style>
<g>
	<path class="st0" d="M189,112.9h87.7c6.8,0,6.8-10.2,0-10.2H189C182.2,102.7,182.2,112.9,189,112.9"/>
	<path class="st0" d="M185,145.2h91.7c6.8,0,6.8-10.2,0-10.2H185C178.2,135,178.2,145.2,185,145.2"/>
	<path class="st0" d="M185,177.5h204.7c6.8,0,6.8-10.2,0-10.2H185C178.2,167.3,178.2,177.5,185,177.5"/>
	<path class="st0" d="M389.7,209.7c6.8,0,6.8-10.2,0-10.2H185c-6.8,0-6.8,10.2,0,10.2H389.7z"/>
	<path class="st0" d="M383.9,404.8c2.1,2.9,5.5,4.6,9,4.6l4.5-0.9l19.3-8.3l6-6.2l-0.3-8.7l-6.7-14.2l-1.4-280.8
		c-0.1-10.8-8.9-19.5-19.7-19.5H179.4c-10.8,0-19.6,8.6-19.7,19.5v268.5l-14.2,26.9c-2.8,5.3-0.9,11.9,4.4,14.8l18.3,10.2l5.5,1.4
		l3.2-0.4l6.7-5.5l2-3.7l6.6,5.5l-11.6,16c-3.9,5.4-4.5,12.5-1.4,18.4c3,5.9,9.1,9.6,15.7,9.6l3.1-0.3v0.1c0.8,4.7,3.3,8.8,7.2,11.5
		c3,2.2,6.6,3.3,10.3,3.3l3.1-0.3v0.1c1.4,8.5,8.8,14.8,17.4,14.8l3.1-0.3l0,0.1c1.4,8.5,8.8,14.8,17.4,14.8c5.7,0,11-2.7,14.4-7.3
		l3.7-5.1l6.9,5.5c7.9,6.7,19.8,5.8,26.6-2c2.4-2.8,4-6.2,4.5-9.9c7.1,2.1,14.8-0.1,19.7-5.7c2.4-2.8,4-6.2,4.5-9.9
		c7.1,2.1,14.8-0.1,19.7-5.7c2.3-2.6,3.8-5.8,4.4-9.2c7.5,2.9,16,0.8,21.3-5.2l0.2-0.3c3.2-3.7,4.8-8.5,4.5-13.4
		c-0.3-4.9-2.7-9.4-6.4-12.6l-4.2-3.6L383.9,404.8z M413.2,390.3l-0.5,0.5l-19.3,8.3l-1.3-0.5l-2.4-5.1l-0.9-1.9l-43.9-92.3l0-0.7
		l0.5-0.5l19.8-7.7l1.3,0.5l46.8,98.9L413.2,390.3z M169.9,90.3c0.1-5.2,4.4-9.4,9.5-9.3h215.1c5.2-0.1,9.5,4.1,9.5,9.3l1.4,259
		l-29.8-62.9c-2.5-5.3-8.7-7.7-14.2-5.6l-19.8,7.7l-6.3,6.2l0.3,8.8l2.1,4.4l-0.6,0.3c-7.6,1.5-12.9,1.3-20.7-0.9l-19.8-5.5
		c-5.9-1.6-12.1-1.5-17.9,0.3l-19.1,6c-3.8,1.2-7.4,3.1-10.5,5.7c-5.1-1.5-10.4-2-15.6-1.5l1.4-2.6c2.7-5.2,1-11.7-4.1-14.7
		l-18.2-11l-8.8-1.2l-6.9,5.6l-27,51.2V90.3z M174.6,401.6l-0.6,0.5l-0.8-0.1l-18.3-10.2l-0.4-1.2l51.3-97.4l0.6-0.5l0.3,0l0.5,0.1
		l18.2,11l0.3,1.2L174.6,401.6z M190.5,440.6l-3.1-4.9l1.3-5.6l19-26.2c2.5-3.3,7.2-4.1,10.5-1.7l3.1,4.9l-1.3,5.6l-5.2,7.1
		l-13.8,19l-0.1,0.1C198.6,442.2,193.9,443,190.5,440.6 M211,455.2l-3-4.9l1.3-5.6l13.8-19c2.5-3.3,7.1-4.1,10.5-1.7l3.1,4.9
		l-1.3,5.6l-4.4,6l-9.4,12.9l-0.1,0.1C219.1,456.8,214.4,457.6,211,455.2z M231.5,469.9l-3-4.9l1.3-5.6l9.5-13.1
		c2.4-3.3,7.1-4.1,10.5-1.7l3.1,4.9l-1.3,5.6l-6.3,8.7l-3.1,4.3l-0.1,0.1C239.6,471.5,234.9,472.3,231.5,469.9z M262.6,482.8
		c-2.4,3.3-7.1,4.1-10.5,1.7l-3.1-4.9l1.3-5.6l5.2-7.2c2.5-3.3,7.1-4.1,10.5-1.7l3.1,4.9l-1.3,5.6L262.6,482.8z M374.7,434.6
		l-0.2,0.3c-3.2,3.7-8.7,4.1-12.5,0.9l-7.4-6.3l0,0l-19.6-16.8l-7.3,0.5l0.7,7.2l0.1,0.1l0.2,0.2c1.6,1.4,10.7,9.1,19.4,16.6l3,5.9
		l-2.1,6.3c-3.2,3.6-8.7,4-12.4,0.9l-19.6-16.8c-3.3-2.8-8.3-0.5-8.4,3.8l1.8,3.9l13.6,11.6l3,5.9l-2.1,6.3c-3.2,3.6-8.7,4-12.4,0.9
		l-6.1-5.2l-7.5-6.4c-5.1-4.2-11.6,3.3-6.6,7.7l6.5,5.6l1,0.8l3,5.9l-2.1,6.3c-3.2,3.6-8.7,4-12.4,0.9l-0.1-0.1l-8.6-6.9
		c0.9-4.9-0.3-10-3.4-14c-3.1-3.9-7.7-6.4-12.8-6.7c0.9-4.9-0.4-10-3.5-13.9c-3.1-3.9-7.7-6.3-12.7-6.7c0.9-4.8-0.3-9.7-3.3-13.6
		c-2.9-3.9-7.4-6.4-12.2-6.9c2.1-8.2-2-16.8-9.7-20.4c-7.7-3.6-16.8-1.2-21.8,5.7l-1.4,2l-7.7-6.4l37-69.8c4.6-1.3,9.5-1.7,14.3-1.1
		l-1.6,3.2l-5.9,14.1c-1.5,3.6-2.9,7.3-4.1,11l-5.8,17.7l2.8,6.2l1.3,0.5c9.5,4.3,20.5,3.5,29.2-2.2c7.5-4.9,12.4-12.9,13.2-21.8
		l0.1-0.9c0.3-1.3,2.1-8.7,7-9.2l8.2,2.3l8.1,4.6l52.1,51.1l0.3,0.2l27.4,23.4l2.8,5.6L374.7,434.6z M353.1,391.9l-52-51
		c-3.5-3.4-7.7-5.9-12.4-7.2l-8.9-2.5l-1.4-0.2c-6.1,0-11.2,3.4-14.6,9.5l-3,8.4l-0.1,0.5l-0.1,1c-0.6,5.8-3.8,11.1-8.7,14.3
		c-4.9,3.1-10.9,4-16.5,2.5l4.3-13c1.1-3.5,2.4-7,3.8-10.4l5.8-14.1c2.4-5.7,7.2-10,13.1-11.8l19.1-6c3.9-1.2,8.2-1.3,12.1-0.2
		l19.8,5.5c9.7,2.7,16.5,2.9,26,0.9l0.9-0.3l1.5-0.6l36.9,77.4c-2.7,4.2-6.4,7.6-10.8,10L353.1,391.9z"/>
	<path class="st0" d="M202.5,271.7c3,1.4,6.3,2.1,9.6,2c4.7,0,9.4-1.3,13.4-3.7l7.3-7.3l1.1-1.4l4.5,3.2c4.2,2.2,8.8,3.4,13.6,3.5
		c5.7,0.1,11.3-1.4,16.2-4.3l1.9-7l-7-1.8c-3.3,2-7.1,2.9-10.9,2.9c-3.2,0-6.2-0.8-9-2.2l-3-2.2l-6-2.7c-4.9-0.1-7.6,3.4-9.5,6
		l-4.6,4.8c-3.8,2.4-9.6,2.9-13.2,1.1l-3.2-2.5c4-0.6,7.7-2.2,10.9-4.7c3.1-2.4,5.6-5.6,7.2-9.1c2.2-4.7,2.2-9.2-0.1-12.7
		c-1.9-2.9-5.2-4.9-9.5-5.6c-5.7-1-12,0.5-16,3.6c-4.4,3.5-6.9,9.5-6.8,16.6l-0.1,0l-6.7,2.7l2.7,6.7l6.3,2.1
		C194,265,197.8,269.5,202.5,271.7 M202.6,239.6l6.1-1.7l1.9,0.1l2.7,1.1c0.5,0.8-1.1,5.3-4.9,8.3c-2.5,1.8-5.5,2.8-8.6,2.8
		C199.3,245.6,200.4,241.3,202.6,239.6"/>
	<path class="st0" d="M389.7,249.1h-76.3c-6.8,0-6.8,10.2,0,10.2h76.3C396.5,259.3,396.5,249.1,389.7,249.1"/>
</g>
</svg>
