<svg xmlns="http://www.w3.org/2000/svg" xmlns:xlink="http://www.w3.org/1999/xlink" width="1920" height="1389" viewBox="0 0 1920 1389">
  <defs>
    <clipPath id="clip-path">
      <rect id="Retângulo_2376" data-name="Retângulo 2376" width="1920" height="1389" transform="translate(0 4481)" fill="#fff"/>
    </clipPath>
    <clipPath id="clip-path-2">
      <rect id="Retângulo_2366" data-name="Retângulo 2366" width="1920" height="1766" transform="translate(0 4102)" fill="#fff"/>
    </clipPath>
  </defs>
  <g id="Grupo_de_máscara_7" data-name="Grupo de máscara 7" transform="translate(0 -4481)" clip-path="url(#clip-path)">
    <g id="vetor-direita-quadrado-laranja" clip-path="url(#clip-path-2)">
      <g id="vetor-direita-quadrado-laranja-2" data-name="vetor-direita-quadrado-laranja" transform="translate(-502 3274)">
        <path id="Caminho_24814" data-name="Caminho 24814" d="M2204.3,1723.994a1.259,1.259,0,0,1-.893.369H1.264a1.263,1.263,0,1,1,0-2.526H2203.405a1.265,1.265,0,0,1,1.264,1.264,1.251,1.251,0,0,1-.372.893" transform="translate(0 -270.57)" fill="#ff9d00"/>
        <path id="Caminho_24827" data-name="Caminho 24827" d="M3234.327,2146.562a1.26,1.26,0,0,1-.893.369H2125.066a1.263,1.263,0,1,1,0-2.526H3233.434a1.262,1.262,0,0,1,.893,2.157" transform="translate(-333.737 -336.973)" fill="#00c0f2"/>
        <path id="Caminho_24815" data-name="Caminho 24815" d="M2555.556,2981.267a1.264,1.264,0,0,1-2.157-.9l0-1108.368a1.263,1.263,0,0,1,2.526,0V2980.372a1.261,1.261,0,0,1-.372.9" transform="translate(-401.245 -293.969)" fill="#ff9d00"/>
        <path id="Caminho_24816" data-name="Caminho 24816" d="M2201.334,761.637a1.593,1.593,0,0,1-.893.253c-.7,0-1.264-.387-1.264-.865V.861c0-.479.566-.865,1.264-.865s1.262.387,1.262.865V761.024a.758.758,0,0,1-.369.612" transform="translate(-345.582 349.004)" fill="#ff9d00"/>
        <path id="Caminho_24817" data-name="Caminho 24817" d="M2600.049,2355.3a150.714,150.714,0,0,1-107.287,44.44l-328.523,0a151.729,151.729,0,0,1-151.726-151.727V1919.488a151.725,151.725,0,0,1,151.726-151.727h49.917l0,50.531-49.919,0a101.193,101.193,0,0,0-101.2,101.194v328.525a101.192,101.192,0,0,0,101.194,101.194h328.525a101.195,101.195,0,0,0,101.2-101.194V1919.488a101.314,101.314,0,0,0-101.2-101.2l-111.709,0,0-50.533h111.712c83.663,0,151.727,68.064,151.729,151.727l0,328.525a150.719,150.719,0,0,1-44.44,107.285" transform="translate(-316.249 -277.787)" fill="#00c0f2" opacity="0.3"/>
        <path id="Caminho_24824" data-name="Caminho 24824" d="M2174.984,2244.444a68.946,68.946,0,0,1-48.878,20.276h-33.553v-10.1h33.553a59.118,59.118,0,0,0,59.049-59.052V2029.032a59.051,59.051,0,0,0-58.981-59.052l-30.734.893-.294-10.1,30.957-.9a69.156,69.156,0,0,1,69.16,69.157v166.532a68.951,68.951,0,0,1-20.278,48.88" transform="translate(-328.827 -307.977)" fill="#ff9d00"/>
        <path id="Caminho_24826" data-name="Caminho 24826" d="M2136.206,2156.938a7.8,7.8,0,0,1-5.542,2.3H2113.57a7.811,7.811,0,0,1-7.262-4.878l0,0a7.825,7.825,0,0,1-.579-2.961v-17.1a7.848,7.848,0,0,1,7.843-7.841h17.094a7.843,7.843,0,0,1,7.843,7.841v17.1a7.817,7.817,0,0,1-2.3,5.543m-27.559-3.535a5.3,5.3,0,0,0,4.923,3.307h17.094a5.323,5.323,0,0,0,5.317-5.315v-17.1a5.318,5.318,0,0,0-5.317-5.315H2113.57a5.325,5.325,0,0,0-5.317,5.315v17.1a5.289,5.289,0,0,0,.394,2.008" transform="translate(-330.896 -334.152)" fill="#00c0f2"/>
        <path id="Caminho_24828" data-name="Caminho 24828" d="M2120.565,2148.071a1.742,1.742,0,0,0,1.608,1.08h4.511a1.738,1.738,0,0,0,1.737-1.737v-4.509a1.737,1.737,0,0,0-1.737-1.737h-4.511a1.735,1.735,0,0,0-1.735,1.737v4.509a1.769,1.769,0,0,0,.126.657" transform="translate(-333.209 -336.465)" fill="#00c0f2"/>
        <path id="Caminho_24818" data-name="Caminho 24818" d="M2565.326,1883.272a7.816,7.816,0,0,1-5.542,2.3h-17.1a7.833,7.833,0,0,1-7.841-7.844v-17.093a7.848,7.848,0,0,1,7.841-7.844h17.1a7.852,7.852,0,0,1,7.841,7.844v17.093a7.8,7.8,0,0,1-2.3,5.543m-26.393-26.393a5.294,5.294,0,0,0-1.561,3.758v17.093a5.269,5.269,0,0,0,.392,2.008v0a5.3,5.3,0,0,0,4.923,3.307h17.1a5.323,5.323,0,0,0,5.315-5.317v-17.093a5.323,5.323,0,0,0-5.315-5.318h-17.1a5.292,5.292,0,0,0-3.754,1.56m-2.337,23.339.007-.01Z" transform="translate(-398.329 -291.148)" fill="#ff9d00"/>
        <path id="Caminho_24819" data-name="Caminho 24819" d="M2547.656,1875.36a2.5,2.5,0,0,0,2.316,1.555h6.5a2.5,2.5,0,0,0,2.5-2.5v-6.493a2.5,2.5,0,0,0-2.5-2.5h-6.5a2.5,2.5,0,0,0-2.5,2.5v6.493a2.488,2.488,0,0,0,.185.946" transform="translate(-400.313 -293.133)" fill="#ff9d00"/>
        <path id="Caminho_24820" data-name="Caminho 24820" d="M2626.164,1734.37a7.826,7.826,0,0,1-5.543,2.3h-17.093a7.841,7.841,0,0,1-7.844-7.841v-17.1a7.854,7.854,0,0,1,7.844-7.844l17.093,0a7.852,7.852,0,0,1,7.844,7.841v17.093a7.823,7.823,0,0,1-2.3,5.545m-26.393-26.4a5.3,5.3,0,0,0-1.56,3.757v17.1a5.284,5.284,0,0,0,.392,2.008h0a5.3,5.3,0,0,0,4.923,3.307h17.093a5.325,5.325,0,0,0,5.318-5.318v-17.093a5.323,5.323,0,0,0-5.318-5.315l-17.093,0a5.293,5.293,0,0,0-3.757,1.56m-2.336,23.339.007-.01Z" transform="translate(-407.889 -267.75)" fill="#ff9d00"/>
        <path id="Caminho_24821" data-name="Caminho 24821" d="M2609.439,1726.011a2.151,2.151,0,0,0,1.987,1.335h5.568a2.146,2.146,0,0,0,2.145-2.144v-5.57a2.145,2.145,0,0,0-2.145-2.144h-5.568a2.143,2.143,0,0,0-2.144,2.144v5.57a2.156,2.156,0,0,0,.157.809" transform="translate(-410.027 -269.887)" fill="#ff9d00"/>
        <path id="Caminho_24822" data-name="Caminho 24822" d="M2212.211,1327.144a7.825,7.825,0,0,1-5.543,2.3h-17.093a7.836,7.836,0,0,1-7.844-7.844v-17.093a7.852,7.852,0,0,1,7.844-7.844h17.093a7.854,7.854,0,0,1,7.844,7.844V1321.6a7.824,7.824,0,0,1-2.3,5.545m-27.562-3.535a5.306,5.306,0,0,0,4.926,3.307h17.093a5.325,5.325,0,0,0,5.317-5.318v-17.093a5.329,5.329,0,0,0-5.317-5.318h-17.093a5.326,5.326,0,0,0-5.318,5.318V1321.6a5.376,5.376,0,0,0,.392,2.01" transform="translate(-342.84 -203.758)" fill="#ff9d00"/>
        <path id="Caminho_24823" data-name="Caminho 24823" d="M2196.19,1318.455a1.879,1.879,0,0,0,1.74,1.168h4.885a1.88,1.88,0,0,0,1.879-1.879v-4.885a1.88,1.88,0,0,0-1.879-1.879h-4.885a1.879,1.879,0,0,0-1.878,1.879v4.885a1.848,1.848,0,0,0,.138.711" transform="translate(-345.091 -206.008)" fill="#ff9d00"/>
        <path id="Caminho_24825" data-name="Caminho 24825" d="M2112.832,2244.443a68.946,68.946,0,0,0,48.878,20.276h33.553v-10.1h-33.553a59.118,59.118,0,0,1-59.049-59.052V2029.032a59.051,59.051,0,0,1,58.981-59.052l30.734.893.294-10.1-30.957-.9a69.156,69.156,0,0,0-69.16,69.157v166.531a68.951,68.951,0,0,0,20.278,48.88" transform="translate(-531.299 -307.977)" fill="#ff9d00"/>
      </g>
    </g>
  </g>
</svg>
