<svg id="Grupo_284" data-name="Grupo 284" xmlns="http://www.w3.org/2000/svg" width="32.159" height="32.159" viewBox="0 0 32.159 32.159">
  <g id="Grupo_282" data-name="Grupo 282" transform="translate(10.441 6.422)">
    <path id="Caminho_585" data-name="Caminho 585" d="M803.344,79.756q0-1.018,0-2.036,0-3.3,0-6.6c0-.168,0-.169-.165-.169-.884,0-1.769,0-2.653,0-.116,0-.154-.024-.154-.149.005-1.05,0-2.1,0-3.15,0-.157,0-.157.154-.157.892,0,1.784,0,2.676,0,.109,0,.141-.03.141-.139,0-.872-.008-1.745,0-2.617a4.808,4.808,0,0,1,.452-2.029,3.794,3.794,0,0,1,2.8-2.157,5,5,0,0,1,1.173-.119c.619.017,1.238.03,1.857.053.232.009.462.049.694.061.1.006.123.045.122.137q0,1.427,0,2.854c0,.108-.036.133-.137.133-.541,0-1.082-.006-1.622,0a5.322,5.322,0,0,0-.648.048,1.152,1.152,0,0,0-1.053,1.047,4.993,4.993,0,0,0-.047.636c-.006.655,0,1.311,0,1.966,0,.1.029.127.127.126,1.038,0,2.076,0,3.115,0,.157,0,.162,0,.142.157-.074.562-.153,1.124-.226,1.686-.061.469-.116.939-.173,1.408,0,.027-.009.055-.01.082,0,.093-.049.123-.144.122-.474,0-.947,0-1.421,0h-1.243c-.163,0-.163,0-.163.158v6.146c0,.781,0,2.27,0,2.5Z" transform="translate(-800.37 -60.441)" fill="#fff"/>
  </g>
  <g id="Grupo_283" data-name="Grupo 283" transform="translate(0)">
    <path id="Caminho_586" data-name="Caminho 586" d="M767.469,62.471a16.08,16.08,0,1,1,16.079-16.08A16.1,16.1,0,0,1,767.469,62.471Zm0-30.454a14.374,14.374,0,1,0,14.374,14.374A14.391,14.391,0,0,0,767.469,32.017Z" transform="translate(-751.389 -30.312)" fill="#fff"/>
  </g>
</svg>
