<svg xmlns="http://www.w3.org/2000/svg" width="32.159" height="32.159" viewBox="0 0 32.159 32.159">
  <g id="Grupo_292" data-name="Grupo 292" transform="translate(0)">
    <g id="Grupo_290" data-name="Grupo 290">
      <path id="Caminho_592" data-name="Caminho 592" d="M1126.411,62.471a16.08,16.08,0,1,1,16.079-16.08A16.1,16.1,0,0,1,1126.411,62.471Zm0-30.454a14.374,14.374,0,1,0,14.374,14.374A14.391,14.391,0,0,0,1126.411,32.017Z" transform="translate(-1110.331 -30.312)" fill="#fff"/>
    </g>
    <g id="Grupo_291" data-name="Grupo 291" transform="translate(7.102 7.01)">
      <path id="Caminho_593" data-name="Caminho 593" d="M1161.356,67.094a4.758,4.758,0,0,0-4.525-3.811c-.205-.012-.409-.056-.613-.085h-7.182c-.484.071-.974.114-1.45.219a4.808,4.808,0,0,0-3.853,4.6c-.012.208-.055.414-.083.621V75.9c.067.474.11.954.207,1.422a4.8,4.8,0,0,0,4.567,3.93c.235.013.469.059.7.09h6.913c.573-.083,1.155-.121,1.715-.256a4.774,4.774,0,0,0,3.761-4.566c.015-.268.059-.534.09-.8V68.731C1161.524,68.184,1161.483,67.629,1161.356,67.094ZM1159.9,76.2a3.483,3.483,0,0,1-.785,2.265,3.284,3.284,0,0,1-2.546,1.142c-1.33.04-2.661.01-3.992.01v0c-1.271,0-2.543.036-3.813-.008a3.226,3.226,0,0,1-3.4-3.423c-.055-2.642-.046-5.287,0-7.93a3.112,3.112,0,0,1,2.5-3.218,9.879,9.879,0,0,1,2.005-.19c2.2,0,4.4,0,6.6.067a3.233,3.233,0,0,1,3.432,3.487C1159.947,71,1159.922,73.6,1159.9,76.2Z" transform="translate(-1143.65 -63.198)" fill="#fff"/>
      <path id="Caminho_594" data-name="Caminho 594" d="M1204.222,80.146a1.119,1.119,0,0,1-1.105-1.079,1.085,1.085,0,0,1,1.071-1.1,1.046,1.046,0,0,1,1.089,1.062A1.087,1.087,0,0,1,1204.222,80.146Z" transform="translate(-1190.441 -74.821)" fill="#fff"/>
      <path id="Caminho_595" data-name="Caminho 595" d="M1168.792,83.914a4.651,4.651,0,1,0,4.571,4.7A4.6,4.6,0,0,0,1168.792,83.914Zm-.048,7.658a3.006,3.006,0,1,1,2.992-3A2.966,2.966,0,0,1,1168.744,91.572Z" transform="translate(-1159.785 -79.498)" fill="#fff"/>
    </g>
  </g>
</svg>
