<svg id="Grupo_286" data-name="Grupo 286" xmlns="http://www.w3.org/2000/svg" width="32.159" height="32.159" viewBox="0 0 32.159 32.159">
  <g id="Grupo_285" data-name="Grupo 285">
    <path id="Caminho_587" data-name="Caminho 587" d="M1485.353,62.471a16.08,16.08,0,1,1,16.08-16.08A16.1,16.1,0,0,1,1485.353,62.471Zm0-30.454a14.374,14.374,0,1,0,14.374,14.374A14.391,14.391,0,0,0,1485.353,32.017Z" transform="translate(-1469.273 -30.312)" fill="#fff"/>
  </g>
  <path id="Caminho_588" data-name="Caminho 588" d="M1516.642,77.319H1508.3c-4.564,0-4.564,1.3-4.564,4.5v3.125c0,3.041.646,4.5,4.564,4.5h8.338c3.538,0,4.564-.852,4.564-4.5V81.816C1521.206,78.451,1521.033,77.319,1516.642,77.319Zm-5.953,8.434v-4.9l4.708,2.445Z" transform="translate(-1496.393 -67.299)" fill="#fff"/>
</svg>
