<svg xmlns="http://www.w3.org/2000/svg" width="32.159" height="32.159" viewBox="0 0 32.159 32.159">
  <g id="Grupo_289" data-name="Grupo 289" transform="translate(0)">
    <g id="Grupo_287" data-name="Grupo 287" transform="translate(0)">
      <path id="Caminho_589" data-name="Caminho 589" d="M1305.882,62.471a16.08,16.08,0,1,1,16.079-16.08A16.1,16.1,0,0,1,1305.882,62.471Zm0-30.454a14.374,14.374,0,1,0,14.374,14.374A14.391,14.391,0,0,0,1305.882,32.017Z" transform="translate(-1289.802 -30.312)" fill="#c7c7c7"/>
    </g>
    <g id="Grupo_288" data-name="Grupo 288" transform="translate(8.494 7.299)">
      <path id="Caminho_590" data-name="Caminho 590" d="M1329.919,69.985h3.4V80.908h-3.4Zm1.7-5.429a1.968,1.968,0,1,1-1.969,1.968,1.969,1.969,0,0,1,1.969-1.968" transform="translate(-1329.649 -64.556)" fill="#c7c7c7"/>
      <path id="Caminho_591" data-name="Caminho 591" d="M1356.834,89.025h3.256v1.493h.045a3.567,3.567,0,0,1,3.212-1.764c3.437,0,4.072,2.262,4.072,5.2v5.991h-3.392V94.636c0-1.267-.023-2.9-1.764-2.9-1.766,0-2.037,1.38-2.037,2.8v5.4h-3.392Z" transform="translate(-1351.039 -83.595)" fill="#c7c7c7"/>
    </g>
  </g>
</svg>
