<svg id="Grupo_1616" data-name="Grupo 1616" xmlns="http://www.w3.org/2000/svg" xmlns:xlink="http://www.w3.org/1999/xlink" width="199.909" height="47.669" viewBox="0 0 199.909 47.669">
  <defs>
    <clipPath id="clip-path">
      <rect id="Retângulo_6" data-name="Retângulo 6" width="199.909" height="47.669" fill="#fff"/>
    </clipPath>
  </defs>
  <g id="Grupo_4" data-name="Grupo 4" clip-path="url(#clip-path)">
    <path id="Caminho_25" data-name="Caminho 25" d="M20.958,35.643a8.86,8.86,0,0,0,1.931-5.184c.025-.813.036-1.767.032-2.837s0-2.26-.032-3.614v-4.35a11.84,11.84,0,0,1,3.2-8.393,10.671,10.671,0,0,1,8.154-3.434l9.683,0a25.169,25.169,0,0,0-7.144-5.2,25.571,25.571,0,0,0-4.035-1.568,26.805,26.805,0,0,0-15.018,0A25.823,25.823,0,0,0,13.7,2.638,24.357,24.357,0,0,0,1.319,16.227a22.614,22.614,0,0,0-.075,15.008A23.292,23.292,0,0,0,4.877,37.9H16.327a5.633,5.633,0,0,0,4.631-2.259" transform="translate(0 0.001)" fill="#fff"/>
    <path id="Caminho_26" data-name="Caminho 26" d="M141.152,141.972a22.819,22.819,0,0,0-2.311-4.687H126.256a5.713,5.713,0,0,0-4.691,2.224,8.812,8.812,0,0,0-1.929,5.218q-.007.66,0,2.334v4.234c0,1.852,0,3.26,0,4.236a11.838,11.838,0,0,1-3.21,8.393,10.619,10.619,0,0,1-8.1,3.429h-7.892A25.37,25.37,0,0,0,106.152,171a26.615,26.615,0,0,0,19.488,1.056,25.9,25.9,0,0,0,2.675-1.058,24.365,24.365,0,0,0,12.913-14.014,22.552,22.552,0,0,0-.076-15.008" transform="translate(-91.993 -125.744)" fill="#fff"/>
    <path id="Caminho_27" data-name="Caminho 27" d="M738.218,175.091q7.53,1.632,7.531,5.9,0,5.548-10.989,5.544h-2.851q-5.279,0-7.7-2.368l2.174-1.006a8.612,8.612,0,0,0,5.534,1.617h4.622q6.755,0,6.758-3.645,0-3.129-6.428-4.5l-5.457-1.149q-7.024-1.495-7.021-5.516,0-5.046,8.9-5.046h4.327q5.342,0,7.689,2.262l-2.174,1a9.389,9.389,0,0,0-5.787-1.5h-4.969q-5.53,0-5.531,3.392,0,2.564,5.707,3.789Z" transform="translate(-663.323 -151.059)" fill="#fff"/>
    <path id="Caminho_28" data-name="Caminho 28" d="M1036,162.533a9.312,9.312,0,0,1,4.95,8.414,2.717,2.717,0,0,1-.156.98h-25.637a8.363,8.363,0,0,0,4.33,6.977,14.653,14.653,0,0,0,7.615,1.889,22.8,22.8,0,0,0,5.495-.7,12.413,12.413,0,0,0,4.78-2.086l1.826,1.32q-4.1,3.223-12.092,3.221a18.077,18.077,0,0,1-9.492-2.416,10.213,10.213,0,0,1-.119-17.525,17.254,17.254,0,0,1,9.319-2.481,17.43,17.43,0,0,1,9.181,2.4m2.386,7.637a8.47,8.47,0,0,0-4.314-6.524,15.386,15.386,0,0,0-14.56,0,8.448,8.448,0,0,0-4.354,6.524Z" transform="translate(-927.465 -146.667)" fill="#fff"/>
    <path id="Caminho_29" data-name="Caminho 29" d="M1383.7,76.923c1.206,0,1.806.438,1.806,1.313,0,.908-.6,1.36-1.806,1.36-1.14,0-1.708-.453-1.708-1.36,0-.875.567-1.313,1.708-1.313m1.261,29.013h-2.457V84.321h2.457Z" transform="translate(-1265.814 -70.456)" fill="#fff"/>
    <path id="Caminho_30" data-name="Caminho 30" d="M1484.393,42.023V73.97h-2.457V69.947a13.719,13.719,0,0,1-6.405,3.69,17.979,17.979,0,0,1-5.2.737,17.35,17.35,0,0,1-9.353-2.439,9.7,9.7,0,0,1-4.869-8.762,9.786,9.786,0,0,1,4.746-8.83,17.268,17.268,0,0,1,9.34-2.392q7.481,0,11.742,4.778V42.023ZM1475.522,71.7a13.913,13.913,0,0,0,6.415-4.5V64.267a10.193,10.193,0,0,0-2.8-7.406q-3.13-3.223-8.82-3.223a14.06,14.06,0,0,0-7.774,2.056,8.329,8.329,0,0,0-3.905,7.435,8.333,8.333,0,0,0,3.886,7.472,14.128,14.128,0,0,0,7.794,2.014,14.54,14.54,0,0,0,5.205-.917" transform="translate(-1333.699 -38.49)" fill="#fff"/>
    <path id="Caminho_31" data-name="Caminho 31" d="M1848.818,162.61a10.288,10.288,0,0,1-.019,17.479,18.749,18.749,0,0,1-18.608-.02,10.212,10.212,0,0,1,0-17.459,18.72,18.72,0,0,1,18.627,0m-1.609,16.056a8.928,8.928,0,0,0,.043-14.77,15.492,15.492,0,0,0-15.513,0,8.941,8.941,0,0,0,0,14.814,13.915,13.915,0,0,0,7.765,2.081,13.711,13.711,0,0,0,7.705-2.126" transform="translate(-1671.833 -146.667)" fill="#fff"/>
    <path id="Caminho_32" data-name="Caminho 32" d="M2210.714,165.717h-.172q.286,0-3.3-.258a8.947,8.947,0,0,0-6.793,2.665,10.406,10.406,0,0,0-2.7,7.562v9.666h-2.383V163.737h2.383v4.219q3.417-4.326,9.846-4.328c.334.03,1.377.14,3.123.328Z" transform="translate(-2010.805 -149.872)" fill="#fff"/>
  </g>
</svg>
