<svg xmlns="http://www.w3.org/2000/svg" width="212.997" height="47.681" viewBox="0 0 212.997 47.681">
  <g id="Grupo_1617" data-name="Grupo 1617" transform="translate(0 0)">
    <path id="Caminho_338" data-name="Caminho 338" d="M166.805,180.276h-3.274V168.328h3.274c4.354,0,7.831,1.45,7.831,5.927,0,4.582-3.477,6.022-7.831,6.022m-35.146,8.555a13.5,13.5,0,0,1-4.761-.853l4.7-14.837h.1l4.61,14.883A13.693,13.693,0,0,1,131.659,188.831Zm34.269-30.2H151.1v35.257l-12.963-35.257H125.3L114.225,188.11c-1.167-7.426-8.864-9.99-14.916-11.927-4.008-1.275-8.24-3.184-8.2-5.259.031-1.7,2.281-3.294,6.716-3.061,2.978.166,5.622.4,10.852,2.928l5.157-8.973a40.311,40.311,0,0,0-16.8-3.99h-.038c-6.313,0-11.572,2.061-14.837,5.429a12.557,12.557,0,0,0-3.546,8.643A11.6,11.6,0,0,0,83.7,182.266a34.628,34.628,0,0,0,10.088,4.612c4.114,1.27,7.476,2.388,7.435,4.766a3.4,3.4,0,0,1-.973,2.3c-1.023,1.061-2.6,1.459-4.773,1.507-4.212.075-7.327-.578-12.29-3.507l-4.58,9.087A34.3,34.3,0,0,0,95.4,205.509h.765a20.268,20.268,0,0,0,12.776-4.294l.538-.455-1.486,3.971H121.47l2.26-6.88a25.543,25.543,0,0,0,15.647.067l2.183,6.813h21.971V190.479h4.794c11.594,0,18.449-5.886,18.449-15.78C186.775,163.675,180.122,158.633,165.928,158.633Z" transform="translate(-78.608 -157.828)" fill="#fff" fill-rule="evenodd"/>
    <path id="Caminho_339" data-name="Caminho 339" d="M208.225,162.731a3.843,3.843,0,0,1-2.308,3.629c1.892.644,3.218,1.729,3.218,3.951,0,2.91-2.383,4.459-5.993,4.459H195.65V158.585h7.264c3.26,0,5.311,1.6,5.311,4.146m-2.842.465c0-1.331-1.014-2.085-2.838-2.085h-4.094v4.3h3.885C204.155,165.412,205.383,164.687,205.383,163.2Zm.9,6.812c0-1.383-1.094-2.2-3.33-2.2h-4.507v4.444h4.71C205.107,172.254,206.287,171.5,206.287,170.007Z" transform="translate(-71.806 -157.784)" fill="#fff"/>
    <path id="Caminho_340" data-name="Caminho 340" d="M217.847,162.342h2.8v12.214h-2.8v-1.9a4.406,4.406,0,0,1-3.818,2.151c-2.753,0-4.354-1.853-4.354-4.691v-7.779h2.8v6.945c0,1.886.948,2.985,2.616,2.985a2.723,2.723,0,0,0,2.752-3.033v-6.9" transform="translate(-70.991 -157.566)" fill="#fff"/>
    <path id="Caminho_341" data-name="Caminho 341" d="M226.513,174.8a8.643,8.643,0,0,1-5.183-1.834l1.252-1.9a6.776,6.776,0,0,0,4,1.507c1.2,0,1.9-.5,1.9-1.312v-.048c0-.952-1.3-1.275-2.729-1.72-1.8-.5-3.82-1.24-3.82-3.576v-.052c0-2.308,1.924-3.719,4.35-3.719a8.431,8.431,0,0,1,4.492,1.392l-1.109,1.99a7.044,7.044,0,0,0-3.445-1.157c-1.089,0-1.71.5-1.71,1.222v.043c0,.886,1.308,1.241,2.749,1.71,1.781.554,3.79,1.36,3.79,3.558v.048c0,2.567-1.99,3.852-4.531,3.852" transform="translate(-70.314 -157.577)" fill="#fff"/>
    <path id="Caminho_342" data-name="Caminho 342" d="M235.156,160.728h-3.008v-2.663h3.008Zm-.1,14.076h-2.8V162.591h2.8Z" transform="translate(-69.685 -157.814)" fill="#fff"/>
    <path id="Caminho_343" data-name="Caminho 343" d="M240.062,174.57h-2.8V162.356h2.8v1.9a4.394,4.394,0,0,1,3.815-2.146c2.752,0,4.349,1.852,4.349,4.695v7.77h-2.8v-6.936c0-1.891-.948-2.985-2.611-2.985a2.711,2.711,0,0,0-2.748,3.031v6.889" transform="translate(-69.388 -157.579)" fill="#fff"/>
    <path id="Caminho_344" data-name="Caminho 344" d="M255.407,172.556a4.439,4.439,0,0,0,3.3-1.455l1.643,1.455a6.173,6.173,0,0,1-4.993,2.289,6.38,6.38,0,0,1-.3-12.745c3.88,0,5.851,3.06,5.851,6.6l-.042.767h-8.974a3.418,3.418,0,0,0,3.515,3.094m2.725-4.951c-.184-1.8-1.251-3.212-3.1-3.212-1.71,0-2.914,1.317-3.17,3.212Z" transform="translate(-68.701 -157.58)" fill="#fff"/>
    <path id="Caminho_345" data-name="Caminho 345" d="M266.069,174.8a8.662,8.662,0,0,1-5.183-1.834l1.255-1.9a6.8,6.8,0,0,0,4,1.507c1.2,0,1.9-.5,1.9-1.312v-.048c0-.952-1.3-1.275-2.729-1.72-1.805-.5-3.819-1.24-3.819-3.576v-.052c0-2.308,1.918-3.719,4.345-3.719a8.414,8.414,0,0,1,4.492,1.392l-1.108,1.99a7.034,7.034,0,0,0-3.449-1.157c-1.09,0-1.711.5-1.711,1.222v.043c0,.886,1.317,1.241,2.748,1.71,1.786.554,3.8,1.36,3.8,3.558v.048c0,2.567-2,3.852-4.545,3.852" transform="translate(-68.015 -157.577)" fill="#fff"/>
    <path id="Caminho_346" data-name="Caminho 346" d="M275.9,174.8a8.629,8.629,0,0,1-5.174-1.834l1.242-1.9a6.829,6.829,0,0,0,4.008,1.507c1.2,0,1.891-.5,1.891-1.312v-.048c0-.952-1.289-1.275-2.725-1.72-1.805-.5-3.819-1.24-3.819-3.576v-.052c0-2.308,1.915-3.719,4.345-3.719a8.437,8.437,0,0,1,4.492,1.392l-1.113,1.99a7.014,7.014,0,0,0-3.444-1.157c-1.086,0-1.711.5-1.711,1.222v.043c0,.886,1.317,1.241,2.748,1.71,1.786.554,3.8,1.36,3.8,3.558v.048c0,2.567-1.99,3.852-4.539,3.852" transform="translate(-67.443 -157.577)" fill="#fff"/>
    <path id="Caminho_347" data-name="Caminho 347" d="M207.465,204.148c-8.2,0-14.08-6.113-14.08-13.664v-.076a13.734,13.734,0,0,1,14.152-13.728c8.2,0,14.086,6.1,14.086,13.653v.075a13.743,13.743,0,0,1-14.158,13.741m8.041-13.741a8.067,8.067,0,0,0-8.041-8.345,7.94,7.94,0,0,0-7.969,8.27v.075a8.067,8.067,0,0,0,8.041,8.348,7.942,7.942,0,0,0,7.969-8.272Z" transform="translate(-71.938 -156.732)" fill="#f0ad00"/>
    <path id="Caminho_348" data-name="Caminho 348" d="M235.121,203.337V191.995c0-2.729-1.289-4.132-3.488-4.132s-3.61,1.4-3.61,4.132v11.342h-5.766V183h5.766v2.889c1.336-1.706,3.042-3.272,5.961-3.272,4.368,0,6.9,2.892,6.9,7.555v13.161h-5.766" transform="translate(-70.26 -156.387)" fill="#f0ad00"/>
    <path id="Caminho_349" data-name="Caminho 349" d="M262.116,195.188H247.96a4.722,4.722,0,0,0,4.975,3.981,6.666,6.666,0,0,0,4.928-2.086l3.3,2.919a10.18,10.18,0,0,1-8.31,3.8c-6.112,0-10.622-4.293-10.622-10.509v-.066c0-5.819,4.136-10.6,10.053-10.6,6.794,0,9.908,5.275,9.908,11.046v.067c0,.568-.042.909-.077,1.45m-9.831-7.931c-2.387,0-3.941,1.7-4.4,4.32h8.689C256.233,189,254.721,187.257,252.285,187.257Z" transform="translate(-69.099 -156.387)" fill="#f0ad00"/>
    <path id="Caminho_350" data-name="Caminho 350" d="M192.66,163.962a5.392,5.392,0,1,1-5.3-5.377,5.407,5.407,0,0,1,5.3,5.377m-9.556,0a4.162,4.162,0,1,0,4.217-4.188A4.176,4.176,0,0,0,183.1,163.962ZM184.824,161H187.6c1.725,0,2.5.469,2.5,1.521a1.241,1.241,0,0,1-1.057,1.331c.673.208.921.5.921,1.015v.677c0,.842.033,1.014.274,1.194h-1.748l-.181-.7v-.843c0-.568-.175-.706-.843-.706h-.981v2.251h-1.658Zm3.061,2.326.56-.559-.56-.6h-1.4v1.155Z" transform="translate(-72.607 -157.784)" fill="#fff"/>
  </g>
</svg>
